<svg width="20" height="21" viewBox="0 0 20 21" fill="none" xmlns="http://www.w3.org/2000/svg">
<path d="M2.50005 5.91522C2.6095 5.91511 2.71789 5.93662 2.819 5.97852C2.9201 6.02043 3.01194 6.08189 3.08922 6.15939L10.0001 13.0727L16.9109 6.15939C16.9878 6.0798 17.0797 6.01631 17.1814 5.97264C17.2831 5.92896 17.3924 5.90598 17.5031 5.90501C17.6137 5.90405 17.7234 5.92514 17.8258 5.96704C17.9283 6.00894 18.0213 6.07082 18.0996 6.14906C18.1778 6.2273 18.2397 6.32035 18.2816 6.42276C18.3235 6.52518 18.3446 6.63491 18.3436 6.74556C18.3426 6.85621 18.3196 6.96556 18.276 7.06723C18.2323 7.1689 18.1688 7.26085 18.0892 7.33772L10.5892 14.8411C10.4299 14.9914 10.2191 15.0752 10.0001 15.0752C9.78098 15.0752 9.5702 14.9914 9.41089 14.8411L1.91089 7.33772C1.79438 7.22118 1.71504 7.07271 1.6829 6.91108C1.65076 6.74946 1.66726 6.58193 1.73032 6.42968C1.79338 6.27743 1.90016 6.14729 2.03717 6.05572C2.17418 5.96415 2.33526 5.91526 2.50005 5.91522Z" fill="#262626"/>
</svg>
