<svg width="20" height="20" viewBox="0 0 20 20" fill="none" xmlns="http://www.w3.org/2000/svg">
<circle cx="10" cy="10" r="9.5" stroke="black"/>
<path d="M10.436 5.35724C10.436 5.15589 10.2728 4.99266 10.0714 4.99266C9.87009 4.99266 9.70686 5.15589 9.70686 5.35724L9.70686 9.70671L5.3574 9.70671C5.15604 9.70671 4.99281 9.86994 4.99281 10.0713C4.99281 10.2726 5.15604 10.4359 5.3574 10.4359L9.70686 10.4359L9.70686 14.7853C9.70686 14.9867 9.87009 15.1499 10.0714 15.1499C10.2728 15.1499 10.436 14.9867 10.436 14.7853L10.436 10.4359L14.7855 10.4359C14.9868 10.4359 15.1501 10.2726 15.1501 10.0713C15.1501 9.86994 14.9868 9.70671 14.7855 9.70671L10.436 9.70671L10.436 5.35724Z" fill="black"/>
</svg>
