<svg width="122" height="50" viewBox="0 0 122 50" fill="none" xmlns="http://www.w3.org/2000/svg">
<rect width="122" height="50" rx="25" fill="#E6404F"/>
<g clip-path="url(#clip0_2192_16600)">
<path fill-rule="evenodd" clip-rule="evenodd" d="M50.022 24.5925C50.0204 24.5941 50.0188 24.5138 50.0196 24.4153C50.0251 24.0396 50.0346 23.2599 49.2329 22.4503C48.1121 21.317 45.2784 19.9655 38.1422 19.9663C31.0398 19.9679 28.2006 21.3075 27.0712 22.4369L27.0547 22.4535C26.2529 23.2631 26.2639 24.0428 26.2679 24.4185C26.2694 24.5335 26.2663 24.6217 26.2608 24.6807C26.2655 26.2543 26.4514 27.2435 26.8317 27.6161C27.2216 27.9949 28.1541 27.9712 29.4434 27.9389C29.8537 27.9287 30.2995 27.9177 30.7815 27.9177C32.029 27.9161 32.2322 27.5003 32.6732 26.5804C33.2844 25.3092 34.1271 23.5687 38.1414 23.5695C42.1596 23.5679 42.9999 25.3076 43.6119 26.578C44.0545 27.4963 44.2561 27.9153 45.5068 27.9153C45.9959 27.9145 46.4472 27.9263 46.8622 27.9366C48.1436 27.9689 49.069 27.9933 49.4565 27.6168L49.4628 27.6105C49.84 27.2333 50.0228 26.2441 50.0228 24.5854C50.0228 24.5902 50.022 24.5925 50.022 24.5925ZM25.889 21.2563C27.8517 19.2937 31.9731 18.2974 38.1414 18.2958C44.3341 18.2951 48.4657 19.2969 50.4206 21.2752C51.7129 22.5818 51.6972 23.9286 51.6909 24.4342C51.694 24.4641 51.6932 24.5547 51.6932 24.5862C51.694 26.8458 51.3892 28.0642 50.623 28.8133C49.7314 29.6811 48.4468 29.6488 46.8205 29.607C46.418 29.5968 45.9809 29.585 45.5076 29.5858C43.2079 29.5858 42.5975 28.3201 42.1076 27.3042C41.5729 26.196 41.1121 25.2391 38.1414 25.2391C35.1691 25.2407 34.7083 26.1976 34.1791 27.3049C33.6884 28.3217 33.082 29.5865 30.7807 29.5881C30.3144 29.5881 29.8828 29.5992 29.4843 29.6086C27.8501 29.6503 26.5593 29.6826 25.666 28.8117C24.9046 28.0689 24.5951 26.8458 24.5943 24.5894L25.4322 24.4287L24.5974 24.4382C24.5911 23.9325 24.5738 22.5858 25.867 21.2784L25.889 21.2563Z" fill="white"/>
</g>
<path d="M65.1665 20.3182V30.5H63.6254V21.8594H63.5657L61.1296 23.4503V21.9787L63.6701 20.3182H65.1665ZM67.9208 30.5V29.3864L71.3661 25.8168C71.734 25.429 72.0373 25.0893 72.2759 24.7976C72.5179 24.5026 72.6985 24.2225 72.8178 23.9574C72.9371 23.6922 72.9968 23.4105 72.9968 23.1122C72.9968 22.7741 72.9173 22.4825 72.7582 22.2372C72.5991 21.9886 72.382 21.7981 72.1069 21.6655C71.8318 21.5296 71.5219 21.4616 71.1772 21.4616C70.8126 21.4616 70.4944 21.5362 70.2227 21.6854C69.9509 21.8345 69.7421 22.045 69.5962 22.3168C69.4504 22.5885 69.3775 22.9067 69.3775 23.2713H67.9109C67.9109 22.6515 68.0534 22.1096 68.3384 21.6456C68.6235 21.1816 69.0146 20.822 69.5117 20.5668C70.0089 20.3082 70.574 20.179 71.207 20.179C71.8467 20.179 72.4102 20.3066 72.8974 20.5618C73.3879 20.8137 73.7707 21.1584 74.0458 21.5959C74.3209 22.0301 74.4585 22.5206 74.4585 23.0675C74.4585 23.4453 74.3872 23.8149 74.2447 24.1761C74.1055 24.5374 73.8619 24.9401 73.5138 25.3842C73.1658 25.825 72.6819 26.3603 72.0621 26.9901L70.0387 29.108V29.1825H74.6225V30.5H67.9208ZM77.506 29.2372C77.2343 29.2372 77.0006 29.1411 76.805 28.9489C76.6095 28.7533 76.5117 28.518 76.5117 28.2429C76.5117 27.9711 76.6095 27.7391 76.805 27.5469C77.0006 27.3513 77.2343 27.2536 77.506 27.2536C77.7778 27.2536 78.0115 27.3513 78.207 27.5469C78.4026 27.7391 78.5004 27.9711 78.5004 28.2429C78.5004 28.4252 78.454 28.5926 78.3612 28.745C78.2717 28.8942 78.1523 29.0135 78.0032 29.103C77.854 29.1925 77.6883 29.2372 77.506 29.2372ZM77.506 24.1364C77.2343 24.1364 77.0006 24.0402 76.805 23.848C76.6095 23.6525 76.5117 23.4171 76.5117 23.142C76.5117 22.8703 76.6095 22.6383 76.805 22.446C77.0006 22.2505 77.2343 22.1527 77.506 22.1527C77.7778 22.1527 78.0115 22.2505 78.207 22.446C78.4026 22.6383 78.5004 22.8703 78.5004 23.142C78.5004 23.3243 78.454 23.4917 78.3612 23.6442C78.2717 23.7933 78.1523 23.9126 78.0032 24.0021C77.854 24.0916 77.6883 24.1364 77.506 24.1364ZM84.0163 30.6392C83.3336 30.6392 82.7237 30.5215 82.1868 30.2862C81.6532 30.0509 81.2306 29.7244 80.919 29.3068C80.6108 28.8859 80.4451 28.3987 80.4219 27.8452H81.983C82.0028 28.1468 82.1039 28.4086 82.2862 28.6307C82.4718 28.8494 82.7138 29.0185 83.0121 29.1378C83.3104 29.2571 83.6418 29.3168 84.0064 29.3168C84.4074 29.3168 84.7621 29.2472 85.0703 29.108C85.3819 28.9687 85.6255 28.7749 85.8011 28.5263C85.9768 28.2744 86.0646 27.9844 86.0646 27.6562C86.0646 27.3149 85.9768 27.0149 85.8011 26.7564C85.6288 26.4946 85.3752 26.2891 85.0405 26.1399C84.709 25.9908 84.308 25.9162 83.8374 25.9162H82.9773V24.6634H83.8374C84.2152 24.6634 84.5466 24.5954 84.8317 24.4595C85.12 24.3236 85.3454 24.1347 85.5078 23.8928C85.6702 23.6475 85.7514 23.3608 85.7514 23.0327C85.7514 22.7178 85.6802 22.4444 85.5376 22.2124C85.3984 21.977 85.1996 21.7931 84.9411 21.6605C84.6858 21.5279 84.3842 21.4616 84.0362 21.4616C83.7048 21.4616 83.3949 21.523 83.1065 21.6456C82.8215 21.7649 82.5895 21.9373 82.4105 22.1626C82.2315 22.3847 82.1354 22.6515 82.1222 22.9631H80.6357C80.6522 22.4129 80.8146 21.929 81.1229 21.5114C81.4344 21.0937 81.8454 20.7673 82.3558 20.532C82.8662 20.2966 83.433 20.179 84.0561 20.179C84.709 20.179 85.2725 20.3066 85.7464 20.5618C86.2237 20.8137 86.5916 21.1501 86.8501 21.571C87.112 21.992 87.2412 22.4527 87.2379 22.9531C87.2412 23.5232 87.0821 24.0071 86.7607 24.4048C86.4425 24.8026 86.0182 25.0694 85.4879 25.2053V25.2848C86.1641 25.3875 86.6877 25.656 87.0589 26.0902C87.4335 26.5244 87.6191 27.063 87.6158 27.706C87.6191 28.2661 87.4633 28.7682 87.1484 29.2124C86.8369 29.6565 86.411 30.0062 85.8707 30.2614C85.3305 30.5133 84.7124 30.6392 84.0163 30.6392ZM89.2812 28.5114V27.2685L93.6811 20.3182H94.6605V22.1477H94.0391L90.892 27.1293V27.2088H96.9226V28.5114H89.2812ZM94.1087 30.5V28.1335L94.1186 27.5668V20.3182H95.5753V30.5H94.1087Z" fill="white"/>
<defs>
<clipPath id="clip0_2192_16600">
<rect width="28" height="28" fill="white" transform="translate(24 11)"/>
</clipPath>
</defs>
</svg>
