<svg width="24" height="24" viewBox="0 0 24 24" fill="none" xmlns="http://www.w3.org/2000/svg">
<path d="M16.792 3.90446C18.1065 3.97713 19.3389 4.56636 20.2208 5.54376C21.1027 6.52117 21.5625 7.8075 21.5 9.12246C21.5 12.1945 18.848 14.0815 16.303 16.3445C13.791 18.5875 12.438 19.8135 12 20.0965C11.523 19.7875 9.85704 18.2735 7.69704 16.3445C5.14104 14.0725 2.50004 12.1675 2.50004 9.12246C2.43761 7.8075 2.89743 6.52117 3.7793 5.54376C4.66117 4.56636 5.89361 3.97713 7.20804 3.90446C7.93619 3.88239 8.6576 4.04964 9.30176 4.38986C9.94591 4.73008 10.4908 5.23162 10.883 5.84546C11.723 7.02046 11.863 7.60846 12.003 7.60846C12.143 7.60846 12.281 7.02046 13.113 5.84246C13.5031 5.22578 14.0482 4.72225 14.6937 4.38217C15.3393 4.04209 16.0629 3.87737 16.792 3.90446ZM16.792 1.90446C15.884 1.87539 14.981 2.05154 14.1505 2.41981C13.3199 2.78808 12.5832 3.33897 11.995 4.03146C11.4074 3.34099 10.6722 2.79137 9.84359 2.42321C9.01502 2.05506 8.11433 1.87777 7.20804 1.90446C5.36291 1.97661 3.62142 2.77644 2.36438 4.12906C1.10734 5.48167 0.437038 7.277 0.500043 9.12246C0.500043 12.7325 3.05004 14.9495 5.51504 17.0925C5.79804 17.3385 6.08404 17.5865 6.36804 17.8395L7.39504 18.7575C8.51508 19.8232 9.68931 20.8306 10.913 21.7755C11.2368 21.9851 11.6143 22.0966 12 22.0966C12.3858 22.0966 12.7633 21.9851 13.087 21.7755C14.3497 20.8017 15.5601 19.7619 16.713 18.6605L17.635 17.8365C17.928 17.5765 18.225 17.3175 18.52 17.0625C20.854 15.0375 23.5 12.7425 23.5 9.12246C23.563 7.277 22.8927 5.48167 21.6357 4.12906C20.3787 2.77644 18.6372 1.97661 16.792 1.90446Z" fill="#262626"/>
</svg>
