<svg width="19" height="19" viewBox="0 0 19 19" fill="none" xmlns="http://www.w3.org/2000/svg">
<path d="M9.49999 11.3328C7.84699 11.3328 6.50195 9.98856 6.50195 8.33556C6.50195 6.68256 7.84779 5.33594 9.49999 5.33594C11.1522 5.33594 12.498 6.68177 12.498 8.33398C12.498 9.98619 11.1522 11.3304 9.49999 11.3304V11.3328ZM9.49999 6.52502C8.50249 6.52502 7.68945 7.33727 7.68945 8.33556C7.68945 9.33385 8.50249 10.1445 9.49999 10.1445C10.4975 10.1445 11.3105 9.33306 11.3105 8.33477C11.3105 7.33648 10.4975 6.52344 9.49999 6.52344V6.52502Z" fill="#5B7083"/>
<path d="M16.3815 8.46259C16.3815 4.67051 13.294 1.58301 9.50031 1.58301C5.70664 1.58301 2.61914 4.67051 2.61914 8.46259C2.61914 9.96834 3.09652 11.3981 3.99902 12.5975L4.00139 12.5959L4.00693 12.6078C5.29577 14.2465 8.97702 17.1654 9.13297 17.2881C9.24222 17.3752 9.37206 17.4171 9.5011 17.4171C9.63014 17.4171 9.75997 17.3752 9.86922 17.2889C10.0252 17.1662 13.7064 14.2489 14.9953 12.6086L15.0008 12.5975L15.0024 12.599C15.9049 11.3989 16.3815 9.97072 16.3815 8.46417V8.46259ZM9.50031 16.0626C8.53131 15.2788 5.92197 13.1215 4.94347 11.8786C4.19931 10.889 3.80664 9.70788 3.80664 8.46497C3.80664 5.32522 6.36135 2.77051 9.50031 2.77051C12.6393 2.77051 15.194 5.32442 15.194 8.46259C15.194 9.70551 14.8005 10.8867 14.0571 11.8771C13.0786 13.12 10.4693 15.2765 9.50031 16.061V16.0626Z" fill="#5B7083"/>
</svg>
