<svg width="57" height="72" viewBox="0 0 57 72" fill="none" xmlns="http://www.w3.org/2000/svg">
<rect x="3.5" width="50" height="50" rx="25" fill="#282F45"/>
<path fill-rule="evenodd" clip-rule="evenodd" d="M31.877 25.4457C31.877 24.8061 32.3954 24.2871 33.0355 24.2871C33.675 24.2871 34.1942 24.8054 34.1942 25.4457C34.1942 26.0861 33.675 26.6044 33.0355 26.6044C32.3954 26.6044 31.877 26.0854 31.877 25.4457Z" fill="white"/>
<path fill-rule="evenodd" clip-rule="evenodd" d="M27.3906 25.4457C27.3906 24.8061 27.909 24.2871 28.5492 24.2871C29.1887 24.2871 29.7079 24.8054 29.7079 25.4457C29.7079 26.0861 29.1887 26.6044 28.5492 26.6044C27.909 26.6044 27.3906 26.0854 27.3906 25.4457Z" fill="white"/>
<path fill-rule="evenodd" clip-rule="evenodd" d="M22.9043 25.4457C22.9043 24.8061 23.4227 24.2871 24.0628 24.2871C24.7023 24.2871 25.2216 24.8054 25.2216 25.4457C25.2216 26.0861 24.7023 26.6044 24.0628 26.6044C23.4227 26.6044 22.9043 26.0854 22.9043 25.4457Z" fill="white"/>
<path d="M28.5283 36.078C26.9547 36.0788 25.3997 35.7376 23.9711 35.0779C23.6243 34.9089 23.2532 34.7955 22.8712 34.7419C22.4668 34.7861 22.0706 34.8868 21.6941 35.0409C20.8373 35.3366 19.6635 35.7409 18.8168 34.8897C17.9701 34.0385 18.3554 32.9185 18.6634 32.0169C18.8187 31.6336 18.9183 31.23 18.9591 30.8185C18.9074 30.4296 18.794 30.0515 18.6231 29.6985C17.6966 27.6639 17.4112 25.3956 17.805 23.195C18.1987 20.9943 19.2528 18.9656 20.8272 17.3785C21.8401 16.3621 23.0436 15.5557 24.3688 15.0054C25.694 14.4551 27.1148 14.1719 28.5496 14.1719C29.9845 14.1719 31.4053 14.4551 32.7304 15.0054C34.0556 15.5557 35.2592 16.3621 36.272 17.3785C37.804 18.9099 38.8473 20.8613 39.27 22.9859C39.6926 25.1104 39.4756 27.3126 38.6464 29.3137C37.8171 31.3148 36.413 33.025 34.6115 34.2279C32.8101 35.4308 30.6923 36.0723 28.5261 36.0713L28.5283 36.078ZM22.8679 33.0652C23.4757 33.1054 24.0701 33.2625 24.6184 33.5278L24.6587 33.5446C25.9167 34.124 27.2886 34.4142 28.6735 34.3937C30.0582 34.3732 31.4209 34.0425 32.6612 33.4261C33.9015 32.8097 34.9878 31.9231 35.8403 30.8315C36.6929 29.74 37.2899 28.4712 37.5875 27.1185C37.8852 25.7659 37.8759 24.3637 37.5604 23.0151C37.2448 21.6666 36.6311 20.4058 35.7642 19.3257C34.8973 18.2455 33.7993 17.3734 32.551 16.7734C31.3027 16.1734 29.9357 15.8609 28.5507 15.8587C27.3366 15.8552 26.134 16.0932 25.0126 16.5587C23.8912 17.0242 22.8736 17.7079 22.0189 18.5702C20.683 19.9203 19.7902 21.6453 19.4592 23.5154C19.1283 25.3857 19.375 27.3124 20.1664 29.0388C20.4374 29.5972 20.5975 30.2026 20.6379 30.8219C20.6041 31.4183 20.474 32.0053 20.2527 32.5601C20.1407 32.8715 19.8987 33.6006 20.0063 33.7081C20.1138 33.8156 20.8351 33.5625 21.1453 33.4561C21.695 33.2359 22.2767 33.1058 22.8679 33.0708V33.0652Z" fill="white"/>
<path d="M1.3932 59.5455H3.12438L6.13432 66.8949H6.24512L9.25506 59.5455H10.9862V69H9.629V62.1584H9.54128L6.75293 68.9862H5.62651L2.83816 62.1538H2.75044V69H1.3932V59.5455ZM16.0055 69.1431C15.3069 69.1431 14.7052 68.9938 14.2005 68.6953C13.6988 68.3937 13.311 67.9705 13.0371 67.4258C12.7663 66.878 12.6309 66.2363 12.6309 65.5007C12.6309 64.7744 12.7663 64.1342 13.0371 63.5803C13.311 63.0263 13.6926 62.5939 14.182 62.283C14.6744 61.9722 15.2499 61.8168 15.9086 61.8168C16.3087 61.8168 16.6964 61.8829 17.0719 62.0153C17.4474 62.1476 17.7844 62.3554 18.0829 62.6385C18.3815 62.9216 18.6169 63.2894 18.7892 63.7418C18.9616 64.1912 19.0478 64.7375 19.0478 65.3807V65.87H13.411V64.8359H17.6951C17.6951 64.4728 17.6213 64.1512 17.4735 63.8711C17.3258 63.5879 17.1181 63.3648 16.8503 63.2017C16.5856 63.0386 16.2748 62.957 15.9178 62.957C15.53 62.957 15.1915 63.0524 14.9022 63.2433C14.6159 63.431 14.3944 63.6772 14.2374 63.9819C14.0835 64.2835 14.0066 64.6113 14.0066 64.9652V65.7731C14.0066 66.247 14.0897 66.6502 14.2559 66.9826C14.4251 67.315 14.6606 67.5689 14.9622 67.7443C15.2638 67.9167 15.6162 68.0028 16.0194 68.0028C16.281 68.0028 16.5195 67.9659 16.7349 67.892C16.9503 67.8151 17.1365 67.7012 17.2935 67.5504C17.4505 67.3996 17.5705 67.2134 17.6536 66.9918L18.96 67.2273C18.8554 67.612 18.6677 67.949 18.3968 68.2383C18.1291 68.5245 17.7921 68.7476 17.3858 68.9077C16.9827 69.0646 16.5225 69.1431 16.0055 69.1431ZM25.8928 63.6403L24.6418 63.8619C24.5895 63.7018 24.5064 63.5495 24.3925 63.4048C24.2817 63.2602 24.1309 63.1417 23.9401 63.0494C23.7493 62.957 23.5107 62.9109 23.2245 62.9109C22.8337 62.9109 22.5074 62.9986 22.2458 63.174C21.9842 63.3464 21.8534 63.5695 21.8534 63.8434C21.8534 64.0804 21.9411 64.2712 22.1166 64.4158C22.292 64.5605 22.5751 64.679 22.966 64.7713L24.0924 65.0298C24.7449 65.1806 25.2311 65.413 25.5512 65.7269C25.8713 66.0408 26.0313 66.4486 26.0313 66.9503C26.0313 67.375 25.9082 67.7536 25.662 68.0859C25.4189 68.4152 25.0788 68.6738 24.6418 68.8615C24.2078 69.0492 23.7046 69.1431 23.1322 69.1431C22.3382 69.1431 21.6903 68.9738 21.1887 68.6353C20.687 68.2937 20.3792 67.8089 20.2654 67.1811L21.5995 66.978C21.6826 67.3258 21.8534 67.5889 22.1119 67.7674C22.3705 67.9428 22.7075 68.0305 23.123 68.0305C23.5754 68.0305 23.937 67.9367 24.2078 67.7489C24.4787 67.5581 24.6141 67.3258 24.6141 67.0518C24.6141 66.8303 24.531 66.6441 24.3648 66.4933C24.2017 66.3424 23.9508 66.2286 23.6123 66.1516L22.412 65.8885C21.7503 65.7377 21.261 65.4976 20.944 65.1683C20.6301 64.839 20.4731 64.422 20.4731 63.9173C20.4731 63.4987 20.5901 63.1325 20.824 62.8185C21.0579 62.5046 21.381 62.2599 21.7934 62.0845C22.2058 61.906 22.6782 61.8168 23.2107 61.8168C23.977 61.8168 24.5802 61.983 25.0203 62.3153C25.4604 62.6446 25.7513 63.0863 25.8928 63.6403ZM32.8626 63.6403L31.6115 63.8619C31.5592 63.7018 31.4761 63.5495 31.3622 63.4048C31.2514 63.2602 31.1006 63.1417 30.9098 63.0494C30.719 62.957 30.4805 62.9109 30.1942 62.9109C29.8034 62.9109 29.4772 62.9986 29.2156 63.174C28.954 63.3464 28.8232 63.5695 28.8232 63.8434C28.8232 64.0804 28.9109 64.2712 29.0863 64.4158C29.2617 64.5605 29.5449 64.679 29.9357 64.7713L31.0621 65.0298C31.7146 65.1806 32.2009 65.413 32.521 65.7269C32.841 66.0408 33.0011 66.4486 33.0011 66.9503C33.0011 67.375 32.878 67.7536 32.6317 68.0859C32.3886 68.4152 32.0485 68.6738 31.6115 68.8615C31.1776 69.0492 30.6744 69.1431 30.1019 69.1431C29.3079 69.1431 28.66 68.9738 28.1584 68.6353C27.6567 68.2937 27.349 67.8089 27.2351 67.1811L28.5692 66.978C28.6523 67.3258 28.8232 67.5889 29.0817 67.7674C29.3402 67.9428 29.6772 68.0305 30.0927 68.0305C30.5451 68.0305 30.9067 67.9367 31.1776 67.7489C31.4484 67.5581 31.5838 67.3258 31.5838 67.0518C31.5838 66.8303 31.5007 66.6441 31.3345 66.4933C31.1714 66.3424 30.9206 66.2286 30.582 66.1516L29.3817 65.8885C28.7201 65.7377 28.2307 65.4976 27.9137 65.1683C27.5998 64.839 27.4428 64.422 27.4428 63.9173C27.4428 63.4987 27.5598 63.1325 27.7937 62.8185C28.0276 62.5046 28.3507 62.2599 28.7631 62.0845C29.1755 61.906 29.648 61.8168 30.1804 61.8168C30.9467 61.8168 31.55 61.983 31.9901 62.3153C32.4302 62.6446 32.721 63.0863 32.8626 63.6403ZM36.5823 69.157C36.133 69.157 35.7267 69.0739 35.3635 68.9077C35.0004 68.7384 34.7126 68.4937 34.5003 68.1737C34.291 67.8536 34.1863 67.4612 34.1863 66.9964C34.1863 66.5964 34.2633 66.267 34.4172 66.0085C34.5711 65.75 34.7788 65.5453 35.0404 65.3945C35.302 65.2437 35.5944 65.1299 35.9175 65.0529C36.2407 64.976 36.57 64.9175 36.9055 64.8775C37.3302 64.8282 37.6749 64.7882 37.9395 64.7575C38.2042 64.7236 38.3966 64.6697 38.5166 64.5959C38.6366 64.522 38.6966 64.402 38.6966 64.2358V64.2035C38.6966 63.8003 38.5828 63.4879 38.355 63.2663C38.1304 63.0447 37.7949 62.9339 37.3486 62.9339C36.8839 62.9339 36.5177 63.037 36.2499 63.2433C35.9852 63.4464 35.8021 63.6726 35.7006 63.9219L34.4033 63.6264C34.5572 63.1955 34.7819 62.8478 35.0773 62.5831C35.3759 62.3153 35.719 62.1214 36.1068 62.0014C36.4946 61.8783 36.9024 61.8168 37.3302 61.8168C37.6133 61.8168 37.9134 61.8506 38.2304 61.9183C38.5505 61.983 38.849 62.103 39.126 62.2784C39.406 62.4538 39.6353 62.7047 39.8138 63.0309C39.9923 63.354 40.0816 63.7741 40.0816 64.2912V69H38.7336V68.0305H38.6782C38.5889 68.209 38.455 68.3845 38.2765 68.5568C38.098 68.7292 37.8688 68.8723 37.5887 68.9862C37.3086 69.1 36.9732 69.157 36.5823 69.157ZM36.8824 68.049C37.264 68.049 37.5902 67.9736 37.8611 67.8228C38.135 67.672 38.3427 67.475 38.4843 67.2319C38.6289 66.9857 38.7013 66.7225 38.7013 66.4425V65.5284C38.652 65.5777 38.5566 65.6238 38.415 65.6669C38.2765 65.7069 38.118 65.7423 37.9395 65.7731C37.761 65.8008 37.5872 65.8269 37.4179 65.8516C37.2486 65.8731 37.107 65.8916 36.9932 65.907C36.7254 65.9408 36.4807 65.9978 36.2591 66.0778C36.0406 66.1578 35.8652 66.2732 35.7329 66.424C35.6036 66.5717 35.539 66.7687 35.539 67.0149C35.539 67.3565 35.6652 67.6151 35.9175 67.7905C36.1699 67.9628 36.4915 68.049 36.8824 68.049ZM44.8931 71.8068C44.3299 71.8068 43.8452 71.733 43.4389 71.5852C43.0357 71.4375 42.7064 71.2421 42.451 70.9989C42.1955 70.7558 42.0047 70.4896 41.8786 70.2003L43.065 69.7109C43.1481 69.8464 43.2589 69.9895 43.3974 70.1403C43.5389 70.2942 43.7298 70.425 43.9698 70.5327C44.2129 70.6404 44.5253 70.6942 44.907 70.6942C45.4302 70.6942 45.8626 70.5665 46.2042 70.3111C46.5458 70.0587 46.7166 69.6555 46.7166 69.1016V67.7074H46.6289C46.5458 67.8582 46.4258 68.0259 46.2688 68.2106C46.1149 68.3952 45.9026 68.5553 45.6317 68.6907C45.3609 68.8261 45.0085 68.8938 44.5746 68.8938C44.0144 68.8938 43.5097 68.763 43.0604 68.5014C42.6141 68.2367 42.2602 67.8474 41.9986 67.3335C41.7401 66.8164 41.6108 66.1809 41.6108 65.4268C41.6108 64.6728 41.7385 64.0265 41.994 63.4879C42.2525 62.9493 42.6064 62.5369 43.0558 62.2507C43.5051 61.9614 44.0144 61.8168 44.5838 61.8168C45.0239 61.8168 45.3794 61.8906 45.6502 62.0384C45.921 62.183 46.1319 62.3523 46.2827 62.5462C46.4366 62.7401 46.555 62.9109 46.6381 63.0586H46.7397V61.9091H48.0923V69.157C48.0923 69.7663 47.9508 70.2665 47.6676 70.6573C47.3845 71.0482 47.0013 71.3375 46.5181 71.5252C46.038 71.7129 45.4963 71.8068 44.8931 71.8068ZM44.8793 67.7489C45.2763 67.7489 45.6117 67.6566 45.8857 67.4719C46.1626 67.2842 46.3719 67.0165 46.5135 66.6687C46.6581 66.3178 46.7305 65.8977 46.7305 65.4084C46.7305 64.9313 46.6597 64.5112 46.5181 64.1481C46.3765 63.7849 46.1688 63.5018 45.8949 63.2987C45.621 63.0924 45.2824 62.9893 44.8793 62.9893C44.4638 62.9893 44.1175 63.0971 43.8406 63.3125C43.5636 63.5249 43.3543 63.8142 43.2127 64.1804C43.0742 64.5466 43.005 64.956 43.005 65.4084C43.005 65.8731 43.0758 66.2809 43.2173 66.6317C43.3589 66.9826 43.5682 67.2565 43.8452 67.4535C44.1252 67.6504 44.4699 67.7489 44.8793 67.7489ZM52.9996 69.1431C52.301 69.1431 51.6993 68.9938 51.1946 68.6953C50.6929 68.3937 50.3052 67.9705 50.0312 67.4258C49.7604 66.878 49.625 66.2363 49.625 65.5007C49.625 64.7744 49.7604 64.1342 50.0312 63.5803C50.3052 63.0263 50.6868 62.5939 51.1761 62.283C51.6686 61.9722 52.2441 61.8168 52.9027 61.8168C53.3028 61.8168 53.6906 61.8829 54.0661 62.0153C54.4415 62.1476 54.7785 62.3554 55.0771 62.6385C55.3756 62.9216 55.611 63.2894 55.7834 63.7418C55.9557 64.1912 56.0419 64.7375 56.0419 65.3807V65.87H50.4052V64.8359H54.6893C54.6893 64.4728 54.6154 64.1512 54.4677 63.8711C54.32 63.5879 54.1122 63.3648 53.8445 63.2017C53.5798 63.0386 53.2689 62.957 52.9119 62.957C52.5241 62.957 52.1856 63.0524 51.8963 63.2433C51.6101 63.431 51.3885 63.6772 51.2315 63.9819C51.0777 64.2835 51.0007 64.6113 51.0007 64.9652V65.7731C51.0007 66.247 51.0838 66.6502 51.25 66.9826C51.4193 67.315 51.6547 67.5689 51.9563 67.7443C52.2579 67.9167 52.6103 68.0028 53.0135 68.0028C53.2751 68.0028 53.5136 67.9659 53.729 67.892C53.9445 67.8151 54.1307 67.7012 54.2876 67.5504C54.4446 67.3996 54.5646 67.2134 54.6477 66.9918L55.9542 67.2273C55.8496 67.612 55.6618 67.949 55.391 68.2383C55.1232 68.5245 54.7862 68.7476 54.38 68.9077C53.9768 69.0646 53.5167 69.1431 52.9996 69.1431Z" fill="white"/>
</svg>
