<svg width="50" height="50" viewBox="0 0 50 50" fill="none" xmlns="http://www.w3.org/2000/svg">
<rect width="50" height="50" rx="25" fill="#282F45"/>
<path d="M24.7588 31.475C22.732 31.4674 20.7906 30.6576 19.3591 29.2228C17.9275 27.788 17.1222 25.8449 17.1191 23.818C17.1189 23.6262 17.1944 23.442 17.3292 23.3056C17.4641 23.1691 17.6473 23.0914 17.8391 23.0894C17.9332 23.0885 18.0265 23.1063 18.1137 23.1416C18.2009 23.1769 18.2803 23.2291 18.3472 23.2952C18.4141 23.3614 18.4673 23.4401 18.5037 23.5269C18.54 23.6135 18.5589 23.7067 18.5591 23.8007V23.818C18.5546 24.9897 18.8825 26.1385 19.5048 27.1313C20.1271 28.124 21.0182 28.9198 22.0747 29.4263C23.1311 29.9329 24.3097 30.1294 25.4733 29.9929C26.637 29.8564 27.7381 29.3926 28.6487 28.6555C28.7977 28.5406 28.9856 28.4885 29.1724 28.5105C29.3592 28.5324 29.53 28.6266 29.6483 28.7728C29.7665 28.9191 29.823 29.1058 29.8053 29.293C29.7877 29.4803 29.6975 29.6532 29.554 29.7748C28.1967 30.8725 26.5045 31.4725 24.7588 31.475Z" fill="white"/>
<path d="M28.2555 24.868C28.2366 24.869 28.2177 24.869 28.1989 24.868C28.0094 24.8535 27.8333 24.7646 27.7092 24.6207C27.5851 24.4767 27.523 24.2896 27.5365 24.1C27.5442 23.9963 27.5519 23.8936 27.5519 23.7842V19.7262C27.5519 19.1289 27.3603 18.5473 27.0053 18.0669C26.6503 17.5865 26.1506 17.2327 25.5796 17.0574C25.0086 16.882 24.3964 16.8944 23.833 17.0928C23.2696 17.2912 22.7846 17.6651 22.4494 18.1595C22.3978 18.2411 22.3302 18.3115 22.2508 18.3665C22.1714 18.4214 22.0817 18.4598 21.9871 18.4794C21.8925 18.499 21.795 18.4994 21.7002 18.4805C21.6055 18.4616 21.5156 18.4238 21.4358 18.3694C21.3559 18.3151 21.2878 18.2452 21.2356 18.164C21.1833 18.0827 21.1479 17.9918 21.1315 17.8966C21.1151 17.8014 21.1181 17.7039 21.1402 17.6099C21.1622 17.5159 21.203 17.4272 21.26 17.3493C21.7682 16.6001 22.5033 16.0338 23.3572 15.7334C24.2113 15.433 25.1391 15.4144 26.0043 15.6804C26.8696 15.9464 27.6267 16.483 28.1645 17.2112C28.7022 17.9394 28.9922 18.821 28.9919 19.7262V23.7842C28.9919 23.932 28.9823 24.0722 28.9727 24.2104C28.9568 24.3897 28.8745 24.5567 28.7417 24.6784C28.609 24.8001 28.4355 24.8677 28.2555 24.868Z" fill="white"/>
<path d="M24.759 28.023C23.6342 28.0192 22.5569 27.5693 21.7635 26.772C20.9702 25.9746 20.5256 24.8951 20.5273 23.7702V21.3606C20.5273 21.1697 20.6032 20.9866 20.7382 20.8515C20.8733 20.7165 21.0564 20.6406 21.2473 20.6406C21.4383 20.6406 21.6214 20.7165 21.7565 20.8515C21.8915 20.9866 21.9673 21.1697 21.9673 21.3606V23.7731C21.9646 24.1407 22.035 24.5051 22.1747 24.8452C22.3143 25.1852 22.5202 25.494 22.7805 25.7536C23.2261 26.2077 23.8149 26.4939 24.4472 26.5638C25.0796 26.6338 25.7167 26.4832 26.2509 26.1376C26.3307 26.0837 26.4207 26.0463 26.5153 26.0278C26.61 26.0092 26.7074 26.0098 26.8018 26.0297C26.8962 26.0495 26.9856 26.0881 27.0648 26.1431C27.144 26.1982 27.2113 26.2685 27.2627 26.3501C27.3142 26.4317 27.3487 26.5228 27.3644 26.6179C27.3799 26.713 27.3763 26.8104 27.3535 26.9042C27.3308 26.9979 27.2894 27.086 27.2319 27.1635C27.1744 27.2409 27.102 27.306 27.0189 27.3549C26.3442 27.7875 25.5604 28.0192 24.759 28.023Z" fill="white"/>
<path d="M31.6775 32.5113C31.5829 32.5115 31.4892 32.493 31.4018 32.4567C31.3146 32.4205 31.2353 32.3672 31.1687 32.3001L17.3293 18.4617C17.1981 18.3259 17.1254 18.1441 17.127 17.9553C17.1285 17.7665 17.2042 17.5859 17.3376 17.4524C17.471 17.3188 17.6516 17.243 17.8404 17.2412C18.0291 17.2395 18.211 17.312 18.3469 17.4431L32.1863 31.2825C32.2867 31.3833 32.355 31.5115 32.3827 31.6511C32.4103 31.7907 32.3961 31.9354 32.3417 32.0669C32.2872 32.1984 32.1952 32.3108 32.077 32.3901C31.9587 32.4693 31.8198 32.5108 31.6775 32.5113Z" fill="white"/>
<path d="M24.7571 34.2068C24.5662 34.2068 24.3831 34.1309 24.248 33.9959C24.113 33.8609 24.0371 33.6778 24.0371 33.4868V30.7508C24.0371 30.5598 24.113 30.3767 24.248 30.2417C24.3831 30.1067 24.5662 30.0308 24.7571 30.0308C24.9481 30.0308 25.1312 30.1067 25.2663 30.2417C25.4013 30.3767 25.4771 30.5598 25.4771 30.7508V33.4849C25.4774 33.5796 25.459 33.6735 25.4229 33.761C25.3869 33.8486 25.3339 33.9282 25.267 33.9953C25.2001 34.0623 25.1206 34.1155 25.0331 34.1519C24.9457 34.1881 24.8519 34.2068 24.7571 34.2068Z" fill="white"/>
<path d="M30.971 27.5824C30.8603 27.5826 30.7512 27.557 30.6523 27.5075C30.4811 27.4228 30.3507 27.2735 30.2897 27.0926C30.2287 26.9117 30.242 26.7139 30.3268 26.5427C30.7481 25.6908 30.965 24.7524 30.9604 23.802C30.9604 23.611 31.0363 23.4279 31.1712 23.2928C31.3063 23.1579 31.4895 23.082 31.6804 23.082C31.8714 23.082 32.0544 23.1579 32.1895 23.2928C32.3245 23.4279 32.4004 23.611 32.4004 23.802C32.4058 24.9743 32.1376 26.1317 31.6171 27.1821C31.5574 27.3026 31.4654 27.4039 31.3512 27.4746C31.237 27.5454 31.1053 27.5827 30.971 27.5824Z" fill="white"/>
</svg>
