<svg width="25" height="25" viewBox="0 0 25 25" fill="none" xmlns="http://www.w3.org/2000/svg">
<g clip-path="url(#clip0_116_6269)">
<path d="M18.727 23.4122C13.814 23.4122 9.441 19.7852 7.241 17.5842C4.986 15.3302 1.231 10.7912 1.421 5.7312C1.45356 4.93182 1.77638 4.17171 2.329 3.5932C2.90763 2.97797 3.531 2.40641 4.194 1.8832C4.63269 1.54793 5.17707 1.38111 5.72828 1.41304C6.27948 1.44497 6.80096 1.67353 7.198 2.0572C8.83698 3.50411 10.0935 5.33321 10.856 7.3822C11.0523 8.02883 10.9839 8.7269 10.666 9.3232L10.211 10.1762C10.1793 10.2351 10.1607 10.3003 10.1565 10.3671C10.1524 10.4339 10.1628 10.5008 10.187 10.5632C10.9554 12.406 12.4208 13.8707 14.264 14.6382C14.3262 14.6628 14.393 14.6734 14.4597 14.6693C14.5264 14.6651 14.5914 14.6463 14.65 14.6142L15.503 14.1592C16.0989 13.8412 16.7967 13.7729 17.443 13.9692C19.4925 14.7314 21.3219 15.9879 22.769 17.6272C23.152 18.0244 23.3802 18.5456 23.4121 19.0965C23.444 19.6474 23.2776 20.1914 22.943 20.6302C22.4193 21.2931 21.8478 21.9167 21.233 22.4962C20.6547 23.0495 19.8946 23.373 19.095 23.4062C18.9724 23.4104 18.8497 23.4124 18.727 23.4122ZM5.583 3.4122C5.52288 3.4111 5.4641 3.43011 5.416 3.4662C4.83452 3.92673 4.28771 4.42942 3.78 4.9702C3.56233 5.19582 3.43435 5.49303 3.42 5.8062C3.259 10.1072 6.63 14.1462 8.655 16.1702C10.68 18.1942 14.715 21.5732 19.021 21.4062C19.3339 21.3921 19.6309 21.264 19.856 21.0462C20.3966 20.5379 20.8993 19.9908 21.36 19.4092C21.401 19.3461 21.4188 19.2706 21.4102 19.1958C21.4016 19.1209 21.3673 19.0514 21.313 18.9992C20.0951 17.6215 18.5675 16.5526 16.856 15.8802C16.7185 15.8403 16.5709 15.8561 16.445 15.9242L15.591 16.3792C15.2753 16.5487 14.9262 16.6469 14.5684 16.667C14.2106 16.687 13.8527 16.6284 13.52 16.4952C12.3563 16.0143 11.299 15.3085 10.4086 14.4182C9.51816 13.528 8.81215 12.4708 8.331 11.3072C8.19801 10.9745 8.13939 10.6167 8.15925 10.259C8.17912 9.90122 8.27699 9.55214 8.446 9.2362L8.902 8.3812C8.96957 8.25547 8.98501 8.10822 8.945 7.9712C8.27276 6.25958 7.20419 4.73177 5.827 3.5132C5.76125 3.45021 5.67406 3.41447 5.583 3.4132V3.4122Z" fill="#262626"/>
</g>
<defs>
<clipPath id="clip0_116_6269">
<rect width="24" height="24" fill="white" transform="translate(0.5 0.5)"/>
</clipPath>
</defs>
</svg>
