<svg width="19" height="14" viewBox="0 0 19 14" fill="none" xmlns="http://www.w3.org/2000/svg">
<path d="M14.7502 8.75C14.7502 11.5114 12.5116 13.75 9.7502 13.75C6.98877 13.75 4.7502 11.5114 4.7502 8.75C4.7502 5.98858 6.98877 3.75 9.7502 3.75C9.7502 3.75 10.0414 6.31393 11.1138 7.38636C12.1863 8.4588 14.7502 8.75 14.7502 8.75Z" fill="white"/>
<path fill-rule="evenodd" clip-rule="evenodd" d="M9.45971 1.5C5.89512 1.5 2.80371 3.75903 1.4429 7.03752C1.2841 7.42009 0.845243 7.60149 0.462676 7.4427C0.0801085 7.28391 -0.101296 6.84505 0.057497 6.46248C1.6286 2.67735 5.23309 0 9.45971 0C13.6863 0 17.2908 2.67735 18.8619 6.46248C19.0207 6.84505 18.8393 7.28391 18.4568 7.4427C18.0742 7.60149 17.6353 7.42009 17.4765 7.03752C16.1157 3.75903 13.0243 1.5 9.45971 1.5Z" fill="white"/>
</svg>
