<svg width="80" height="80" viewBox="0 0 80 80" fill="none" xmlns="http://www.w3.org/2000/svg">
<rect width="80" height="80" rx="40" fill="#E6404F"/>
<g clip-path="url(#clip0_2192_15699)">
<path fill-rule="evenodd" clip-rule="evenodd" d="M52.022 39.5925C52.0204 39.5941 52.0188 39.5138 52.0196 39.4153C52.0251 39.0396 52.0346 38.2599 51.2329 37.4503C50.1121 36.317 47.2784 34.9655 40.1422 34.9663C33.0398 34.9679 30.2006 36.3075 29.0712 37.4369L29.0547 37.4535C28.2529 38.2631 28.2639 39.0428 28.2679 39.4185C28.2694 39.5335 28.2663 39.6217 28.2608 39.6807C28.2655 41.2543 28.4514 42.2435 28.8317 42.6161C29.2216 42.9949 30.1541 42.9712 31.4434 42.9389C31.8537 42.9287 32.2995 42.9177 32.7815 42.9177C34.029 42.9161 34.2322 42.5003 34.6732 41.5804C35.2844 40.3092 36.1271 38.5687 40.1414 38.5695C44.1596 38.5679 44.9999 40.3076 45.6119 41.578C46.0545 42.4963 46.2561 42.9153 47.5068 42.9153C47.9959 42.9145 48.4472 42.9263 48.8622 42.9366C50.1436 42.9689 51.069 42.9933 51.4565 42.6168L51.4628 42.6105C51.84 42.2333 52.0228 41.2441 52.0228 39.5854C52.0228 39.5902 52.022 39.5925 52.022 39.5925ZM27.889 36.2563C29.8517 34.2937 33.9731 33.2974 40.1414 33.2958C46.3341 33.2951 50.4657 34.2969 52.4206 36.2752C53.7129 37.5818 53.6972 38.9286 53.6909 39.4342C53.694 39.4641 53.6932 39.5547 53.6932 39.5862C53.694 41.8458 53.3892 43.0642 52.623 43.8133C51.7314 44.6811 50.4468 44.6488 48.8205 44.607C48.418 44.5968 47.9809 44.585 47.5076 44.5858C45.2079 44.5858 44.5975 43.3201 44.1076 42.3042C43.5729 41.196 43.1121 40.2391 40.1414 40.2391C37.1691 40.2407 36.7083 41.1976 36.1791 42.3049C35.6884 43.3217 35.082 44.5865 32.7807 44.5881C32.3144 44.5881 31.8828 44.5992 31.4843 44.6086C29.8501 44.6503 28.5593 44.6826 27.666 43.8117C26.9046 43.0689 26.5951 41.8458 26.5943 39.5894L27.4322 39.4287L26.5974 39.4382C26.5911 38.9325 26.5738 37.5858 27.867 36.2784L27.889 36.2563Z" fill="white"/>
</g>
<defs>
<clipPath id="clip0_2192_15699">
<rect width="28" height="28" fill="white" transform="translate(26 26)"/>
</clipPath>
</defs>
</svg>
