<svg width="83" height="32" viewBox="0 0 83 32" fill="none" xmlns="http://www.w3.org/2000/svg">
<rect y="0.5" width="83" height="31" rx="6" fill="black"/>
<path d="M31.7264 19.7534C31.7264 19.5337 31.6923 19.3384 31.6239 19.1675C31.5604 18.9966 31.4457 18.8403 31.2797 18.6987C31.1137 18.5571 30.8793 18.4204 30.5765 18.2886C30.2787 18.1519 29.8978 18.0127 29.434 17.8711C28.9262 17.7148 28.4574 17.5415 28.0277 17.3511C27.6029 17.1558 27.2318 16.9312 26.9144 16.6772C26.5971 16.4185 26.3505 16.123 26.1747 15.791C25.9989 15.4541 25.911 15.0659 25.911 14.6265C25.911 14.1919 26.0013 13.7964 26.182 13.4399C26.3676 13.0835 26.6288 12.7759 26.9657 12.5171C27.3075 12.2534 27.7103 12.0508 28.1742 11.9092C28.6381 11.7627 29.1508 11.6895 29.7123 11.6895C30.5033 11.6895 31.1845 11.8359 31.7557 12.1289C32.3319 12.4219 32.7738 12.8149 33.0814 13.3081C33.3939 13.8013 33.5502 14.3457 33.5502 14.9414H31.7264C31.7264 14.5898 31.6508 14.2798 31.4994 14.0112C31.3529 13.7378 31.1283 13.5229 30.8256 13.3667C30.5277 13.2104 30.1493 13.1323 29.6903 13.1323C29.2557 13.1323 28.8944 13.1982 28.6063 13.3301C28.3182 13.4619 28.1034 13.6401 27.9618 13.8647C27.8202 14.0894 27.7494 14.3433 27.7494 14.6265C27.7494 14.8267 27.7958 15.0098 27.8886 15.1758C27.9813 15.3369 28.1229 15.4883 28.3134 15.6299C28.5038 15.7666 28.743 15.896 29.0311 16.0181C29.3192 16.1401 29.6586 16.2573 30.0492 16.3696C30.64 16.5454 31.1552 16.7407 31.5946 16.9556C32.0341 17.1655 32.4003 17.4048 32.6932 17.6733C32.9862 17.9419 33.2059 18.2471 33.3524 18.5889C33.4989 18.9258 33.5721 19.3091 33.5721 19.7388C33.5721 20.188 33.4818 20.5933 33.3012 20.9546C33.1205 21.311 32.8617 21.6162 32.5248 21.8701C32.1928 22.1191 31.7924 22.312 31.3236 22.4487C30.8597 22.5806 30.3422 22.6465 29.7709 22.6465C29.2582 22.6465 28.7528 22.5781 28.2548 22.4414C27.7616 22.3047 27.3124 22.0972 26.9071 21.8188C26.5018 21.5356 26.1796 21.1841 25.9403 20.7642C25.7011 20.3394 25.5814 19.8438 25.5814 19.2773H27.4198C27.4198 19.624 27.4784 19.9194 27.5956 20.1636C27.7177 20.4077 27.8861 20.6079 28.101 20.7642C28.3158 20.9155 28.5648 21.0278 28.848 21.1011C29.1361 21.1743 29.4437 21.2109 29.7709 21.2109C30.2006 21.2109 30.5595 21.1499 30.8475 21.0278C31.1405 20.9058 31.3602 20.7349 31.5067 20.5151C31.6532 20.2954 31.7264 20.0415 31.7264 19.7534ZM38.186 22.6465C37.6001 22.6465 37.0703 22.5513 36.5966 22.3608C36.1279 22.1655 35.7275 21.8945 35.3955 21.5479C35.0683 21.2012 34.8169 20.7935 34.6411 20.3247C34.4653 19.856 34.3774 19.3506 34.3774 18.8086V18.5156C34.3774 17.8955 34.4677 17.334 34.6484 16.8311C34.8291 16.3281 35.0805 15.8984 35.4028 15.542C35.7251 15.1807 36.1059 14.9048 36.5454 14.7144C36.9848 14.5239 37.4609 14.4287 37.9736 14.4287C38.54 14.4287 39.0356 14.5239 39.4604 14.7144C39.8852 14.9048 40.2368 15.1733 40.5151 15.52C40.7983 15.8618 41.0083 16.2695 41.145 16.7432C41.2866 17.2168 41.3574 17.7393 41.3574 18.3105V19.0649H35.2343V17.7979H39.6142V17.6587C39.6045 17.3413 39.541 17.0435 39.4238 16.7651C39.3115 16.4868 39.1381 16.2622 38.9038 16.0913C38.6694 15.9204 38.3569 15.835 37.9663 15.835C37.6733 15.835 37.4121 15.8984 37.1826 16.0254C36.958 16.1475 36.77 16.3257 36.6186 16.5601C36.4672 16.7944 36.3501 17.0776 36.2671 17.4097C36.1889 17.7368 36.1499 18.1055 36.1499 18.5156V18.8086C36.1499 19.1553 36.1963 19.4775 36.289 19.7754C36.3867 20.0684 36.5283 20.3247 36.7138 20.5444C36.8994 20.7642 37.124 20.9375 37.3877 21.0645C37.6513 21.1865 37.9516 21.2476 38.2885 21.2476C38.7133 21.2476 39.0918 21.1621 39.4238 20.9912C39.7558 20.8203 40.0439 20.5786 40.288 20.2661L41.2182 21.167C41.0473 21.416 40.8252 21.6553 40.5517 21.8848C40.2783 22.1094 39.9438 22.2925 39.5483 22.4341C39.1577 22.5757 38.7036 22.6465 38.186 22.6465ZM44.1548 16.2671V22.5H42.3897V14.5752H44.0523L44.1548 16.2671ZM43.8399 18.2446L43.2686 18.2373C43.2735 17.6758 43.3516 17.1606 43.503 16.6919C43.6592 16.2231 43.8741 15.8203 44.1475 15.4834C44.4258 15.1465 44.7579 14.8877 45.1436 14.707C45.5293 14.5215 45.959 14.4287 46.4327 14.4287C46.8135 14.4287 47.1578 14.4824 47.4654 14.5898C47.7779 14.6924 48.044 14.8608 48.2637 15.0952C48.4883 15.3296 48.6592 15.6348 48.7764 16.0107C48.8936 16.3818 48.9522 16.8384 48.9522 17.3804V22.5H47.1797V17.373C47.1797 16.9922 47.1236 16.6919 47.0113 16.4722C46.9038 16.2476 46.7452 16.0889 46.5352 15.9961C46.3301 15.8984 46.0738 15.8496 45.7662 15.8496C45.4634 15.8496 45.1924 15.9131 44.9532 16.04C44.7139 16.167 44.5113 16.3403 44.3453 16.5601C44.1841 16.7798 44.0596 17.0337 43.9717 17.3218C43.8838 17.6099 43.8399 17.9175 43.8399 18.2446ZM55.2579 20.8594V11.25H57.0304V22.5H55.4264L55.2579 20.8594ZM50.1017 18.6255V18.4717C50.1017 17.8711 50.1725 17.3242 50.3141 16.8311C50.4557 16.333 50.6608 15.9058 50.9293 15.5493C51.1979 15.188 51.525 14.9121 51.9108 14.7217C52.2965 14.5264 52.7311 14.4287 53.2145 14.4287C53.693 14.4287 54.1129 14.5215 54.4742 14.707C54.8356 14.8926 55.1432 15.1587 55.3971 15.5054C55.651 15.8472 55.8536 16.2573 56.005 16.7358C56.1564 17.2095 56.2638 17.7368 56.3273 18.3179V18.8086C56.2638 19.375 56.1564 19.8926 56.005 20.3613C55.8536 20.8301 55.651 21.2354 55.3971 21.5771C55.1432 21.9189 54.8331 22.1826 54.4669 22.3682C54.1056 22.5537 53.6832 22.6465 53.1998 22.6465C52.7213 22.6465 52.2892 22.5464 51.9034 22.3462C51.5226 22.146 51.1979 21.8652 50.9293 21.5039C50.6608 21.1426 50.4557 20.7178 50.3141 20.2295C50.1725 19.7363 50.1017 19.2017 50.1017 18.6255ZM51.8668 18.4717V18.6255C51.8668 18.9868 51.8986 19.3237 51.962 19.6362C52.0304 19.9487 52.1354 20.2246 52.277 20.4639C52.4186 20.6982 52.6017 20.8838 52.8263 21.0205C53.0558 21.1523 53.3292 21.2183 53.6466 21.2183C54.047 21.2183 54.3766 21.1304 54.6354 20.9546C54.8942 20.7788 55.0968 20.542 55.2433 20.2441C55.3946 19.9414 55.4972 19.6045 55.5509 19.2334V17.9077C55.5216 17.6196 55.4606 17.3511 55.3678 17.1021C55.2799 16.853 55.1603 16.6357 55.0089 16.4502C54.8575 16.2598 54.6696 16.1133 54.4449 16.0107C54.2252 15.9033 53.964 15.8496 53.6613 15.8496C53.339 15.8496 53.0655 15.918 52.8409 16.0547C52.6163 16.1914 52.4308 16.3794 52.2843 16.6187C52.1427 16.8579 52.0377 17.1362 51.9694 17.4536C51.901 17.771 51.8668 18.1104 51.8668 18.4717Z" fill="white"/>
</svg>
