<svg width="17" height="14" viewBox="0 0 17 14" fill="none" xmlns="http://www.w3.org/2000/svg">
<path d="M16.0005 5.99988H3.41448L7.70748 1.70687C8.09748 1.31687 8.09748 0.683875 7.70748 0.292875C7.31748 -0.0981249 6.68448 -0.0971249 6.29348 0.292875L0.293477 6.29288C-0.0965234 6.68288 -0.0965234 7.31588 0.293477 7.70687L6.29348 13.7069C6.48848 13.9019 6.74348 13.9999 7.00048 13.9999C7.25748 13.9999 7.51248 13.9019 7.70748 13.7069C8.09748 13.3169 8.09748 12.6839 7.70748 12.2929L3.41448 7.99988H16.0005C16.5535 7.99988 17.0005 7.55288 17.0005 6.99988C17.0005 6.44688 16.5535 5.99988 16.0005 5.99988Z" fill="#1DA1F2"/>
</svg>
