<svg width="26" height="26" viewBox="0 0 26 26" fill="none" xmlns="http://www.w3.org/2000/svg">
<ellipse cx="12.9622" cy="13.1784" rx="12.3214" ry="12.3214" fill="black"/>
<path d="M13.0636 17.2619C12.5011 17.2619 11.9997 17.1653 11.5593 16.9721C11.1218 16.7789 10.7738 16.5105 10.5153 16.1667C10.2596 15.8201 10.1204 15.4181 10.0977 14.9608H11.1715C11.1943 15.242 11.2908 15.4849 11.4613 15.6895C11.6318 15.8912 11.8548 16.0474 12.1303 16.1582C12.4059 16.269 12.7113 16.3244 13.0465 16.3244C13.4215 16.3244 13.7539 16.2591 14.0437 16.1284C14.3335 15.9977 14.5607 15.8159 14.7255 15.5829C14.8903 15.35 14.9727 15.0801 14.9727 14.7733C14.9727 14.4522 14.8931 14.1696 14.734 13.9252C14.5749 13.6781 14.342 13.4849 14.0352 13.3457C13.7283 13.2065 13.3533 13.1369 12.9102 13.1369H12.2113V12.1994H12.9102C13.2568 12.1994 13.5607 12.1369 13.8221 12.0119C14.0863 11.8869 14.2923 11.7108 14.44 11.4835C14.5906 11.2562 14.6658 10.9892 14.6658 10.6824C14.6658 10.3869 14.6005 10.1298 14.4698 9.91104C14.3391 9.69229 14.1545 9.52184 13.9158 9.39968C13.6801 9.27752 13.4016 9.21644 13.0806 9.21644C12.7795 9.21644 12.4954 9.27184 12.2283 9.38263C11.9641 9.49059 11.7482 9.64826 11.5806 9.85565C11.413 10.0602 11.3221 10.3074 11.3079 10.5971H10.2852C10.3022 10.1397 10.44 9.73917 10.6985 9.39542C10.957 9.04883 11.2951 8.77894 11.7127 8.58576C12.1332 8.39258 12.5948 8.29599 13.0977 8.29599C13.6374 8.29599 14.1005 8.40536 14.4869 8.62411C14.8732 8.84002 15.1701 9.12553 15.3775 9.48065C15.5849 9.83576 15.6886 10.2193 15.6886 10.6312C15.6886 11.1227 15.5593 11.5417 15.3008 11.8883C15.0451 12.2349 14.6971 12.475 14.2568 12.6085V12.6767C14.8079 12.7676 15.2383 13.002 15.548 13.3798C15.8576 13.7548 16.0124 14.2193 16.0124 14.7733C16.0124 15.2477 15.8832 15.6738 15.6247 16.0517C15.369 16.4267 15.0195 16.7221 14.5764 16.938C14.1332 17.1539 13.6289 17.2619 13.0636 17.2619Z" fill="white"/>
</svg>
