<svg width="13" height="12" viewBox="0 0 13 12" fill="none" xmlns="http://www.w3.org/2000/svg">
<g clip-path="url(#clip0_3336_29730)">
<path d="M1.80566 3.50098H11.7562" stroke="black" stroke-linejoin="round"/>
<path d="M7.5332 1.00098L8.9622 3.50148" stroke="black" stroke-linecap="round" stroke-linejoin="round"/>
<path d="M4.38477 1.05469L5.78227 3.50069" stroke="black" stroke-linecap="round" stroke-linejoin="round"/>
<path d="M1.78125 6.0005V7.725C1.78125 9.1495 2.13025 9.728 2.58425 10.1975C3.05425 10.6515 3.63325 11.001 5.05725 11.001H8.50525C9.92925 11.001 10.5082 10.6515 10.9782 10.1975C11.4322 9.728 11.7812 9.1495 11.7812 7.725V4.276C11.7812 2.852 11.4322 2.273 10.9782 1.8035C10.5082 1.3495 9.92925 1 8.50525 1H5.05725C3.63325 1 3.05425 1.3495 2.58425 1.8035C2.13025 2.273 1.78125 2.852 1.78125 4.276V6.0005Z" stroke="black" stroke-linecap="round" stroke-linejoin="round"/>
<path fill-rule="evenodd" clip-rule="evenodd" d="M5.66255 8.83239C5.59348 8.79251 5.53614 8.73515 5.49629 8.66607C5.45644 8.59699 5.43549 8.51864 5.43555 8.43889V5.81539C5.43545 5.73554 5.4564 5.65707 5.49627 5.58789C5.53615 5.51871 5.59355 5.46125 5.66269 5.4213C5.73183 5.38136 5.81028 5.36034 5.89013 5.36035C5.96998 5.36037 6.04842 5.38142 6.11755 5.42139L8.39005 6.73339C8.45921 6.77326 8.51664 6.83064 8.55658 6.89977C8.59652 6.96889 8.61754 7.04731 8.61754 7.12714C8.61754 7.20697 8.59652 7.28539 8.55658 7.35451C8.51664 7.42363 8.45921 7.48102 8.39005 7.52089L6.11755 8.83289C6.04838 8.87282 5.96992 8.89385 5.89005 8.89385C5.81018 8.89385 5.73172 8.87282 5.66255 8.83289V8.83239Z" fill="black"/>
</g>
<defs>
<clipPath id="clip0_3336_29730">
<rect width="12" height="12" fill="white" transform="translate(0.78125)"/>
</clipPath>
</defs>
</svg>
