<svg width="13" height="12" viewBox="0 0 13 12" fill="none" xmlns="http://www.w3.org/2000/svg">
<g clip-path="url(#clip0_3336_29739)">
<path d="M5.61613 1.89805L6.51562 0.998047L7.41512 1.89805C7.56424 2.04697 7.76638 2.1306 7.97713 2.13055H10.6066C10.8477 2.13055 11.0789 2.22632 11.2494 2.39679C11.4199 2.56726 11.5156 2.79847 11.5156 3.03955V10.0915C11.5156 10.3326 11.4199 10.5638 11.2494 10.7343C11.0789 10.9048 10.8477 11.0005 10.6066 11.0005H2.42463C2.18354 11.0005 1.95234 10.9048 1.78186 10.7343C1.61139 10.5638 1.51562 10.3326 1.51562 10.0915V3.03955C1.51563 2.79847 1.61139 2.56726 1.78186 2.39679C1.95234 2.22632 2.18354 2.13055 2.42463 2.13055H5.05463C5.2652 2.13047 5.46714 2.04685 5.61613 1.89805Z" stroke="black" stroke-linecap="round" stroke-linejoin="round"/>
<path d="M9.81506 11.0011V10.7001C9.81506 10.1765 9.6071 9.67436 9.23692 9.30408C8.86674 8.9338 8.36465 8.72572 7.84106 8.72559H5.26356C4.73989 8.72559 4.23767 8.93361 3.86738 9.3039C3.49709 9.67419 3.28906 10.1764 3.28906 10.7001V11.0016" stroke="black" stroke-linecap="round" stroke-linejoin="round"/>
<path d="M6.55144 7.31577C7.5334 7.31577 8.32944 6.51973 8.32944 5.53777C8.32944 4.5558 7.5334 3.75977 6.55144 3.75977C5.56948 3.75977 4.77344 4.5558 4.77344 5.53777C4.77344 6.51973 5.56948 7.31577 6.55144 7.31577Z" stroke="black" stroke-linecap="round" stroke-linejoin="round"/>
</g>
<defs>
<clipPath id="clip0_3336_29739">
<rect width="12" height="12" fill="white" transform="translate(0.515625)"/>
</clipPath>
</defs>
</svg>
