<svg width="50" height="50" viewBox="0 0 50 50" fill="none" xmlns="http://www.w3.org/2000/svg">
<rect width="50" height="50" rx="25" fill="#282F45"/>
<path d="M33.0011 30.335C32.5619 30.3336 32.1366 30.1807 31.7973 29.902L29.2897 27.8467C29.0224 27.6284 28.8071 27.3534 28.6594 27.0416C28.5118 26.7297 28.4355 26.3888 28.4363 26.0438V23.2147C28.4267 23.1477 28.4267 23.0799 28.4363 23.013V22.0204C28.4355 21.2295 28.121 20.4713 27.5618 19.9121C27.0026 19.3529 26.2444 19.0384 25.4536 19.0377H21.388C21.197 19.0377 21.0139 18.9618 20.8789 18.8268C20.7438 18.6917 20.668 18.5086 20.668 18.3177C20.668 18.1267 20.7438 17.9436 20.8789 17.8085C21.0139 17.6735 21.197 17.5977 21.388 17.5977H25.4507C26.5505 17.599 27.6104 18.0095 28.4242 18.7493C29.238 19.4891 29.7474 20.5052 29.8533 21.5999L31.8088 19.9996C32.0876 19.7716 32.4254 19.6275 32.7829 19.584C33.1404 19.5405 33.503 19.5994 33.8283 19.7539C34.1537 19.9083 34.4284 20.152 34.6207 20.4566C34.813 20.7611 34.9148 21.114 34.9144 21.4741L34.9038 28.4323C34.9028 28.9362 34.7018 29.4191 34.3452 29.7752C33.9885 30.1312 33.505 30.3311 33.0011 30.3311V30.335ZM29.8734 23.4489V26.0409C29.8732 26.1728 29.9025 26.3031 29.959 26.4223C30.0154 26.5415 30.0977 26.6467 30.1998 26.7302L32.7093 28.7865C32.7903 28.8537 32.892 28.8909 32.9973 28.8921C33.1192 28.8913 33.236 28.8425 33.3222 28.7563C33.4085 28.67 33.4573 28.5532 33.4581 28.4313L33.4686 21.4722C33.4691 21.3655 33.4324 21.262 33.3649 21.1794C33.287 21.0849 33.1748 21.025 33.0528 21.0129C32.9308 21.0009 32.809 21.0376 32.7141 21.1151L29.8734 23.4489Z" fill="white"/>
<path d="M25.6314 32.3039H19.4096C18.8331 32.3183 18.26 32.2122 17.7267 31.9926C17.1935 31.773 16.7119 31.4447 16.3127 31.0285C15.9135 30.6124 15.6055 30.1175 15.4083 29.5756C15.2111 29.0336 15.129 28.4566 15.1674 27.8812V22.0184C15.1421 21.3786 15.2562 20.741 15.5019 20.1497C15.7476 19.5584 16.1189 19.0276 16.5901 18.5941C16.7347 18.4692 16.923 18.4069 17.1136 18.4209C17.3042 18.4348 17.4814 18.5239 17.6063 18.6685C17.7311 18.8131 17.7935 19.0014 17.7795 19.192C17.7656 19.3826 17.6765 19.5598 17.5319 19.6847C17.2185 19.9839 16.9737 20.3475 16.8141 20.7503C16.6545 21.1532 16.584 21.5858 16.6074 22.0184V27.8802C16.5643 28.267 16.6056 28.6585 16.7286 29.0277C16.8516 29.3969 17.0533 29.735 17.3198 30.0186C17.5862 30.3023 17.9111 30.5246 18.2719 30.6704C18.6328 30.8162 19.0209 30.8818 19.4096 30.8629H25.6314C26.3268 30.8875 27.0059 30.6497 27.5341 30.1967C27.6042 30.1332 27.6861 30.0842 27.7752 30.0524C27.8642 30.0205 27.9587 30.0065 28.0531 30.0112C28.1475 30.0159 28.2402 30.0391 28.3256 30.0796C28.4111 30.1201 28.4878 30.177 28.5512 30.2471C28.6147 30.3172 28.6637 30.399 28.6956 30.4881C28.7274 30.5772 28.7414 30.6716 28.7367 30.766C28.732 30.8605 28.7087 30.9532 28.6683 31.0386C28.6278 31.124 28.5709 31.2007 28.5008 31.2642C27.7093 31.9596 26.6847 32.3309 25.6314 32.3039Z" fill="white"/>
<path d="M30.1868 33.7498C30.0888 33.7502 29.9917 33.7304 29.9017 33.6916C29.8116 33.6528 29.7306 33.5958 29.6636 33.5242L14.4735 17.4548C14.347 17.3152 14.2803 17.1317 14.2877 16.9435C14.295 16.7553 14.3757 16.5775 14.5126 16.4481C14.6495 16.3188 14.8316 16.2482 15.0199 16.2516C15.2082 16.2549 15.3877 16.3319 15.5199 16.466L30.7081 32.5354C30.8046 32.6377 30.8691 32.766 30.8936 32.9045C30.9181 33.043 30.9015 33.1856 30.8459 33.3148C30.7902 33.4439 30.698 33.5539 30.5805 33.6313C30.4631 33.7086 30.3255 33.7498 30.1849 33.7498H30.1868Z" fill="white"/>
</svg>
