<svg width="50" height="50" viewBox="0 0 50 50" fill="none" xmlns="http://www.w3.org/2000/svg">
<rect width="50" height="50" rx="25" fill="#282F45"/>
<path fill-rule="evenodd" clip-rule="evenodd" d="M25.4739 17.3354C25.5049 17.3544 25.5359 17.3744 25.5639 17.3974C26.9156 18.4592 27.0149 20.4331 27.0197 24.375L27.0199 24.7504C27.0199 28.9444 26.9579 31.0094 25.5639 32.1054C25.5359 32.1274 25.5049 32.1484 25.4729 32.1664C25.0589 32.4024 24.6379 32.5024 24.2179 32.5024C22.8269 32.5024 21.4479 31.4074 20.3739 30.5554C19.8889 30.1704 19.1559 29.5884 18.9029 29.5624C18.6159 29.5404 18.3679 29.5314 18.1489 29.5254C17.3509 29.4964 16.7199 29.4754 15.9779 28.8634C15.0851 28.1281 15.0031 26.6711 15 25.3868L15.0009 24.9664L15.0019 24.7504L15.0009 24.5344L15 24.1139C15.0031 22.8299 15.0851 21.3737 15.9779 20.6384C16.7209 20.0264 17.3529 20.0044 18.1529 19.9774C18.3709 19.9694 18.6179 19.9614 18.9049 19.9404C19.1559 19.9134 19.8889 19.3314 20.3739 18.9464C21.7729 17.8354 23.6889 16.3184 25.4739 17.3354ZM33.4494 18.2272C36.1624 22.1312 36.1624 27.3742 33.4494 31.2752C33.3034 31.4842 33.0704 31.5962 32.8334 31.5962C32.6854 31.5962 32.5364 31.5522 32.4054 31.4612C32.0654 31.2252 31.9814 30.7582 32.2184 30.4172C34.6114 26.9772 34.6114 22.5282 32.2184 19.0822C31.9814 18.7422 32.0654 18.2752 32.4064 18.0382C32.7464 17.8012 33.2124 17.8862 33.4494 18.2272ZM24.2079 18.5064C23.3399 18.5064 22.2299 19.3874 21.3059 20.1214C20.4169 20.8264 19.7149 21.3844 19.0149 21.4364C18.7049 21.4584 18.4389 21.4684 18.2049 21.4764C17.4579 21.5014 17.2689 21.5184 16.9319 21.7964C16.5451 22.114 16.5022 23.2891 16.5001 24.1708L16.5009 24.5274L16.5019 24.7484V24.7524L16.5009 24.9734L16.5001 25.3303C16.5022 26.2126 16.5451 27.3877 16.9319 27.7054C17.2679 27.9834 17.4569 27.9994 18.2019 28.0264C18.4369 28.0334 18.7039 28.0434 19.0149 28.0664C19.7149 28.1174 20.4169 28.6754 21.3059 29.3804C22.4089 30.2554 23.7749 31.3404 24.6809 30.8894C25.4144 30.2536 25.514 28.6016 25.5196 25.1061L25.5199 24.7504C25.5199 21.0104 25.4389 19.2694 24.6809 18.6114C24.5339 18.5384 24.3749 18.5064 24.2079 18.5064ZM30.9814 20.6921C32.4164 23.2001 32.4164 26.3101 30.9814 28.8101C30.8424 29.0521 30.5904 29.1871 30.3304 29.1871C30.2034 29.1871 30.0754 29.1551 29.9574 29.0871C29.5984 28.8811 29.4744 28.4221 29.6804 28.0641C30.8514 26.0231 30.8514 23.4851 29.6804 21.4381C29.4744 21.0781 29.5994 20.6201 29.9584 20.4141C30.3184 20.2121 30.7754 20.3331 30.9814 20.6921Z" fill="white"/>
</svg>
