<svg width="46" height="46" viewBox="0 0 46 46" fill="none" xmlns="http://www.w3.org/2000/svg">
<rect width="46" height="46" rx="23" fill="#1A1B2F" fill-opacity="0.5"/>
<path fill-rule="evenodd" clip-rule="evenodd" d="M21 30.04C21 28.9355 21.8954 28.04 23 28.04C24.1046 28.04 25 28.9355 25 30.04C25 31.1446 24.1046 32.04 23 32.04C21.8954 32.04 21 31.1446 21 30.04ZM21 23.0001C21 21.8955 21.8954 21.0001 23 21.0001C24.1046 21.0001 25 21.8955 25 23.0001C25 24.1047 24.1046 25.0001 23 25.0001C21.8954 25.0001 21 24.1047 21 23.0001ZM21 15.9601C21 14.8555 21.8954 13.9601 23 13.9601C24.1046 13.9601 25 14.8555 25 15.9601C25 17.0646 24.1046 17.9601 23 17.9601C21.8954 17.9601 21 17.0646 21 15.9601Z" fill="white"/>
</svg>
