<svg width="19" height="19" viewBox="0 0 19 19" fill="none" xmlns="http://www.w3.org/2000/svg">
<path d="M15.6018 1.58301H3.39751C2.39684 1.58301 1.58301 2.39684 1.58301 3.39751V15.6018C1.58301 16.6025 2.39684 17.4163 3.39751 17.4163H15.6018C16.6025 17.4163 17.4163 16.6025 17.4163 15.6018V3.39751C17.4163 2.39684 16.6025 1.58301 15.6018 1.58301ZM16.2288 15.6018C16.2288 15.9478 15.9478 16.2288 15.6018 16.2288H3.39751C3.05155 16.2288 2.77051 15.9478 2.77051 15.6018V5.08059C2.77051 4.73463 3.05076 4.45517 3.39592 4.45359H15.6034C15.9486 4.45359 16.2288 4.73463 16.2288 5.07901V15.6034V15.6018Z" fill="#5B7083"/>
<path d="M5.5671 7.94376C6.12893 7.94376 6.58439 7.48831 6.58439 6.92647C6.58439 6.36464 6.12893 5.90918 5.5671 5.90918C5.00526 5.90918 4.5498 6.36464 4.5498 6.92647C4.5498 7.48831 5.00526 7.94376 5.5671 7.94376Z" fill="#5B7083"/>
<path d="M5.5671 11.432C6.12893 11.432 6.58439 10.9766 6.58439 10.4148C6.58439 9.85292 6.12893 9.39746 5.5671 9.39746C5.00526 9.39746 4.5498 9.85292 4.5498 10.4148C4.5498 10.9766 5.00526 11.432 5.5671 11.432Z" fill="#5B7083"/>
<path d="M13.4323 7.94376C13.9942 7.94376 14.4496 7.48831 14.4496 6.92647C14.4496 6.36464 13.9942 5.90918 13.4323 5.90918C12.8705 5.90918 12.415 6.36464 12.415 6.92647C12.415 7.48831 12.8705 7.94376 13.4323 7.94376Z" fill="#5B7083"/>
<path d="M13.4323 11.432C13.9942 11.432 14.4496 10.9766 14.4496 10.4148C14.4496 9.85292 13.9942 9.39746 13.4323 9.39746C12.8705 9.39746 12.415 9.85292 12.415 10.4148C12.415 10.9766 12.8705 11.432 13.4323 11.432Z" fill="#5B7083"/>
<path d="M9.49971 7.94376C10.0615 7.94376 10.517 7.48831 10.517 6.92647C10.517 6.36464 10.0615 5.90918 9.49971 5.90918C8.93788 5.90918 8.48242 6.36464 8.48242 6.92647C8.48242 7.48831 8.93788 7.94376 9.49971 7.94376Z" fill="#5B7083"/>
<path d="M9.49971 11.432C10.0615 11.432 10.517 10.9766 10.517 10.4148C10.517 9.85292 10.0615 9.39746 9.49971 9.39746C8.93788 9.39746 8.48242 9.85292 8.48242 10.4148C8.48242 10.9766 8.93788 11.432 9.49971 11.432Z" fill="#5B7083"/>
<path d="M5.5671 14.8598C6.12893 14.8598 6.58439 14.4043 6.58439 13.8425C6.58439 13.2807 6.12893 12.8252 5.5671 12.8252C5.00526 12.8252 4.5498 13.2807 4.5498 13.8425C4.5498 14.4043 5.00526 14.8598 5.5671 14.8598Z" fill="#5B7083"/>
<path d="M9.49971 14.8598C10.0615 14.8598 10.517 14.4043 10.517 13.8425C10.517 13.2807 10.0615 12.8252 9.49971 12.8252C8.93788 12.8252 8.48242 13.2807 8.48242 13.8425C8.48242 14.4043 8.93788 14.8598 9.49971 14.8598Z" fill="#5B7083"/>
</svg>
