<svg width="24" height="22" viewBox="0 0 24 22" fill="none" xmlns="http://www.w3.org/2000/svg">
<path fill-rule="evenodd" clip-rule="evenodd" d="M7.26761 5.5L7.86319 4.6281L9.31687 2.5L14.6899 2.5L16.1209 4.61919L16.7156 5.5H17.7784H20C21.1046 5.5 22 6.39543 22 7.5V17.5C22 18.6046 21.1046 19.5 20 19.5H4C2.89543 19.5 2 18.6046 2 17.5V7.5C2 6.39543 2.89543 5.5 4 5.5H6.21171H7.26761ZM6.21171 3.5L7.66539 1.3719C8.03807 0.826316 8.65615 0.5 9.31687 0.5H14.6899C15.3545 0.5 15.9756 0.830069 16.3475 1.38081L17.7784 3.5H20C22.2091 3.5 24 5.29086 24 7.5V17.5C24 19.7091 22.2091 21.5 20 21.5H4C1.79086 21.5 0 19.7091 0 17.5V7.5C0 5.29086 1.79086 3.5 4 3.5H6.21171ZM14.5 12C14.5 13.3807 13.3807 14.5 12 14.5C10.6193 14.5 9.5 13.3807 9.5 12C9.5 10.6193 10.6193 9.5 12 9.5C13.3807 9.5 14.5 10.6193 14.5 12ZM12 16.5C14.4853 16.5 16.5 14.4853 16.5 12C16.5 9.51472 14.4853 7.5 12 7.5C9.51472 7.5 7.5 9.51472 7.5 12C7.5 14.4853 9.51472 16.5 12 16.5Z" fill="black"/>
</svg>
