<svg width="16" height="19" viewBox="0 0 16 19" fill="none" xmlns="http://www.w3.org/2000/svg">
<path d="M15.0498 3.75001L11.6123 0.462512C11.4695 0.315435 11.2984 0.198672 11.1094 0.119206C10.9204 0.0397388 10.7173 -0.000800342 10.5123 1.19702e-05L4.65 1.19702e-05C4.24213 0.00980358 3.85427 0.178736 3.56931 0.470707C3.28435 0.762678 3.12488 1.15453 3.125 1.56251V14C3.125 14.4144 3.28962 14.8118 3.58265 15.1049C3.87567 15.3979 4.2731 15.5625 4.6875 15.5625L13.9498 15.5625C14.3642 15.5625 14.7616 15.3979 15.0547 15.1049C15.3477 14.8118 15.5123 14.4144 15.5123 14V4.85001C15.5131 4.64499 15.4726 4.4419 15.3931 4.2529C15.3136 4.0639 15.1969 3.89286 15.0498 3.75001ZM13.9498 14L4.6875 14V1.56251L8.9498 1.56251V4.85001C8.9498 5.26441 9.11442 5.66184 9.40745 5.95487C9.70048 6.24789 10.0979 6.41251 10.5123 6.41251H13.9498V14ZM13.9498 4.85001H10.5123V1.56251L13.9498 4.85001Z" fill="black"/>
<path d="M10.8248 17.125L1.5625 17.125V4.68751H3.125V3.12501H1.5625C1.1481 3.12501 0.750671 3.28963 0.457646 3.58266C0.16462 3.87568 0 4.27311 0 4.68751V17.125C0 17.5394 0.16462 17.9368 0.457646 18.2299C0.750671 18.5229 1.1481 18.6875 1.5625 18.6875L10.8248 18.6875C11.2392 18.6875 11.6366 18.5229 11.9297 18.2299C12.2227 17.9368 12.3873 17.5394 12.3873 17.125V15.5625H10.8248V17.125Z" fill="black"/>
</svg>
