<svg width="18" height="18" viewBox="0 0 18 18" fill="none" xmlns="http://www.w3.org/2000/svg">
<path fill-rule="evenodd" clip-rule="evenodd" d="M15.0231 7.51157C15.0231 3.36304 11.6601 0 7.51157 0C3.36304 0 0 3.36304 0 7.51157C0 11.6601 3.36304 15.0231 7.51157 15.0231C9.37799 15.0231 11.0854 14.3424 12.3991 13.2157L17.0136 17.8308L17.0784 17.8867C17.3046 18.0545 17.6256 18.0359 17.8308 17.8308C18.0564 17.6051 18.0564 17.2393 17.8308 17.0136L13.2157 12.3991C14.3424 11.0854 15.0231 9.37799 15.0231 7.51157ZM1.15563 7.51157C1.15563 4.00128 4.00128 1.15563 7.51157 1.15563C11.0219 1.15563 13.8675 4.00128 13.8675 7.51157C13.8675 11.0219 11.0219 13.8675 7.51157 13.8675C4.00128 13.8675 1.15563 11.0219 1.15563 7.51157Z" fill="#262626"/>
</svg>
