<svg width="24" height="24" viewBox="0 0 24 24" fill="none" xmlns="http://www.w3.org/2000/svg">
<path fill-rule="evenodd" clip-rule="evenodd" d="M6.54894 5.0127C6.241 5.0127 5.93997 5.10401 5.68392 5.2751C5.42787 5.44618 5.22831 5.68935 5.11046 5.97386C4.99262 6.25836 4.96178 6.57142 5.02186 6.87345C5.08194 7.17548 5.23023 7.45291 5.44798 7.67066C5.66573 7.88841 5.94316 8.0367 6.24519 8.09678C6.54722 8.15686 6.86028 8.12602 7.14478 8.00818C7.42929 7.89033 7.67246 7.69077 7.84354 7.43472C8.01463 7.17867 8.10594 6.87764 8.10594 6.5697C8.10594 6.15675 7.9419 5.76072 7.64991 5.46873C7.35792 5.17674 6.96189 5.0127 6.54894 5.0127Z" fill="#262626"/>
<path d="M2 18.6053L5.901 14.7053C6.07128 14.5351 6.30221 14.4394 6.543 14.4394C6.78379 14.4394 7.01472 14.5351 7.185 14.7053L9.992 17.5113C10.1622 17.6813 10.393 17.7767 10.6335 17.7767C10.874 17.7767 11.1048 17.6813 11.275 17.5113L16.809 11.9773C16.9792 11.8074 17.21 11.7119 17.4505 11.7119C17.691 11.7119 17.9218 11.8074 18.092 11.9773L21.997 15.8823" stroke="#262626" stroke-width="2" stroke-linejoin="round"/>
<path d="M18.4401 2.00393C19.3842 2.00393 20.2897 2.379 20.9574 3.04663C21.625 3.71426 22.0001 4.61976 22.0001 5.56393V18.4369C22.0001 19.3811 21.625 20.2866 20.9574 20.9542C20.2897 21.6219 19.3842 21.9969 18.4401 21.9969H5.56806C4.62389 21.9969 3.71839 21.6219 3.05076 20.9542C2.38313 20.2866 2.00806 19.3811 2.00806 18.4369V5.56293C2.00806 4.61876 2.38313 3.71326 3.05076 3.04563C3.71839 2.378 4.62389 2.00293 5.56806 2.00293L18.4401 2.00393Z" stroke="#262626" stroke-width="2" stroke-linecap="round" stroke-linejoin="round"/>
</svg>
