<svg width="25" height="25" viewBox="0 0 25 25" fill="none" xmlns="http://www.w3.org/2000/svg">
<path d="M12.501 23.0049C18.3 23.0049 23.001 18.3039 23.001 12.5049C23.001 6.70589 18.3 2.00488 12.501 2.00488C6.70199 2.00488 2.00098 6.70589 2.00098 12.5049C2.00098 18.3039 6.70199 23.0049 12.501 23.0049Z" stroke="#262626" stroke-width="2" stroke-linecap="round" stroke-linejoin="round"/>
<path d="M12.319 9.45898C13.0093 9.45898 13.569 8.89934 13.569 8.20898C13.569 7.51863 13.0093 6.95898 12.319 6.95898C11.6286 6.95898 11.069 7.51863 11.069 8.20898C11.069 8.89934 11.6286 9.45898 12.319 9.45898Z" fill="#262626"/>
<path d="M11.069 17.2769H13.932" stroke="#262626" stroke-width="2" stroke-linecap="round" stroke-linejoin="round"/>
<path d="M11.069 11.5498H12.5V17.2768" stroke="#262626" stroke-width="2" stroke-linecap="round" stroke-linejoin="round"/>
</svg>
