<svg width="118" height="118" viewBox="0 0 118 118" fill="none" xmlns="http://www.w3.org/2000/svg">
<path d="M81.6274 36C94.1242 48.4968 94.1242 68.7581 81.6274 81.2548M36.3726 81.2548C23.8758 68.7581 23.8758 48.4968 36.3726 36M74.5564 43.0711C83.1479 51.6626 83.1479 65.5922 74.5564 74.1838M43.4437 74.1838C34.8521 65.5922 34.8521 51.6626 43.4437 43.0711M116 59C116 90.4802 90.4802 116 59 116C27.5198 116 2 90.4802 2 59C2 27.5198 27.5198 2 59 2C90.4802 2 116 27.5198 116 59ZM69 59C69 64.5228 64.5228 69 59 69C53.4772 69 49 64.5228 49 59C49 53.4772 53.4772 49 59 49C64.5228 49 69 53.4772 69 59Z" stroke="black" stroke-width="3" stroke-linecap="round" stroke-linejoin="round"/>
</svg>
