<svg width="24" height="25" viewBox="0 0 24 25" fill="none" xmlns="http://www.w3.org/2000/svg">
<path d="M15.83 11.4344C15.5992 11.4344 15.3736 11.5029 15.1817 11.6311C14.9897 11.7593 14.8402 11.9416 14.7518 12.1548C14.6635 12.3681 14.6404 12.6027 14.6854 12.8291C14.7305 13.0555 14.8416 13.2634 15.0048 13.4266C15.168 13.5898 15.376 13.701 15.6023 13.746C15.8287 13.791 16.0634 13.7679 16.2766 13.6796C16.4898 13.5913 16.6721 13.4417 16.8003 13.2498C16.9286 13.0579 16.997 12.8322 16.997 12.6014C16.997 12.2919 16.8741 11.9951 16.6552 11.7762C16.4363 11.5574 16.1395 11.4344 15.83 11.4344ZM9.33 12.6014C9.33 12.3706 9.26154 12.1449 9.13326 11.953C9.00498 11.761 8.82267 11.6115 8.60937 11.5232C8.39607 11.4349 8.16137 11.4118 7.93497 11.4569C7.70856 11.502 7.50063 11.6133 7.33746 11.7766C7.17429 11.9399 7.06322 12.1479 7.01831 12.3744C6.97339 12.6008 6.99664 12.8355 7.08512 13.0487C7.17361 13.2619 7.32334 13.4441 7.51538 13.5722C7.70743 13.7004 7.93315 13.7686 8.164 13.7684C8.47334 13.7682 8.76991 13.6451 8.98855 13.4263C9.20719 13.2074 9.33 12.9108 9.33 12.6014ZM14.493 15.8414C14.1748 16.1836 13.7896 16.4567 13.3613 16.6437C12.933 16.8306 12.4708 16.9274 12.0035 16.9281C11.5362 16.9287 11.0738 16.8332 10.645 16.6475C10.2162 16.4617 9.83018 16.1897 9.511 15.8484C9.34445 15.642 9.10269 15.5101 8.83892 15.4819C8.57515 15.4537 8.31098 15.5314 8.10451 15.6979C7.89803 15.8645 7.76618 16.1062 7.73796 16.37C7.70974 16.6338 7.78745 16.898 7.95401 17.1044C8.46045 17.6778 9.083 18.1369 9.78037 18.4514C10.4777 18.7659 11.234 18.9285 11.999 18.9285C12.764 18.9285 13.5203 18.7659 14.2176 18.4514C14.915 18.1369 15.5376 17.6778 16.044 17.1044C16.204 16.8981 16.2769 16.6375 16.2473 16.3781C16.2177 16.1188 16.0878 15.8813 15.8854 15.7164C15.6831 15.5515 15.4243 15.4723 15.1643 15.4957C14.9043 15.519 14.6637 15.6431 14.494 15.8414H14.493ZM12 0.94043C9.72552 0.94043 7.50211 1.61489 5.61095 2.87853C3.71978 4.14217 2.2458 5.93822 1.37539 8.03957C0.504983 10.1409 0.277244 12.4532 0.720974 14.684C1.1647 16.9148 2.25997 18.9639 3.86828 20.5722C5.47658 22.1805 7.52568 23.2757 9.75647 23.7195C11.9872 24.1632 14.2995 23.9355 16.4009 23.065C18.5022 22.1946 20.2983 20.7207 21.5619 18.8295C22.8255 16.9383 23.5 14.7149 23.5 12.4404C23.4966 9.3915 22.2839 6.46842 20.1279 4.3125C17.972 2.15658 15.0489 0.94387 12 0.94043ZM12 21.9404C10.1211 21.9404 8.28435 21.3833 6.72209 20.3394C5.15982 19.2955 3.94218 17.8118 3.22315 16.0759C2.50412 14.34 2.31599 12.4299 2.68255 10.5871C3.0491 8.74425 3.95389 7.05151 5.28249 5.72292C6.61109 4.39432 8.30383 3.48953 10.1466 3.12297C11.9895 2.75641 13.8996 2.94454 15.6355 3.66357C17.3714 4.38261 18.8551 5.60025 19.899 7.16251C20.9428 8.72478 21.5 10.5615 21.5 12.4404C21.4974 14.9592 20.4956 17.374 18.7146 19.155C16.9336 20.936 14.5187 21.9378 12 21.9404Z" fill="#262626"/>
</svg>
