<svg width="16" height="17" viewBox="0 0 16 17" fill="none" xmlns="http://www.w3.org/2000/svg">
<path d="M9.33371 6.43689H2.94237L6.47171 2.90889C6.53538 2.84739 6.58617 2.77383 6.62111 2.69249C6.65605 2.61115 6.67444 2.52367 6.67521 2.43516C6.67598 2.34664 6.65911 2.25885 6.62559 2.17692C6.59207 2.09499 6.54257 2.02055 6.47997 1.95796C6.41738 1.89536 6.34294 1.84586 6.26101 1.81234C6.17908 1.77882 6.09129 1.76195 6.00277 1.76272C5.91425 1.76349 5.82677 1.78188 5.74544 1.81682C5.6641 1.85176 5.59054 1.90255 5.52904 1.96622L0.862374 6.63155C0.853041 6.64089 0.849708 6.65355 0.841041 6.66355C0.727506 6.78141 0.66499 6.93926 0.667041 7.10289V7.10422C0.667041 7.12222 0.675708 7.13755 0.677041 7.15489C0.681208 7.31513 0.748829 7.46715 0.865041 7.57755L5.52904 12.2429C5.65478 12.3643 5.82318 12.4315 5.99798 12.43C6.17277 12.4285 6.33998 12.3584 6.46359 12.2348C6.58719 12.1112 6.6573 11.944 6.65882 11.7692C6.66034 11.5944 6.59315 11.426 6.47171 11.3002L2.94371 7.77089H9.33371C10.571 7.7723 11.7571 8.26442 12.632 9.13928C13.5068 10.0141 13.999 11.2003 14.0004 12.4376V14.4416C14.0004 14.6184 14.0706 14.7879 14.1956 14.913C14.3207 15.038 14.4902 15.1082 14.667 15.1082C14.8439 15.1082 15.0134 15.038 15.1384 14.913C15.2635 14.7879 15.3337 14.6184 15.3337 14.4416V12.4376C15.3319 10.8468 14.6992 9.3217 13.5744 8.19686C12.4496 7.07203 10.9245 6.43932 9.33371 6.43755V6.43689Z" fill="#8E8E8E"/>
</svg>
