<svg width="50" height="72" viewBox="0 0 50 72" fill="none" xmlns="http://www.w3.org/2000/svg">
<rect width="50" height="50" rx="25" fill="#282F45"/>
<path fill-rule="evenodd" clip-rule="evenodd" d="M24.8306 17.2957C20.5509 17.2957 17.0804 20.7653 17.0804 25.0459C17.0804 29.3265 20.5509 32.7961 24.8306 32.7961C29.1112 32.7961 32.5808 29.3265 32.5808 25.0459C32.5808 20.7652 29.1112 17.2957 24.8306 17.2957ZM15.4004 25.0459C15.4004 19.8373 19.6232 15.6157 24.8306 15.6157C30.0391 15.6157 34.2608 19.8374 34.2608 25.0459C34.2608 30.2545 30.0391 34.4761 24.8306 34.4761C19.6232 34.4761 15.4004 30.2545 15.4004 25.0459Z" fill="white"/>
<path fill-rule="evenodd" clip-rule="evenodd" d="M20.6279 31.5691C21.0289 31.8023 21.1649 32.3165 20.9317 32.7176L19.3123 35.5018C19.0791 35.9027 18.5649 36.0388 18.1639 35.8055C17.7629 35.5723 17.6269 35.0581 17.8601 34.6571L19.4794 31.8729C19.7127 31.4719 20.2268 31.3358 20.6279 31.5691Z" fill="white"/>
<path fill-rule="evenodd" clip-rule="evenodd" d="M29.035 31.5691C29.436 31.3358 29.9502 31.4719 30.1834 31.8729L31.8027 34.6571C32.036 35.0581 31.8999 35.5723 31.499 35.8055C31.0979 36.0388 30.5837 35.9027 30.3505 35.5018L28.7312 32.7176C28.4979 32.3165 28.634 31.8023 29.035 31.5691Z" fill="white"/>
<path fill-rule="evenodd" clip-rule="evenodd" d="M19.1722 14.4887C19.4153 14.8837 19.2922 15.4011 18.8971 15.6443C17.893 16.2624 16.9945 17.0356 16.229 17.9262C15.9266 18.278 15.3962 18.3181 15.0444 18.0157C14.6926 17.7133 14.6526 17.1829 14.955 16.8311C15.8305 15.8125 16.8608 14.925 18.0165 14.2136C18.4116 13.9705 18.929 14.0936 19.1722 14.4887Z" fill="white"/>
<path fill-rule="evenodd" clip-rule="evenodd" d="M30.6196 14.4851C30.8599 14.0883 31.3764 13.9614 31.7733 14.2016C32.9363 14.9058 33.9685 15.8078 34.8428 16.8353C35.1435 17.1887 35.1007 17.7188 34.7474 18.0194C34.3941 18.3201 33.8639 18.2773 33.5633 17.924C32.7964 17.0228 31.8999 16.2422 30.9032 15.6388C30.5062 15.3985 30.3794 14.882 30.6196 14.4851Z" fill="white"/>
<path fill-rule="evenodd" clip-rule="evenodd" d="M24.5158 20.9399C24.9797 20.9399 25.3558 21.316 25.3558 21.7799V24.8379H28.3962C28.8601 24.8379 29.2362 25.214 29.2362 25.6779C29.2362 26.1418 28.8601 26.5179 28.3962 26.5179H24.5158C24.0518 26.5179 23.6758 26.1418 23.6758 25.6779V21.7799C23.6758 21.316 24.0518 20.9399 24.5158 20.9399Z" fill="white"/>
<path d="M2.76185 69V59.5455H6.13188C6.86436 59.5455 7.4722 59.6716 7.95539 59.924C8.44166 60.1764 8.80482 60.5257 9.04488 60.9719C9.28493 61.4151 9.40496 61.9276 9.40496 62.5092C9.40496 63.0878 9.2834 63.5972 9.04026 64.0373C8.8002 64.4743 8.43704 64.8144 7.95077 65.0575C7.46758 65.3007 6.85975 65.4222 6.12726 65.4222H3.57435V64.1942H5.998C6.45965 64.1942 6.83512 64.1281 7.12442 63.9957C7.4168 63.8634 7.6307 63.671 7.76611 63.4187C7.90153 63.1663 7.96924 62.8632 7.96924 62.5092C7.96924 62.1522 7.89999 61.8429 7.7615 61.5813C7.62608 61.3197 7.41218 61.1197 7.11981 60.9812C6.83051 60.8396 6.45042 60.7688 5.97954 60.7688H4.18834V69H2.76185ZM7.42911 64.7344L9.76505 69H8.14005L5.85028 64.7344H7.42911ZM13.9972 69.1431C13.2986 69.1431 12.6969 68.9938 12.1922 68.6953C11.6905 68.3937 11.3027 67.9705 11.0288 67.4258C10.758 66.878 10.6226 66.2363 10.6226 65.5007C10.6226 64.7744 10.758 64.1342 11.0288 63.5803C11.3027 63.0263 11.6843 62.5939 12.1737 62.283C12.6661 61.9722 13.2416 61.8168 13.9003 61.8168C14.3004 61.8168 14.6881 61.8829 15.0636 62.0153C15.4391 62.1476 15.7761 62.3554 16.0746 62.6385C16.3732 62.9216 16.6086 63.2894 16.7809 63.7418C16.9533 64.1912 17.0395 64.7375 17.0395 65.3807V65.87H11.4027V64.8359H15.6868C15.6868 64.4728 15.613 64.1512 15.4652 63.8711C15.3175 63.5879 15.1098 63.3648 14.842 63.2017C14.5773 63.0386 14.2665 62.957 13.9095 62.957C13.5217 62.957 13.1832 63.0524 12.8939 63.2433C12.6076 63.431 12.3861 63.6772 12.2291 63.9819C12.0752 64.2835 11.9983 64.6113 11.9983 64.9652V65.7731C11.9983 66.247 12.0814 66.6502 12.2476 66.9826C12.4168 67.315 12.6523 67.5689 12.9539 67.7443C13.2555 67.9167 13.6079 68.0028 14.0111 68.0028C14.2727 68.0028 14.5112 67.9659 14.7266 67.892C14.942 67.8151 15.1282 67.7012 15.2852 67.5504C15.4422 67.3996 15.5622 67.2134 15.6453 66.9918L16.9517 67.2273C16.8471 67.612 16.6594 67.949 16.3885 68.2383C16.1208 68.5245 15.7838 68.7476 15.3775 68.9077C14.9744 69.0646 14.5142 69.1431 13.9972 69.1431ZM18.571 69V61.9091H19.8959V63.0632H19.9836C20.1313 62.6723 20.3729 62.3677 20.7084 62.1491C21.0439 61.9276 21.4455 61.8168 21.9133 61.8168C22.3873 61.8168 22.7843 61.9276 23.1044 62.1491C23.4275 62.3707 23.666 62.6754 23.8199 63.0632H23.8938C24.063 62.6847 24.3323 62.383 24.7017 62.1584C25.071 61.9306 25.5111 61.8168 26.022 61.8168C26.6652 61.8168 27.1899 62.0183 27.5962 62.4215C28.0055 62.8247 28.2102 63.4325 28.2102 64.245V69H26.8299V64.3743C26.8299 63.8942 26.6991 63.5464 26.4375 63.331C26.1759 63.1155 25.8635 63.0078 25.5003 63.0078C25.051 63.0078 24.7017 63.1463 24.4524 63.4233C24.2031 63.6972 24.0784 64.0496 24.0784 64.4805V69H22.7027V64.2866C22.7027 63.9019 22.5827 63.5926 22.3426 63.3587C22.1026 63.1248 21.7902 63.0078 21.4055 63.0078C21.1439 63.0078 20.9023 63.0771 20.6807 63.2156C20.4622 63.351 20.2852 63.5402 20.1498 63.7834C20.0175 64.0265 19.9513 64.3081 19.9513 64.6282V69H18.571ZM30.0602 69V61.9091H31.4406V69H30.0602ZM30.7573 60.815C30.5173 60.815 30.3111 60.735 30.1387 60.5749C29.9694 60.4118 29.8848 60.2179 29.8848 59.9933C29.8848 59.7655 29.9694 59.5716 30.1387 59.4116C30.3111 59.2485 30.5173 59.1669 30.7573 59.1669C30.9974 59.1669 31.202 59.2485 31.3713 59.4116C31.5437 59.5716 31.6298 59.7655 31.6298 59.9933C31.6298 60.2179 31.5437 60.4118 31.3713 60.5749C31.202 60.735 30.9974 60.815 30.7573 60.815ZM34.6779 64.7898V69H33.2975V61.9091H34.6225V63.0632H34.7102C34.8733 62.6877 35.1287 62.3861 35.4765 62.1584C35.8274 61.9306 36.269 61.8168 36.8014 61.8168C37.2846 61.8168 37.7078 61.9183 38.071 62.1214C38.4341 62.3215 38.7157 62.62 38.9158 63.017C39.1158 63.4141 39.2159 63.9049 39.2159 64.4897V69H37.8355V64.6559C37.8355 64.1419 37.7017 63.7403 37.4339 63.451C37.1661 63.1586 36.7984 63.0124 36.3306 63.0124C36.0105 63.0124 35.7258 63.0817 35.4765 63.2202C35.2303 63.3587 35.0349 63.5618 34.8902 63.8295C34.7487 64.0942 34.6779 64.4143 34.6779 64.7898ZM43.7215 69.1385C43.1491 69.1385 42.6382 68.9923 42.1889 68.6999C41.7426 68.4045 41.3918 67.9844 41.1363 67.4396C40.884 66.8918 40.7578 66.2347 40.7578 65.4684C40.7578 64.7021 40.8855 64.0465 41.1409 63.5018C41.3995 62.957 41.7534 62.54 42.2027 62.2507C42.6521 61.9614 43.1614 61.8168 43.7308 61.8168C44.1709 61.8168 44.5248 61.8906 44.7926 62.0384C45.0634 62.183 45.2727 62.3523 45.4204 62.5462C45.5712 62.7401 45.6882 62.9109 45.7713 63.0586H45.8544V59.5455H47.2347V69H45.8867V67.8967H45.7713C45.6882 68.0475 45.5681 68.2198 45.4112 68.4137C45.2573 68.6076 45.0449 68.7769 44.7741 68.9215C44.5033 69.0662 44.1524 69.1385 43.7215 69.1385ZM44.0262 67.9613C44.4233 67.9613 44.7587 67.8567 45.0326 67.6474C45.3096 67.435 45.5189 67.1411 45.6605 66.7656C45.8051 66.3902 45.8774 65.9531 45.8774 65.4545C45.8774 64.9621 45.8067 64.5312 45.6651 64.1619C45.5235 63.7926 45.3158 63.5049 45.0419 63.2987C44.7679 63.0924 44.4294 62.9893 44.0262 62.9893C43.6108 62.9893 43.2645 63.0971 42.9875 63.3125C42.7105 63.5279 42.5013 63.8219 42.3597 64.1942C42.2212 64.5666 42.1519 64.9867 42.1519 65.4545C42.1519 65.9285 42.2227 66.3548 42.3643 66.7333C42.5059 67.1119 42.7152 67.4119 42.9921 67.6335C43.2722 67.852 43.6169 67.9613 44.0262 67.9613Z" fill="white"/>
</svg>
