<svg width="30" height="30" viewBox="0 0 30 30" fill="none" xmlns="http://www.w3.org/2000/svg">
<path d="M28.2251 9.18793L15.5938 2.37168C15.2226 2.17168 14.7763 2.17168 14.4063 2.37168L1.78132 9.18793C1.17382 9.51793 0.947569 10.2754 1.27507 10.8829C1.50007 11.3017 1.93132 11.5392 2.37507 11.5392C2.57507 11.5392 2.78007 11.4917 2.96882 11.3892L3.88632 10.8942L5.87382 24.9567C6.14382 26.4742 7.51132 27.5342 9.19882 27.5342H20.8013C22.4888 27.5342 23.8563 26.4742 24.1288 24.9242L26.1138 10.8929L27.0351 11.3904C27.6413 11.7192 28.4001 11.4929 28.7276 10.8854C29.0563 10.2779 28.8276 9.51918 28.2226 9.19168L28.2251 9.18793ZM15.0001 19.2942C12.7563 19.2942 10.9376 17.4754 10.9376 15.2317C10.9376 12.9879 12.7563 11.1692 15.0001 11.1692C17.2438 11.1692 19.0626 12.9879 19.0626 15.2317C19.0626 17.4754 17.2438 19.2942 15.0001 19.2942Z" fill="black"/>
</svg>
