<svg width="25" height="25" viewBox="0 0 25 25" fill="none" xmlns="http://www.w3.org/2000/svg">
<path d="M15.499 3.5H4.5C2.84315 3.5 1.5 4.84315 1.5 6.5V18.5C1.5 20.1569 2.84315 21.5 4.5 21.5H15.499C17.1559 21.5 18.499 20.1569 18.499 18.5V6.5C18.499 4.84315 17.1559 3.5 15.499 3.5Z" stroke="#262626" stroke-width="2" stroke-linecap="round" stroke-linejoin="round"/>
<path d="M18.499 9.6458L20.994 7.3898C21.2093 7.19512 21.4765 7.0671 21.7632 7.02126C22.0498 6.97542 22.3436 7.01374 22.6089 7.13157C22.8742 7.24939 23.0996 7.44166 23.2578 7.68506C23.4159 7.92846 23.5001 8.21252 23.5 8.5028V16.4968C23.5001 16.7871 23.4159 17.0712 23.2578 17.3145C23.0996 17.5579 22.8742 17.7502 22.6089 17.868C22.3436 17.9859 22.0498 18.0242 21.7632 17.9783C21.4765 17.9325 21.2093 17.8045 20.994 17.6098L18.5 15.3538" stroke="#262626" stroke-width="2" stroke-linecap="round" stroke-linejoin="round"/>
</svg>
