<svg width="33" height="19" viewBox="0 0 33 19" fill="none" xmlns="http://www.w3.org/2000/svg">
<path d="M1 10.0035C1 5.69025 4.29359 2.09092 8.58989 1.70902L11.1102 1.48499C14.7405 1.1623 18.3923 1.1623 22.0226 1.48499L24.5391 1.70869C28.8376 2.09077 32.1328 5.69191 32.1328 10.0073V10.9076C32.1328 14.0595 30.0616 16.8368 27.0406 17.7358V17.7358C24.4234 18.5146 21.5897 17.8896 19.543 16.082L18.0762 14.7866C17.2144 14.0254 15.9201 14.0273 15.0605 14.7909L13.6316 16.0603C11.5822 17.8809 8.73802 18.5142 6.10978 17.7351V17.7351C3.07901 16.8367 1 14.0521 1 10.891V10.0035Z" stroke="white" stroke-width="1.64778"/>
<path d="M23.4153 6.83054L21.2545 6.63847C18.1374 6.36139 15.0019 6.3614 11.8848 6.63847L9.7207 6.83083" stroke="white" stroke-width="1.64778" stroke-linecap="round"/>
</svg>
