<svg width="41" height="31" viewBox="0 0 41 31" fill="none" xmlns="http://www.w3.org/2000/svg">
<path d="M20.973 0.0724926C21.0251 0.3013 21.0298 0.28544 20.8902 0.303564C20.5069 0.348873 20.2939 0.491594 20.2466 0.736259C20.2348 0.797426 20.2419 0.808754 20.3081 0.838203C20.4075 0.881247 20.4099 0.922024 20.3365 1.27543C20.2679 1.61524 20.2561 1.88936 20.3152 1.90975C20.3365 1.91654 20.5376 1.92334 20.7648 1.92334C21.1718 1.92334 21.1765 1.92334 21.1481 1.96865C21.1315 1.99357 21.0748 2.02528 21.0227 2.03888C20.9115 2.06606 20.7151 2.18613 20.5731 2.31073L20.4714 2.40134L20.3365 2.3651C20.1803 2.31979 19.8514 2.33791 19.8514 2.38775C19.8514 2.40361 19.8018 2.43306 19.7426 2.45345C19.5226 2.52594 19.4113 2.65734 19.3546 2.91106L19.3285 3.02886L18.9807 3.04472C18.259 3.08097 17.8308 2.98356 17.7077 2.75701C17.6651 2.67772 17.6699 2.39681 17.7219 2.00036C17.7645 1.66961 17.7834 1.6832 17.2913 1.66508C16.7163 1.64243 16.1295 1.69 15.9591 1.77156C15.9331 1.78288 15.8242 1.85538 15.7178 1.92787C15.4883 2.08871 15.3794 2.1227 15.0623 2.14082C14.7216 2.16121 14.6767 2.17707 14.4897 2.33338C14.3998 2.4104 14.194 2.56672 14.0307 2.68225C13.8674 2.79779 13.7255 2.91786 13.7113 2.94504C13.6663 3.04246 13.5314 3.06058 12.9659 3.04472C12.3578 3.02886 12.1756 3.00621 12.0076 2.93145C11.8586 2.86349 11.6645 2.67319 11.4611 2.39681C11.3853 2.2926 11.286 2.168 11.241 2.12043C11.1014 1.97318 11.0754 1.96638 10.6045 1.97318C10.2117 1.97997 10.1691 1.97544 9.91832 1.91654C9.58469 1.83725 9.50187 1.85764 9.42379 2.02981C9.40723 2.07059 9.37647 2.10457 9.35517 2.10457C9.33388 2.10457 9.25816 2.06833 9.18481 2.02528C8.96712 1.89842 8.87484 1.88709 8.63586 1.95732C8.06798 2.12043 7.94494 2.11363 7.6965 1.89842C7.49537 1.72398 7.42439 1.71945 7.228 1.8667C7.02451 2.01622 6.86361 2.03208 6.77843 1.91201C6.7524 1.8735 6.70981 1.76702 6.68615 1.67641L6.64119 1.51103L6.55128 1.52236C6.50395 1.52916 6.43533 1.55181 6.40457 1.57446C6.31703 1.63563 6.18925 1.83046 6.11354 2.01396C6.05438 2.16121 6.04728 2.17027 6.00943 2.13856C5.95737 2.09325 5.92424 1.97091 5.88875 1.71945C5.84616 1.3887 5.70892 1.18028 5.57169 1.23918C5.48177 1.27769 5.44155 1.44987 5.41789 1.90069C5.39422 2.33338 5.38239 2.40361 5.27828 2.74569C5.23806 2.87255 5.19547 3.05832 5.18127 3.15799C5.13395 3.49327 5.08662 3.66545 5.03693 3.69263C5.00381 3.70849 4.62049 3.71302 3.8018 3.70622L2.61399 3.69716L2.48622 3.62014C2.27799 3.49554 2.11946 3.52499 2.03191 3.69943C1.97276 3.82176 1.91124 3.84895 1.69592 3.84895L1.52556 3.85121L1.38595 4.00526C1.22269 4.18196 1.19903 4.2386 1.22032 4.43342C1.23452 4.56482 1.22979 4.58294 1.17773 4.63731C1.14224 4.67356 1.07835 4.81628 1.01683 4.99298C0.96241 5.15383 0.905622 5.30108 0.893792 5.31467C0.879595 5.33053 0.820441 5.34412 0.758921 5.34412C0.607487 5.34412 0.583825 5.36225 0.619317 5.45286C0.645345 5.51856 0.640613 5.53895 0.571994 5.67261C0.472616 5.86744 0.474982 5.91727 0.586191 6.02375C0.728161 6.16194 1.06179 6.22764 1.60364 6.22764C2.02955 6.22764 2.10053 6.17327 2.22594 5.76096C2.31112 5.47099 2.36081 5.38717 2.47912 5.31694C2.56193 5.2671 2.59033 5.26483 2.96891 5.26483H3.37116L3.52496 5.19234C3.7876 5.06774 4.00766 4.92049 4.09284 4.81175C4.18275 4.69621 4.25847 4.64184 4.25847 4.69168C4.25847 4.70754 4.23717 4.80269 4.21115 4.90237C4.15436 5.12211 4.1023 5.17422 3.92247 5.19687C3.67876 5.22632 3.63617 5.24671 3.40902 5.4438C3.28834 5.55028 3.15111 5.65222 3.10378 5.67488C3.05173 5.69753 2.93579 5.71792 2.80565 5.72471C2.68734 5.72924 2.5714 5.7451 2.54774 5.75643C2.40577 5.82666 2.31822 6.28201 2.35608 6.74868C2.37501 6.99108 2.37974 7.00921 2.4247 7.00241C2.60452 6.97069 2.67787 6.97296 2.7323 7.00694C2.80092 7.04998 2.8506 7.12248 2.8719 7.2063C2.88373 7.26067 2.87663 7.27426 2.79855 7.31277C2.74886 7.33769 2.66131 7.40339 2.60216 7.46003L2.49805 7.56423H2.65421C2.879 7.56423 3.36643 7.72055 3.39955 7.80437C3.40665 7.82249 3.35696 7.91311 3.29308 8.00826C3.12508 8.24613 3.09905 8.42509 3.23156 8.42509C3.32857 8.42509 3.41612 8.36619 3.52733 8.228L3.63144 8.09661L3.63854 8.18496C3.65037 8.31635 3.58885 8.42736 3.46344 8.49985C3.37353 8.55196 3.35933 8.57008 3.35933 8.63804C3.35933 8.67882 3.37826 8.73772 3.40192 8.76491C3.43978 8.81021 3.45161 8.81248 3.50366 8.78756C3.53442 8.76944 3.61961 8.70374 3.69059 8.63804C3.8231 8.51798 3.98873 8.40244 4.02658 8.40244C4.03842 8.40244 4.01002 8.43416 3.96506 8.4704C3.92011 8.51118 3.86332 8.59274 3.83256 8.66976C3.75448 8.85552 3.72372 8.88271 3.60304 8.87365C3.54625 8.86912 3.5013 8.87138 3.5013 8.87818C3.5013 8.88497 3.58175 8.98012 3.68113 9.09339C3.84439 9.27689 3.99819 9.52382 3.99819 9.59632C3.99819 9.61444 4.02895 9.62577 4.07627 9.62577C4.21115 9.62577 4.42173 9.75036 4.7317 10.0086C4.98961 10.2261 5.07479 10.2827 5.39422 10.4436C5.79884 10.6475 6.15139 10.8604 6.33122 11.0122C6.39511 11.0666 6.53235 11.1776 6.63646 11.2569C6.74057 11.3362 6.93696 11.5038 7.0742 11.6307C7.40546 11.9388 7.45278 11.9614 7.85503 11.9841C8.26201 12.0067 8.3117 12.0158 8.39688 12.086C8.44893 12.1268 8.47496 12.1744 8.49389 12.265C8.51992 12.3873 8.51992 12.3873 8.6264 12.4032C8.80859 12.4281 9.06177 12.3669 9.06177 12.2967C9.06177 12.2695 9.08307 12.2491 9.12329 12.2401C9.23923 12.2129 9.66987 12.2604 10.233 12.3624C10.5501 12.419 10.7678 12.4122 10.9547 12.3352C11.0541 12.2944 11.1511 12.2718 11.2339 12.2718C11.3522 12.2695 11.3569 12.2672 11.3569 12.2061C11.3569 12.154 11.3759 12.1336 11.4516 12.0951C11.5746 12.0362 11.8704 11.9977 12.0786 12.0135C12.2987 12.0339 12.5968 11.9954 12.7293 11.9297C12.7932 11.898 12.8831 11.821 12.9588 11.7326C13.141 11.5151 13.1765 11.5015 13.5409 11.5197L13.8414 11.5355L13.9361 11.4381C13.9881 11.386 14.0473 11.2954 14.0686 11.241C14.1277 11.096 14.1017 11.0688 13.8911 11.0485C13.7965 11.0417 13.7136 11.0281 13.7065 11.0213C13.6994 11.0145 13.7255 10.9782 13.7657 10.9397C13.8201 10.8899 13.8603 10.8717 13.9242 10.8717C14.0425 10.8717 14.0851 10.8989 14.1703 11.0303C14.2342 11.13 14.2531 11.1436 14.3194 11.1436C14.3643 11.1413 14.4377 11.1164 14.4921 11.0802C14.5773 11.0235 14.5891 11.0054 14.5986 10.9057C14.6151 10.7585 14.6909 10.6429 14.8305 10.5591C14.9582 10.4798 15.1594 10.4187 15.2848 10.4187C15.3652 10.4187 15.3699 10.4232 15.3983 10.5229C15.4551 10.7222 15.6657 10.8491 15.881 10.8151C15.9591 10.8015 15.9733 10.8038 15.9591 10.8287C15.8952 10.9352 15.8313 10.9986 15.6917 11.1006C15.6066 11.1617 15.5119 11.2478 15.4812 11.2908C15.3557 11.4653 15.1688 12.0135 15.1168 12.3465L15.0907 12.5278L14.9677 12.6025C14.847 12.6773 14.627 12.8857 14.3856 13.1553C14.317 13.2346 14.1869 13.3479 14.0993 13.4113C13.8201 13.6106 13.7633 13.7013 13.742 14.0094L13.7349 14.1L13.3658 14.0909L12.9967 14.0818L12.947 14.1453C12.8807 14.2246 12.8429 14.2087 12.753 14.0705C12.6749 13.9482 12.6039 13.9074 12.4738 13.9074C12.3436 13.9074 12.1046 13.9686 11.9674 14.0343C11.842 14.0954 11.5226 14.2925 11.5226 14.3084C11.5226 14.3129 11.6409 14.3107 11.7829 14.3016C11.9698 14.2903 12.0431 14.2925 12.0431 14.3107C12.0431 14.3265 11.9367 14.4443 11.8065 14.5757C11.6764 14.7071 11.5652 14.8385 11.5557 14.8679C11.5439 14.9133 11.5178 14.9268 11.4019 14.9518C11.3191 14.9699 11.2623 14.9925 11.2623 15.0107C11.2623 15.0786 11.1913 15.0333 11.1677 14.9518C11.1535 14.9019 11.1132 14.8385 11.0777 14.8113C10.8955 14.6731 10.2922 14.8929 10.2922 15.0968C10.2922 15.1398 10.2756 15.1511 10.2046 15.1602C9.92068 15.1987 9.85207 15.2327 9.83787 15.3392C9.83314 15.3731 9.82131 15.4071 9.81184 15.4162C9.78581 15.4411 9.74322 15.3052 9.75742 15.2372L9.77162 15.176H9.56339C9.44982 15.176 9.2345 15.1896 9.08543 15.2078C8.79913 15.244 8.54595 15.2644 8.26437 15.278C8.12477 15.2825 8.05615 15.3029 7.88106 15.3799C7.75565 15.4343 7.57109 15.4932 7.43622 15.5204C7.30845 15.5453 7.18067 15.5702 7.15228 15.577C7.10496 15.5884 7.09786 15.5793 7.09786 15.5204C7.09786 15.4502 7.09786 15.4502 6.95352 15.4434C6.76896 15.4343 6.74293 15.4026 6.79736 15.2621C6.82102 15.2078 6.892 15.0809 6.95825 14.9812C7.08839 14.7864 7.23983 14.5123 7.23983 14.4715C7.23983 14.4579 7.18541 14.4919 7.11679 14.5463C7.00085 14.6369 6.98665 14.6437 6.87544 14.6346C6.54891 14.6097 6.47319 14.6188 6.36198 14.689C6.22475 14.7773 6.06621 14.7841 5.9763 14.7026C5.89822 14.6301 5.89822 14.5757 5.98103 14.4964C6.02835 14.4511 6.08514 14.4262 6.16323 14.4149C6.30756 14.3945 6.38801 14.3242 6.38801 14.2178V14.1385L6.18925 14.1226C5.95264 14.1045 5.8154 14.134 5.72075 14.2246C5.66633 14.2789 5.6545 14.3084 5.6545 14.4013C5.6545 14.5259 5.58588 14.6278 5.40369 14.7773C5.27592 14.8815 5.24279 14.9631 5.25935 15.133C5.27592 15.3165 5.38949 15.5385 5.66633 15.9259C5.78937 16.0981 5.96447 16.379 6.05438 16.5512C6.31939 17.0609 6.49922 17.301 7.12152 17.9852C7.49537 18.3975 7.72252 18.6671 7.94258 18.9593C8.10111 19.1677 8.2833 19.3467 8.50572 19.5075C8.58381 19.5642 8.92453 19.8745 9.26526 20.1962C9.8426 20.7467 9.89229 20.7988 10.0532 21.048C10.2283 21.3221 10.3655 21.4603 10.4838 21.4852C10.543 21.4988 10.5524 21.5102 10.5524 21.5736C10.5524 21.6733 10.614 21.8658 10.6944 22.0176C10.853 22.3166 11.1369 22.6179 11.7119 23.1005C11.913 23.2704 12.2182 23.5377 12.3862 23.694C12.5873 23.8821 12.7908 24.0429 12.9778 24.1652C13.2002 24.3102 13.309 24.4008 13.4865 24.5889C13.8106 24.9332 13.8887 24.9898 14.4448 25.2821C14.5891 25.3568 14.6932 25.4407 14.8825 25.6219C15.0198 25.7556 15.1783 25.8847 15.2327 25.9119C15.2895 25.9391 15.4315 25.9753 15.545 25.9934C15.7746 26.0251 15.8503 26.0591 16.049 26.2245C16.3117 26.4397 16.5483 26.4963 16.7541 26.3899C16.9837 26.2743 16.9908 26.2721 17.0783 26.2879C17.1256 26.297 17.2297 26.3446 17.3078 26.3944C17.4309 26.4737 17.4569 26.4805 17.5326 26.4646C17.7337 26.4216 17.9443 26.4692 18.1951 26.6187L18.3158 26.6912L18.3915 26.6209C18.4341 26.5824 18.5477 26.5167 18.6447 26.4737C18.7417 26.4329 18.8553 26.3717 18.8932 26.34C18.9594 26.2857 18.9831 26.2811 19.3072 26.2721C19.7071 26.2585 19.8254 26.2245 20.0384 26.0659C20.2703 25.8915 20.301 25.8824 20.6488 25.8734L20.9635 25.8643L21.0109 25.7895C21.0771 25.6853 21.2522 25.5381 21.354 25.4973C21.477 25.4475 21.6663 25.4271 21.7065 25.4588C21.7278 25.4769 21.742 25.4769 21.7491 25.4633C21.7515 25.4497 21.8343 25.4293 21.9289 25.4157C22.0236 25.4044 22.1324 25.3772 22.1703 25.3591C22.2531 25.3183 22.3123 25.2186 22.3123 25.119V25.0465L22.1182 25.0601C21.8887 25.0737 21.9147 25.0465 22.1774 24.9944C22.3217 24.9649 22.3927 24.9627 22.6388 24.9853C22.7973 25.0012 22.9842 25.0057 23.0529 24.9966C23.228 24.974 23.4149 24.8879 23.5545 24.761C23.6846 24.6432 23.6917 24.641 24.0514 24.5911C24.4536 24.5345 24.7186 24.419 25.0168 24.1766C25.2629 23.9749 25.4048 23.8979 25.5208 23.8979C25.6367 23.8979 25.6485 23.8775 25.6485 23.6578C25.6485 23.5422 25.6556 23.5173 25.6911 23.5083C25.7172 23.5015 25.7668 23.4335 25.8118 23.3406C25.9443 23.0688 26.1407 22.8173 26.4578 22.5069C26.8979 22.0788 26.9428 21.9791 26.9665 21.3833C26.9807 21.0095 26.9807 21.0095 27.0469 20.9461C27.1321 20.8645 27.151 20.7694 27.1274 20.5247C27.1179 20.4182 27.1061 20.1849 27.1014 20.0082C27.0919 19.6684 27.0895 19.657 26.9476 19.4418C26.9121 19.3875 26.9002 19.3308 26.9002 19.2221C26.9002 18.9706 26.9689 18.7962 27.1865 18.5175C27.2552 18.4292 27.3356 18.3069 27.3687 18.2457C27.4019 18.1823 27.487 18.0735 27.5604 18.001L27.6953 17.8674L27.5888 17.8878C27.4586 17.9104 27.2694 17.9104 27.1794 17.8878L27.1132 17.8696L27.1771 17.7971C27.2528 17.711 27.3096 17.5865 27.3522 17.4233C27.3806 17.3078 27.3853 17.3033 27.4445 17.3169C27.4776 17.3237 27.5722 17.3712 27.6527 17.4233C27.9106 17.5819 28.0833 17.5842 28.2939 17.4279C28.3767 17.369 28.4217 17.3508 28.4998 17.3508C28.6086 17.3508 28.6299 17.3282 28.6299 17.2149C28.6299 17.0813 28.6252 17.079 28.3176 17.079C28.1354 17.079 28.0407 17.0699 28.0502 17.0563C28.0573 17.0428 28.1283 17.0337 28.204 17.0337H28.346L28.372 16.934C28.3862 16.8796 28.424 16.8117 28.4524 16.7845C28.5447 16.7007 28.7411 16.7279 29.0227 16.8615L29.2522 16.9703L29.1599 17.002C29.0392 17.0405 28.8547 17.2353 28.8097 17.3712C28.7908 17.4279 28.7577 17.5615 28.7364 17.668C28.689 17.89 28.6559 17.9625 28.5707 18.0214L28.5116 18.0645L28.6417 18.1619C28.7151 18.214 28.779 18.2729 28.7884 18.2933C28.7955 18.3137 28.7766 18.3522 28.7411 18.3884C28.7056 18.4224 28.663 18.4949 28.6441 18.547C28.5991 18.6693 28.5589 18.9638 28.5589 19.1768C28.5589 19.3693 28.5542 19.3671 28.8712 19.3671C29.0582 19.3671 29.0818 19.3625 29.1481 19.3082C29.3043 19.1813 29.6544 19.1088 30.0378 19.1224L30.2507 19.1292L30.0614 19.2221C29.7396 19.3807 29.6781 19.3943 29.2688 19.3988C28.947 19.4011 28.8925 19.4078 28.8216 19.4464C28.6678 19.5324 28.6417 19.5913 28.6441 19.8496C28.6441 19.9765 28.6488 20.1577 28.6536 20.2506C28.6607 20.3842 28.6512 20.4567 28.6062 20.5904C28.5542 20.7444 28.5305 20.9778 28.5613 21.0072C28.5684 21.014 28.7695 21.0412 29.0085 21.0661C29.4131 21.1114 29.742 21.1635 29.7917 21.193C29.8556 21.2315 29.7798 21.2406 29.4888 21.2292C29.1646 21.2179 28.8239 21.2474 28.6772 21.2972L28.6015 21.3221L28.7198 21.4195C28.8216 21.5056 28.8405 21.5328 28.8665 21.6529L28.8973 21.7911H29.0298C29.3729 21.7911 29.6355 21.6959 29.8792 21.4875C29.9597 21.4173 30.0378 21.3606 30.052 21.3606C30.1064 21.3606 29.9573 21.5555 29.8059 21.6869C29.716 21.7639 29.5811 21.9134 29.503 22.0244C29.3847 22.1875 29.3397 22.2328 29.238 22.2804C29.0582 22.3688 29.0321 22.3959 29.0321 22.5069C29.0321 22.5772 29.0463 22.6179 29.0818 22.6497C29.1268 22.6904 29.1315 22.7108 29.1197 22.8264C29.0984 23.0076 29.044 23.173 28.9706 23.2772C28.9351 23.3248 28.8973 23.395 28.8854 23.4335C28.8594 23.5196 28.902 23.7189 28.9612 23.7914C29.0037 23.8435 29.0037 23.8458 28.947 23.9591C28.8878 24.0701 28.8641 24.2921 28.902 24.351C28.9115 24.3646 29.0369 24.3736 29.2049 24.3759C29.4841 24.3759 29.4912 24.3782 29.4344 24.4144C29.3019 24.5028 29.212 24.5957 29.167 24.6863C29.1434 24.7406 29.1292 24.7928 29.1386 24.7995C29.1599 24.8199 29.5077 24.8199 29.7657 24.7995L29.9668 24.786L29.8177 24.8177C29.6734 24.8471 29.3871 24.974 29.3871 25.008C29.3871 25.0148 29.4249 25.0397 29.4699 25.0601C29.5787 25.1099 29.6 25.1688 29.6 25.4316V25.6468L29.9762 25.631L30.3525 25.6151L30.3406 25.7125C30.3241 25.8575 30.317 25.8688 30.2531 25.8688C30.1963 25.8688 29.6237 26.0183 29.6024 26.0387C29.5811 26.0614 29.8272 26.5394 29.8982 26.6051C29.9857 26.6889 30.1158 26.7297 30.2957 26.7297C30.3856 26.7297 30.4282 26.7387 30.4282 26.7569C30.4258 26.8294 30.369 26.8633 30.1395 26.92C30.052 26.9426 29.9715 26.9721 29.9597 26.9879C29.9478 27.0015 29.9265 27.2213 29.91 27.4795C29.8769 28.0753 29.8153 28.4061 29.6947 28.6304C29.6663 28.6847 29.6473 28.7323 29.6544 28.7368C29.6592 28.7414 29.7396 28.755 29.8343 28.7663C30.1892 28.8093 30.2412 28.943 29.9786 29.1378L29.8366 29.2443H29.5811C29.3445 29.2443 29.3208 29.2488 29.2735 29.2941C29.2049 29.3666 29.1812 29.4391 29.1599 29.6272C29.1363 29.8718 29.096 29.9035 28.7435 29.9579C28.6938 29.9647 28.6228 29.9964 28.5826 30.0281C28.4856 30.1074 28.4879 30.198 28.5968 30.4042C28.6701 30.5447 28.6796 30.5809 28.6678 30.6715L28.6536 30.7757L28.9777 30.8392C29.1575 30.8731 29.3468 30.8981 29.3989 30.8935L29.4935 30.8867L29.4841 30.744C29.4746 30.5628 29.5101 30.5084 29.6757 30.454C29.7893 30.4178 30.0425 30.4065 30.2602 30.4291C30.3051 30.4336 30.3193 30.4178 30.3454 30.343C30.4234 30.0916 30.5772 29.8922 30.7547 29.8175C31.0789 29.6725 31.545 29.8107 31.6373 30.0757C31.6988 30.2547 31.5947 30.3317 31.2942 30.3317C31.1428 30.3317 31.1191 30.3362 31.1073 30.3747C31.1002 30.3997 31.0363 30.445 30.9582 30.4835C30.8233 30.5447 30.8186 30.5492 30.8115 30.6421C30.7997 30.812 30.9464 30.8981 31.2445 30.8981C31.4433 30.8981 31.4929 30.8822 31.4929 30.8165C31.4929 30.7304 31.5758 30.667 31.6775 30.676L31.7651 30.6828L31.7722 30.8414L31.7793 31H32.0963H32.4157L32.5341 30.8799L32.6547 30.7621H32.8771H33.1019L33.1043 30.676C33.1114 30.1323 33.154 29.9285 33.2794 29.8492C33.4119 29.7676 33.4332 29.6996 33.4332 29.344V29.0314L33.542 28.8093L33.6509 28.5851L33.6414 28.286C33.6343 28.0232 33.6272 27.9734 33.5752 27.8737C33.542 27.8103 33.4829 27.7401 33.445 27.7151L33.3717 27.6721L33.4616 27.4659C33.542 27.2779 33.5539 27.2621 33.613 27.2666C33.6911 27.2734 33.755 27.3278 33.8141 27.4388C33.9419 27.6744 34.1407 27.7718 34.5003 27.7718H34.7086L34.7157 28.0028C34.7228 28.2611 34.7086 28.2385 34.8955 28.2452C34.957 28.2475 35.0067 28.2747 35.1179 28.3766C35.1983 28.4491 35.267 28.4967 35.2717 28.4854C35.338 28.3155 35.4113 28.2724 35.6929 28.2452C36.0454 28.2113 36.1779 28.1365 36.2513 27.9326C36.2726 27.8737 36.2655 27.8465 36.1803 27.697C36.1259 27.6064 36.0833 27.5135 36.0833 27.4931C36.0833 27.4478 36.1921 27.4184 36.4264 27.398C36.6441 27.3799 36.8452 27.3413 36.8831 27.3142C36.9185 27.2847 36.9209 26.8679 36.8878 26.5938C36.8168 26.0501 36.6867 25.8167 36.2844 25.5154C36.1874 25.4429 36.0478 25.3138 35.9744 25.23C35.7852 25.008 35.726 24.9853 35.293 24.9581C35.0966 24.9468 34.9286 24.9309 34.9191 24.9219C34.9097 24.9128 34.8955 24.872 34.886 24.8335L34.8718 24.761L35.3072 24.7542L35.7449 24.7474L35.8727 24.6523C35.9626 24.5866 36.0431 24.5481 36.133 24.53C36.398 24.4756 36.4619 24.3963 36.4619 24.1245C36.4619 23.9206 36.5068 23.8232 36.637 23.7507C36.7576 23.6827 36.8736 23.6578 37.2167 23.6261C37.6047 23.5875 37.5976 23.5921 37.5976 23.404V23.2477L37.8011 23.2341C38.0685 23.216 38.1844 23.1616 38.3146 22.994C38.369 22.9238 38.4234 22.8581 38.4376 22.849C38.4495 22.8377 38.5512 22.8377 38.6624 22.849C38.7736 22.8581 38.9747 22.8649 39.112 22.8671C39.3368 22.8671 39.3746 22.8603 39.5071 22.8014C39.5876 22.7675 39.7082 22.7312 39.7769 22.7244L39.9023 22.7086L39.7603 22.593C39.4385 22.328 39.1877 22.1966 38.9203 22.1535C38.8257 22.1377 38.5914 22.1309 38.3501 22.1354C37.8745 22.1445 37.8461 22.1535 37.5834 22.3801C37.4036 22.5364 37.29 22.5794 37.1646 22.5409C37.0345 22.5001 37.0085 22.4571 36.9114 22.1377C36.8618 21.9723 36.7671 21.859 36.6819 21.859C36.5849 21.859 36.7742 21.5147 36.9162 21.4331L36.9848 21.3946L36.9777 21.1228L36.9706 20.8509L36.8263 20.8147C36.6346 20.7648 36.5826 20.7354 36.566 20.6697C36.5376 20.5564 36.5542 20.5496 36.857 20.5632C37.2072 20.5768 37.2498 20.5587 37.3941 20.3457C37.4509 20.2619 37.5172 20.1758 37.5408 20.1554C37.6213 20.0875 37.7562 20.0467 37.8958 20.0467H38.0283L37.8177 19.8473C37.4746 19.5279 37.3965 19.2765 37.5077 18.8528C37.5266 18.7803 37.5527 18.7463 37.6118 18.7124C37.7278 18.6467 37.7349 18.5764 37.6473 18.4269C37.6071 18.359 37.5479 18.2389 37.5172 18.1596C37.4202 17.9127 37.3445 17.7971 37.1859 17.6454C37.1007 17.5661 37.0298 17.48 37.0298 17.4573C37.0298 17.3871 37.1149 17.2942 37.2877 17.1719C37.5432 16.9884 37.5787 16.9816 38.201 16.968C38.8257 16.9521 38.7854 16.9703 38.7334 16.7256C38.6979 16.5693 38.5914 16.4469 38.4258 16.379C38.3619 16.3518 38.1679 16.311 37.9951 16.2838C37.8224 16.2589 37.6426 16.2295 37.5976 16.2181C37.387 16.1638 37.29 16.0437 37.29 15.8421V15.7379L37.4273 15.7515C37.7325 15.7786 38.3666 15.79 38.3311 15.7673C38.3122 15.7537 38.272 15.7424 38.2436 15.7424C38.1679 15.7424 38.1773 15.7175 38.272 15.6563C38.3785 15.5906 38.4826 15.4547 38.582 15.2531L38.66 15.0922L38.8564 15.0786C38.9653 15.0696 39.1214 15.0628 39.2066 15.0628C39.3841 15.0628 39.4077 15.0514 39.5994 14.8589C39.8313 14.6255 40.0513 14.3469 40.1436 14.1702C40.2217 14.0139 40.2335 13.9754 40.243 13.7738C40.2525 13.5744 40.2477 13.5359 40.2028 13.4475C40.1389 13.3207 40.075 13.2957 39.7982 13.2957C39.5213 13.2957 39.4125 13.2436 39.3178 13.0647C39.2303 12.9038 39.2137 12.6954 39.2516 12.2446C39.2776 11.932 39.2658 11.5174 39.2327 11.5718C39.2232 11.5831 39.1972 11.5672 39.1711 11.531C39.0741 11.3928 38.9038 11.3588 38.6387 11.4268C38.4447 11.4766 38.2957 11.4721 38.2341 11.4132C38.1892 11.3701 38.1844 11.3452 38.1963 11.2342C38.201 11.164 38.2247 11.0734 38.246 11.0349C38.3004 10.9329 38.2933 10.8332 38.2152 10.6792C38.1324 10.5115 38.0259 10.4028 37.91 10.3756C37.8626 10.3643 37.6734 10.3484 37.4912 10.3394C37.2403 10.328 37.1552 10.3167 37.141 10.2918C37.1291 10.2737 37.0842 10.2601 37.0298 10.2601C36.9114 10.2601 36.8286 10.1921 36.6606 9.96558C36.5896 9.86817 36.5187 9.77982 36.5021 9.76622C36.424 9.70506 36.1732 9.67334 35.849 9.68693C35.5391 9.69826 35.5249 9.69826 35.4586 9.64842C35.4208 9.61897 35.3758 9.56233 35.3592 9.52156C35.3143 9.42188 35.3167 9.19081 35.364 8.98692C35.4184 8.75358 35.4184 8.52251 35.3663 8.43189C35.2764 8.27331 35.0706 8.25292 34.7772 8.37072C34.666 8.41377 34.6281 8.42056 34.6021 8.40018C34.55 8.3594 34.498 8.16004 34.498 8.00826C34.498 7.80663 34.4601 7.70243 34.3465 7.59595C34.2685 7.51893 34.2235 7.49627 34.1076 7.47588C33.7952 7.41472 33.7171 7.35355 33.7171 7.16552C33.7171 7.03639 33.8473 6.85516 34.1691 6.52894C34.4814 6.21631 34.5524 6.08945 34.5524 5.85384C34.5524 5.60691 34.4956 5.47325 34.3181 5.30561C34.065 5.06774 33.9608 5.08587 33.6958 5.40755C33.4758 5.67488 33.3788 5.71565 33.2415 5.59785C33.1777 5.54348 33.1658 5.51629 33.1635 5.42115C33.1635 5.35998 33.1706 5.25124 33.1824 5.17875L33.2013 5.04962H33.109C32.7541 5.04962 32.5104 4.77324 32.5104 4.37226C32.5104 3.99167 32.6429 3.80817 33.0712 3.59295C33.4403 3.40945 33.4332 3.41625 33.3125 3.35282C33.2368 3.31204 33.1658 3.29618 33.0049 3.28712C32.7565 3.27353 32.7683 3.30751 32.844 2.87708C32.8701 2.72303 32.889 2.57578 32.8842 2.55086C32.8771 2.50782 32.8511 2.49876 32.6524 2.47384C32.314 2.43306 32.1578 2.43759 32.0679 2.48969C31.9733 2.54407 31.855 2.75928 31.8218 2.93825C31.7651 3.24408 31.6822 3.37321 31.5379 3.37321C31.4858 3.37321 31.4622 3.35509 31.4172 3.27806C31.3794 3.2101 31.3273 3.16706 31.2445 3.12628C31.1286 3.06738 31.1191 3.06738 30.6056 3.06738H30.0851L30.0709 2.93145C30.0614 2.85669 30.0543 2.73209 30.052 2.65281C30.0496 2.55992 30.0401 2.50782 30.0212 2.50329C29.768 2.43306 29.574 2.31752 29.4722 2.1748C29.3468 1.99583 29.2759 1.94599 29.1623 1.94599H29.0605L28.947 2.14082C28.8358 2.33112 28.708 2.46704 28.6441 2.46704C28.6228 2.46704 28.6062 2.424 28.5968 2.34018C28.5755 2.16574 28.5116 2.05927 28.3531 1.93014C28.0455 1.68094 27.9437 1.54048 27.9437 1.35925C27.9437 1.16216 27.771 1.09646 27.319 1.12138C26.9901 1.13951 26.8979 1.12138 26.7701 1.01264C26.6707 0.92882 26.6187 0.772507 26.6187 0.557291V0.398712L26.472 0.412304C26.1596 0.437225 25.8449 0.618458 25.7408 0.833673C25.7006 0.915228 25.6698 0.946943 25.6367 0.949209C25.561 0.949209 25.4853 0.885778 25.464 0.806488C25.4474 0.743055 25.4332 0.733994 25.3599 0.727198C25.2084 0.713606 25.0665 0.892574 25.0215 1.1463C25.0073 1.23012 24.9978 1.24371 24.9458 1.24371C24.8606 1.24371 24.766 1.13497 24.7021 0.967333C24.6051 0.71134 24.5459 0.634315 24.3992 0.570885C24.2714 0.514248 24.262 0.511984 23.9709 0.532372C23.4504 0.566353 23.4054 0.561823 23.157 0.444021C23.0363 0.387384 22.8872 0.335281 22.8257 0.32622C22.7547 0.314892 22.5489 0.328484 22.2531 0.362465L21.7917 0.416836V0.582211C21.7917 0.738525 21.7893 0.747587 21.7302 0.767975C21.6971 0.781569 21.619 0.79063 21.5574 0.79063C21.3303 0.79063 21.1907 0.62752 21.186 0.348873C21.1836 0.260521 21.1812 0.174437 21.1789 0.154047C21.1741 0.0951462 21.1221 0.0430412 21.0369 0.0203876L20.9588 -1.90735e-06L20.973 0.0724926ZM8.54831 15.3573C8.70448 15.4049 8.70921 15.4094 8.70211 15.4796C8.69738 15.5362 8.68318 15.5521 8.63113 15.5566C8.58144 15.5634 8.55541 15.5453 8.50336 15.4773C8.46786 15.4298 8.41108 15.3663 8.37795 15.3369C8.34482 15.3074 8.33299 15.2893 8.35192 15.2938C8.37085 15.3006 8.46076 15.3278 8.54831 15.3573ZM29.6355 17.2059C29.7964 17.2942 29.9881 17.3282 30.298 17.3282C30.4542 17.3259 30.6672 17.3123 30.7713 17.2942C30.8754 17.2761 30.9771 17.2602 30.9961 17.2602C31.0363 17.2602 30.8352 17.4619 30.7027 17.557C30.5938 17.634 30.5205 17.6386 30.3714 17.5774C30.3122 17.5502 30.1655 17.514 30.0472 17.4958C29.9289 17.4777 29.8035 17.4483 29.7704 17.4324C29.7089 17.4007 29.5054 17.2081 29.432 17.113C29.3989 17.0677 29.3989 17.0677 29.4699 17.113C29.5101 17.1356 29.5835 17.1787 29.6355 17.2059Z" fill="white"/>
</svg>
