<svg width="56" height="53" viewBox="0 0 56 53" fill="none" xmlns="http://www.w3.org/2000/svg">
<path d="M28 51.8332C43.1878 51.8332 55.5 40.4382 55.5 26.3819C55.5 12.3255 43.1878 0.930664 28 0.930664C12.8122 0.930664 0.5 12.3255 0.5 26.3819C0.5 40.4382 12.8122 51.8332 28 51.8332Z" fill="url(#paint0_radial_2190_19754)"/>
<path opacity="0.5" d="M28 51.8332C43.1878 51.8332 55.5 40.4382 55.5 26.3819C55.5 12.3255 43.1878 0.930664 28 0.930664C12.8122 0.930664 0.5 12.3255 0.5 26.3819C0.5 40.4382 12.8122 51.8332 28 51.8332Z" fill="url(#paint1_radial_2190_19754)"/>
<path d="M28 51.8332C43.1878 51.8332 55.5 40.4382 55.5 26.3819C55.5 12.3255 43.1878 0.930664 28 0.930664C12.8122 0.930664 0.5 12.3255 0.5 26.3819C0.5 40.4382 12.8122 51.8332 28 51.8332Z" fill="url(#paint2_radial_2190_19754)"/>
<path d="M20.3171 14.7856C19.8874 13.8471 18.5124 13.7039 16.639 14.4516C15.0405 15.0878 11.9124 17.2989 10.8296 21.1484C10.6233 21.8642 11.4484 21.8801 11.7234 21.3552C12.6687 19.5895 15.9515 16.5035 19.2171 15.5809C20.5233 15.1992 20.3171 14.7856 20.3171 14.7856Z" fill="url(#paint3_linear_2190_19754)"/>
<path d="M19.0278 29.213C20.4896 29.213 21.6746 27.5536 21.6746 25.5066C21.6746 23.4597 20.4896 21.8003 19.0278 21.8003C17.5659 21.8003 16.3809 23.4597 16.3809 25.5066C16.3809 27.5536 17.5659 29.213 19.0278 29.213Z" fill="url(#paint4_radial_2190_19754)"/>
<path d="M19.0278 23.0574C20.1621 23.0574 21.159 23.9799 21.6746 25.3321C21.6403 23.3278 20.4715 21.7212 19.0278 21.7212C17.584 21.7212 16.4152 23.3278 16.3809 25.3321C16.8965 23.9799 17.8762 23.0574 19.0278 23.0574Z" fill="url(#paint5_linear_2190_19754)"/>
<path d="M33.3115 18.0466C33.1913 17.0285 34.3084 16.2809 36.3538 16.09C38.0897 15.931 41.9913 16.44 44.9647 19.3032C45.5147 19.8282 44.81 20.2258 44.2944 19.8918C42.5413 18.7783 38.0381 17.5694 34.7038 18.2216C33.3632 18.5079 33.3115 18.0466 33.3115 18.0466Z" fill="url(#paint6_linear_2190_19754)"/>
<path d="M38.1411 23.1051C38.1411 23.1051 42.1629 23.3437 43.3832 26.1115C43.452 26.2864 43.5035 26.4774 43.5035 26.6523C43.5207 27.0341 43.1598 27.4318 42.4379 27.0978C37.9519 25.0139 35.4597 26.1433 33.6035 26.9545C32.8817 27.2727 32.1942 26.6046 32.4004 25.9842C32.452 25.8093 32.4863 25.6184 32.5895 25.4593C34.1191 22.8347 38.1411 23.1051 38.1411 23.1051Z" fill="url(#paint7_radial_2190_19754)"/>
<path d="M38.0887 23.9801C38.0887 23.9801 41.3716 24.171 43.4856 26.4139C43.4684 26.3026 43.434 26.1913 43.3824 26.0958C42.1622 23.328 38.1403 23.0894 38.1403 23.0894C38.1403 23.0894 34.1184 22.8348 32.5887 25.4277C32.5372 25.5232 32.4856 25.6345 32.4512 25.7299C34.8231 23.7733 38.0887 23.9801 38.0887 23.9801Z" fill="url(#paint8_linear_2190_19754)"/>
<path d="M28.0001 45.6609C14.9547 45.6609 10.7782 33.3489 14.7485 35.2895C20.0766 37.8664 23.4625 38.63 28.0001 38.63C32.5376 38.63 35.9063 37.8824 41.2516 35.2895C45.2219 33.3648 41.0453 45.6609 28.0001 45.6609Z" fill="#643800"/>
<path d="M35.8371 40.6345C35.8371 39.8868 35.0636 39.3459 34.3073 39.5687C32.4511 40.0777 30.3543 40.3799 27.9996 40.3799C25.6448 40.3799 23.548 40.0777 21.6918 39.5687C20.9183 39.3618 20.1621 39.9027 20.1621 40.6345V45.5179C20.1621 49.5265 23.6683 52.9306 27.9996 52.9306C32.3308 52.9306 35.8371 49.5105 35.8371 45.5179C35.8371 45.5179 35.8371 45.5179 35.8371 45.5019V40.6345Z" fill="url(#paint9_linear_2190_19754)"/>
<path d="M35.8371 40.6345C35.8371 39.8868 35.0636 39.3459 34.3073 39.5687C32.4511 40.0777 30.3543 40.3799 27.9996 40.3799C25.6448 40.3799 23.548 40.0777 21.6918 39.5687C20.9183 39.3618 20.1621 39.9027 20.1621 40.6345V45.5179C20.1621 49.5265 23.6683 52.9306 27.9996 52.9306C32.3308 52.9306 35.8371 49.5105 35.8371 45.5179C35.8371 45.5179 35.8371 45.5179 35.8371 45.5019V40.6345Z" fill="url(#paint10_radial_2190_19754)"/>
<path d="M27.1924 40.7139H28.8252C28.8252 50.0195 28.4642 50.1467 28.0174 50.1467C27.5533 50.1467 27.1924 49.9717 27.1924 40.7139Z" fill="url(#paint11_linear_2190_19754)"/>
<path d="M41.2516 35.2897C35.9234 37.8666 32.5375 38.6302 28 38.6302C23.4625 38.6302 20.0938 37.8826 14.7485 35.2897C13.3563 34.6216 12.9609 35.6715 13.5969 37.3418C13.5969 37.31 13.8031 35.5283 15.6765 36.7532C15.6765 36.7532 15.6765 36.7532 15.6938 36.7532C18.4781 38.7415 22.5687 40.3641 28.0172 40.3641C33.4656 40.3641 37.5562 38.7257 40.3407 36.7532C40.3407 36.7532 40.3407 36.7532 40.3578 36.7532C42.2313 35.5283 42.4375 37.294 42.4375 37.3418C43.0219 35.6715 42.6266 34.6216 41.2516 35.2897Z" fill="url(#paint12_linear_2190_19754)"/>
<path d="M27.9996 40.38C25.6448 40.38 23.548 40.0778 21.6918 39.5688C20.9183 39.362 20.1621 39.9029 20.1621 40.6346C20.1621 41.923 20.1621 43.3865 20.1621 43.3865C20.1621 43.3865 20.2652 41.6367 27.9996 41.6367C35.7512 41.6367 35.8371 43.3865 35.8371 43.3865C35.8371 43.3865 35.8371 41.923 35.8371 40.6346C35.8371 39.887 35.0636 39.362 34.3073 39.5688C32.4511 40.0778 30.3543 40.38 27.9996 40.38Z" fill="url(#paint13_linear_2190_19754)"/>
<defs>
<radialGradient id="paint0_radial_2190_19754" cx="0" cy="0" r="1" gradientUnits="userSpaceOnUse" gradientTransform="translate(22.5894 16.0674) scale(33.1752 30.7036)">
<stop stop-color="#FFE030"/>
<stop offset="1" stop-color="#FFB92E"/>
</radialGradient>
<radialGradient id="paint1_radial_2190_19754" cx="0" cy="0" r="1" gradientUnits="userSpaceOnUse" gradientTransform="translate(22.5894 16.0674) scale(26.1004 24.1559)">
<stop stop-color="#FFEA5F"/>
<stop offset="1" stop-color="#FFBC47" stop-opacity="0"/>
</radialGradient>
<radialGradient id="paint2_radial_2190_19754" cx="0" cy="0" r="1" gradientUnits="userSpaceOnUse" gradientTransform="translate(28.086 47.0144) scale(14.2581 6.56761)">
<stop stop-color="#7A4400" stop-opacity="0.5"/>
<stop offset="0.5833" stop-color="#894D00" stop-opacity="0.2069"/>
<stop offset="0.995" stop-color="#975500" stop-opacity="0"/>
</radialGradient>
<linearGradient id="paint3_linear_2190_19754" x1="15.7203" y1="18.4735" x2="14.7164" y2="15.9536" gradientUnits="userSpaceOnUse">
<stop offset="0.00132565" stop-color="#3C2200"/>
<stop offset="1" stop-color="#7A4400"/>
</linearGradient>
<radialGradient id="paint4_radial_2190_19754" cx="0" cy="0" r="1" gradientUnits="userSpaceOnUse" gradientTransform="translate(18.2179 25.6043) rotate(72.6297) scale(3.61928 2.49777)">
<stop offset="0.00132565" stop-color="#7A4400"/>
<stop offset="1" stop-color="#643800"/>
</radialGradient>
<linearGradient id="paint5_linear_2190_19754" x1="19.0212" y1="21.7863" x2="19.0212" y2="25.2405" gradientUnits="userSpaceOnUse">
<stop offset="0.00132565" stop-color="#3C2200"/>
<stop offset="1" stop-color="#512D00"/>
</linearGradient>
<linearGradient id="paint6_linear_2190_19754" x1="39.2777" y1="19.1894" x2="39.0214" y2="16.5176" gradientUnits="userSpaceOnUse">
<stop offset="0.00132565" stop-color="#3C2200"/>
<stop offset="1" stop-color="#7A4400"/>
</linearGradient>
<radialGradient id="paint7_radial_2190_19754" cx="0" cy="0" r="1" gradientUnits="userSpaceOnUse" gradientTransform="translate(38.0144 25.1914) rotate(3.48401) scale(4.32767 1.93355)">
<stop offset="0.00132565" stop-color="#7A4400"/>
<stop offset="1" stop-color="#643800"/>
</radialGradient>
<linearGradient id="paint8_linear_2190_19754" x1="38.2386" y1="21.9285" x2="38.095" y2="24.5134" gradientUnits="userSpaceOnUse">
<stop offset="0.00132565" stop-color="#3C2200"/>
<stop offset="1" stop-color="#512D00"/>
</linearGradient>
<linearGradient id="paint9_linear_2190_19754" x1="27.9992" y1="48.6098" x2="27.9992" y2="37.4395" gradientUnits="userSpaceOnUse">
<stop stop-color="#FF6688"/>
<stop offset="1" stop-color="#D93E15"/>
</linearGradient>
<radialGradient id="paint10_radial_2190_19754" cx="0" cy="0" r="1" gradientUnits="userSpaceOnUse" gradientTransform="translate(30.3604 48.3321) rotate(-37.7386) scale(7.55369 4.50542)">
<stop stop-color="white" stop-opacity="0.33"/>
<stop offset="1" stop-color="white" stop-opacity="0"/>
</radialGradient>
<linearGradient id="paint11_linear_2190_19754" x1="27.9994" y1="41.7873" x2="27.9994" y2="56.2631" gradientUnits="userSpaceOnUse">
<stop stop-color="#D93E15" stop-opacity="0"/>
<stop offset="1" stop-color="#D93E15"/>
</linearGradient>
<linearGradient id="paint12_linear_2190_19754" x1="27.9997" y1="30.7491" x2="27.9997" y2="40.1163" gradientUnits="userSpaceOnUse">
<stop offset="0.00132565" stop-color="#3C2200"/>
<stop offset="1" stop-color="#512D00"/>
</linearGradient>
<linearGradient id="paint13_linear_2190_19754" x1="27.9991" y1="44.43" x2="27.9991" y2="40.3465" gradientUnits="userSpaceOnUse">
<stop stop-color="#D93E15" stop-opacity="0"/>
<stop offset="1" stop-color="#BD2719"/>
</linearGradient>
</defs>
</svg>
