<svg width="69" height="82" viewBox="0 0 69 82" fill="none" xmlns="http://www.w3.org/2000/svg">
<path d="M9.77648 40.389C6.6552 40.3142 2.36301 43.0121 2.36301 43.0121C2.36301 43.0121 6.99599 45.5962 10.266 45.4604C13.0256 45.3458 16.8569 43.2093 16.8569 43.2093C16.8569 43.2093 12.8129 40.4618 9.77648 40.389Z" fill="white" stroke="url(#paint0_linear_2190_19644)"/>
<path d="M13.956 42.8783C13.9769 44.2801 12.1351 45.074 9.84884 45.1001C7.56261 45.1262 5.69775 44.3736 5.67689 42.9719C5.65603 41.5701 7.49788 40.7762 9.7841 40.7501C12.0703 40.724 13.9352 41.4766 13.956 42.8783Z" fill="url(#paint1_linear_2190_19644)"/>
<ellipse cx="2.18017" cy="1.56959" rx="2.18017" ry="1.56959" transform="matrix(0.999935 -0.0114155 0.0148791 0.999889 7.2959 40.7856)" fill="#1F0C0E"/>
<path d="M9.77648 40.389C6.6552 40.3142 2.36301 43.0121 2.36301 43.0121C2.36301 43.0121 6.99599 45.5962 10.266 45.4604C13.0256 45.3458 16.8569 43.2093 16.8569 43.2093C16.8569 43.2093 12.8129 40.4618 9.77648 40.389Z" stroke="url(#paint2_linear_2190_19644)"/>
<ellipse cx="8.53899" cy="41.3968" rx="0.413993" ry="0.362612" fill="#D9D9D9"/>
<path d="M32.297 41.1204C29.1757 41.0456 24.8835 43.7436 24.8835 43.7436C24.8835 43.7436 29.5165 46.3276 32.7865 46.1919C35.5461 46.0772 39.3774 43.9408 39.3774 43.9408C39.3774 43.9408 35.3334 41.1932 32.297 41.1204Z" fill="white" stroke="url(#paint3_linear_2190_19644)"/>
<path d="M36.4766 43.6088C36.4974 45.0105 34.6556 45.8045 32.3693 45.8306C30.0831 45.8567 28.2183 45.1041 28.1974 43.7023C28.1765 42.3006 30.0184 41.5067 32.3046 41.4806C34.5908 41.4545 36.4557 42.2071 36.4766 43.6088Z" fill="url(#paint4_linear_2190_19644)"/>
<ellipse cx="2.18017" cy="1.56959" rx="2.18017" ry="1.56959" transform="matrix(0.999935 -0.0114155 0.0148791 0.999889 29.8164 41.5161)" fill="#1F0C0E"/>
<path d="M32.297 41.1204C29.1757 41.0456 24.8835 43.7436 24.8835 43.7436C24.8835 43.7436 29.5165 46.3276 32.7865 46.1919C35.5461 46.0772 39.3774 43.9408 39.3774 43.9408C39.3774 43.9408 35.3334 41.1932 32.297 41.1204Z" stroke="url(#paint5_linear_2190_19644)"/>
<ellipse cx="31.0595" cy="42.1278" rx="0.413993" ry="0.362612" fill="#D9D9D9"/>
<path d="M17.3391 60.7651L11.499 61.8613L17.7562 64.0535H25.2649L30.2707 61.8613L24.4306 60.7651L21.0934 61.1305L17.3391 60.7651Z" fill="#BE675D"/>
<path d="M18.1793 43.5928C18.1793 43.5928 18.1227 45.4096 17.7621 46.5158C17.5213 47.2547 17.3272 47.6585 16.9278 48.3427C16.2898 49.4355 15.6015 49.8687 14.8421 50.9003C14.3274 51.5996 13.6635 51.8976 13.5907 52.7272C13.5391 53.3138 13.5205 53.7838 14.0078 54.1887C14.2721 54.4083 14.4887 54.4767 14.8421 54.5541C15.9023 54.7862 16.2522 53.4507 17.345 53.4579C18.2222 53.4637 18.6629 53.817 19.4307 54.1887C19.9448 54.4375 20.1035 54.8314 20.6822 54.9194C21.6181 55.0618 21.8813 54.122 22.7679 53.8233C23.3948 53.6121 23.7678 53.4025 24.4365 53.4579C25.1618 53.518 25.389 54.0711 26.1051 54.1887C26.5854 54.2676 26.9149 54.3719 27.3565 54.1887C27.8874 53.9684 28.0735 53.5966 28.1908 53.0925C28.325 52.5161 28.079 52.1551 27.7737 51.631C27.3549 50.9121 26.722 50.7691 26.1051 50.1695C25.4068 49.4908 24.8509 49.1811 24.4365 48.3427C24.1065 47.675 24.1633 47.2323 24.0194 46.5158C23.8198 45.5221 23.6022 43.9581 23.6022 43.9581" stroke="#B46F54"/>
<path d="M60.7242 39.9805L58.2213 43.9997V57.1532C58.2213 57.1532 59.8487 56.3778 60.7242 55.6917C62.6818 54.1576 63.2423 52.7625 64.0614 50.5764C64.7295 48.7932 66.9097 45.7853 66.9097 45.7853C66.9097 45.7853 68.4804 42.5975 67.3269 41.0354C66.3558 39.7203 64.2288 39.5048 63.2271 39.2498C62.2377 38.9979 60.7242 39.9805 60.7242 39.9805Z" fill="#EDB28A" stroke="#B46F54"/>
<path d="M8.0258 39.9805L10.5287 43.9997V57.1532C10.5287 57.1532 8.90126 56.3778 8.0258 55.6917C6.06821 54.1576 5.50765 52.7625 4.68861 50.5764C4.02051 48.7932 1.84027 45.7853 1.84027 45.7853C1.84027 45.7853 0.269586 42.5975 1.42312 41.0354C2.39421 39.7203 4.52125 39.5048 5.52291 39.2498C6.51228 38.9979 8.0258 39.9805 8.0258 39.9805Z" fill="#EDB28A" stroke="#B46F54"/>
<path d="M9.00293 46.5153V38.4771L10.6715 24.2274L17.3459 14.7276L36.1176 13.2661L55.3064 17.2852L60.3122 31.1695L59.4779 39.9386L58.2264 55.2843L56.1407 61.1304L51.9692 66.9764L36.9519 76.1108L21.5174 70.2648L10.6715 57.1112L9.00293 46.5153Z" fill="#EDB28A"/>
<path d="M9.83023 55.284L9.41309 49.438L11.0817 55.284L13.5846 60.0339L14.836 61.8608L16.9218 64.4184L19.0075 65.1492L19.8418 64.4184L20.2589 61.4954L21.9275 59.6685L24.4304 58.207L28.1848 57.1109L32.3562 56.0148L34.442 57.1109L36.5277 56.0148L38.6135 56.3801L45.705 58.9378L47.3736 60.0339L48.625 63.3223L49.0422 65.1492H51.1279L54.4651 61.4954L56.968 56.3801L59.0537 49.438L58.6366 55.284L57.3851 61.4954L56.1337 65.1492L53.6308 68.8029L48.625 73.1874L44.0364 76.8412L38.6135 80.4949L34.0248 81.5911L29.8533 80.4949L24.4304 76.8412L20.2589 73.1874L15.2532 68.8029L12.7503 65.1492L11.0817 61.4954L9.83023 55.284Z" fill="url(#paint6_linear_2190_19644)"/>
<path d="M41.829 39.8082L38.4206 40.1467C37.0895 40.2789 38.0419 42.8548 38.0419 42.8548C38.0419 42.8548 38.7346 42.8682 39.178 42.8548L39.1927 42.8544C40.3754 42.8187 41.0629 42.798 42.2078 42.5163C43.2937 42.2491 43.8437 41.9372 44.8588 41.5007C46.231 40.9107 46.8806 40.3706 48.2672 39.8082C49.4179 39.3414 50.0613 39.0294 51.2969 38.7926C52.0256 38.653 52.4454 38.5947 53.1905 38.581C54.0825 38.5646 54.6039 38.5768 55.4627 38.7926C56.4178 39.0326 57.735 39.8082 57.735 39.8082C57.735 39.8082 56.966 38.2701 56.2202 37.4385C55.6969 36.855 55.4506 36.4243 54.7053 36.0845C54.1621 35.8367 53.1905 35.7459 53.1905 35.7459C53.1905 35.7459 50.8005 35.3123 49.4033 35.7459C48.2015 36.119 47.8208 36.8212 46.7523 37.4385C44.9183 38.498 43.1601 39.676 41.829 39.8082Z" fill="url(#paint7_linear_2190_19644)"/>
<path d="M28.5889 39.8082L31.9974 40.1467C33.3284 40.2789 32.3761 42.8548 32.3761 42.8548C32.3761 42.8548 31.6834 42.8682 31.2399 42.8548L31.2253 42.8544C30.0426 42.8187 29.3551 42.798 28.2102 42.5163C27.1243 42.2491 26.5742 41.9372 25.5592 41.5007C24.187 40.9107 23.5374 40.3706 22.1508 39.8082C21.0001 39.3414 20.3566 39.0294 19.1211 38.7926C18.3924 38.653 17.9726 38.5947 17.2275 38.581C16.3355 38.5646 15.8141 38.5768 14.9552 38.7926C14.0001 39.0326 12.6829 39.8082 12.6829 39.8082C12.6829 39.8082 13.452 38.2701 14.1978 37.4385C14.7211 36.855 14.9674 36.4243 15.7127 36.0845C16.2558 35.8367 17.2275 35.7459 17.2275 35.7459C17.2275 35.7459 19.6175 35.3123 21.0146 35.7459C22.2165 36.119 22.5971 36.8212 23.6656 37.4385C25.4996 38.498 27.2579 39.676 28.5889 39.8082Z" fill="url(#paint8_linear_2190_19644)"/>
<path d="M21.0483 41.7876C24.2586 42.1541 28.0623 45.8967 28.0623 45.8967C28.0623 45.8967 22.7578 48.2125 19.4413 47.5809C16.6425 47.048 13.1879 44.0214 13.1879 44.0214C13.1879 44.0214 17.9253 41.4311 21.0483 41.7876Z" fill="white" stroke="url(#paint9_linear_2190_19644)"/>
<path d="M16.2364 44.0601C15.9093 45.678 17.6209 46.8633 19.9547 47.2252C22.2885 47.5872 24.3609 46.9875 24.6879 45.3697C25.015 43.7518 23.3034 42.5665 20.9696 42.2045C18.6359 41.8426 16.5634 42.4422 16.2364 44.0601Z" fill="url(#paint10_linear_2190_19644)"/>
<ellipse cx="2.25197" cy="1.84806" rx="2.25197" ry="1.84806" transform="matrix(-0.988186 -0.153257 -0.198146 0.980173 23.5039 42.605)" fill="#1F0C0E"/>
<path d="M21.0483 41.7876C24.2586 42.1541 28.0623 45.8967 28.0623 45.8967C28.0623 45.8967 22.7578 48.2125 19.4413 47.5809C16.6425 47.048 13.1879 44.0214 13.1879 44.0214C13.1879 44.0214 17.9253 41.4311 21.0483 41.7876Z" stroke="url(#paint11_linear_2190_19644)"/>
<ellipse cx="0.427618" cy="0.426955" rx="0.427618" ry="0.426955" transform="matrix(-0.990681 -0.140489 -0.18523 0.982089 22.5957 42.7729)" fill="#D9D9D9"/>
<path d="M48.647 41.7881C45.4367 42.1545 41.633 45.8972 41.633 45.8972C41.633 45.8972 46.9375 48.213 50.254 47.5814C53.0528 47.0485 56.5074 44.0219 56.5074 44.0219C56.5074 44.0219 51.77 41.4316 48.647 41.7881Z" fill="white" stroke="url(#paint12_linear_2190_19644)"/>
<path d="M53.457 44.0611C53.784 45.6789 52.0724 46.8643 49.7387 47.2262C47.4049 47.5882 45.3325 46.9885 45.0054 45.3706C44.6784 43.7528 46.3899 42.5674 48.7237 42.2055C51.0575 41.8435 53.1299 42.4432 53.457 44.0611Z" fill="url(#paint13_linear_2190_19644)"/>
<ellipse cx="2.25197" cy="1.84806" rx="2.25197" ry="1.84806" transform="matrix(0.988186 -0.153257 0.198146 0.980173 46.1914 42.606)" fill="#1F0C0E"/>
<path d="M48.647 41.7881C45.4367 42.1545 41.633 45.8972 41.633 45.8972C41.633 45.8972 46.9375 48.213 50.254 47.5814C53.0528 47.0485 56.5074 44.0219 56.5074 44.0219C56.5074 44.0219 51.77 41.4316 48.647 41.7881Z" stroke="url(#paint14_linear_2190_19644)"/>
<ellipse cx="0.427618" cy="0.426955" rx="0.427618" ry="0.426955" transform="matrix(0.990681 -0.140489 0.18523 0.982089 47.0996 42.7739)" fill="#D9D9D9"/>
<path d="M24.8447 66.6116C23.6922 65.6032 22.3418 63.6886 22.3418 63.6886C22.3418 63.6886 25.5331 62.0905 27.7647 61.4964C29.3543 61.0732 31.9362 60.7656 31.9362 60.7656C31.9362 60.7656 33.6703 61.4964 34.8562 61.4964C36.0422 61.4964 37.7763 60.7656 37.7763 60.7656C37.7763 60.7656 40.8881 61.5162 42.7821 62.2271C44.1213 62.7299 46.1192 63.6886 46.1192 63.6886L44.0335 66.6116C44.0335 66.6116 41.5183 69.5729 39.4449 69.1693C38.5176 68.9888 38.0308 68.6615 37.3591 68.0731C36.6875 67.4848 36.1077 66.2463 36.1077 66.2463H31.9362C31.9362 66.2463 31.6617 67.4815 31.1019 68.0731C30.4958 68.7137 29.9489 69.0119 29.0162 69.1693C27.0635 69.4987 26.2515 67.8426 24.8447 66.6116Z" fill="#EFB18A"/>
<path d="M30.6877 61.8613L24.8477 62.9575L31.1049 65.1497H38.6135L43.6193 62.9575L37.7793 61.8613L34.4421 62.2267L30.6877 61.8613Z" fill="#BE675D"/>
<path d="M31.5201 44.6895L31.103 47.6125L30.2687 49.4393C30.2687 49.4393 28.9423 50.9653 28.1829 51.997C27.6682 52.6962 27.0043 52.9943 26.9315 53.8239C26.88 54.4104 26.8613 54.8804 27.3486 55.2854C27.6129 55.505 27.8295 55.5733 28.1829 55.6507C29.2431 55.8829 29.593 54.5474 30.6858 54.5546C31.5631 54.5604 32.0037 54.9137 32.7715 55.2854C33.2856 55.5342 33.4443 55.9281 34.023 56.0161C34.9589 56.1585 35.2221 55.2187 36.1087 54.92C36.7356 54.7088 37.1086 54.4992 37.7773 54.5546C38.5026 54.6147 38.7299 55.1678 39.4459 55.2854C39.9263 55.3642 40.2557 55.4686 40.6974 55.2854C41.2282 55.0651 41.4143 54.6933 41.5317 54.1892C41.6658 53.6128 41.4198 53.2518 41.1145 52.7277C40.6957 52.0087 40.0629 51.8658 39.4459 51.2662C38.7476 50.5875 38.1917 50.2778 37.7773 49.4393C37.4474 48.7716 37.5041 48.329 37.3602 47.6125C37.1606 46.6188 36.943 45.0548 36.943 45.0548" stroke="#B46F54"/>
<path d="M9.41793 35.555L9.00078 44.324L6.91504 31.9012V23.1322L14.8409 13.9978L29.8582 9.61328L60.7272 19.4784L61.5615 26.7859L60.7272 37.3819L59.0586 46.1509V36.6511L55.7214 31.9012V23.4976L50.7156 18.0169H41.5383L29.441 21.3053L23.1838 23.4976L19.4295 23.1322L14.0066 21.3053L12.338 25.3244V32.9973L9.41793 35.555Z" fill="#3B1B0C"/>
<path d="M6.05273 28.6514C6.05273 13.291 18.5048 0.838867 33.8652 0.838867C49.2257 0.838867 61.6777 13.291 61.6777 28.6514V31.3536L44.4448 25.8684C37.8314 23.7634 30.7322 23.7327 24.1009 25.7804L6.05273 31.3536V28.6514Z" fill="url(#paint15_linear_2190_19644)"/>
<path d="M6.89554 29.9003L6.05273 30.6269C6.05273 30.6269 7.1642 34.4113 9.42395 34.8039C10.0692 34.916 10.4654 34.9208 11.1096 34.8039C12.2708 34.5931 12.6506 33.9183 13.638 33.3508C15.6128 32.2159 16.6133 31.4278 18.6948 30.4446C21.3481 29.1913 23.0039 28.7658 25.8586 27.9017C27.9706 27.2625 29.1142 26.6771 31.3368 26.4487C32.8075 26.2975 33.6493 26.4018 35.1294 26.4487C38.1079 26.543 39.8677 26.4148 42.7147 27.1752C44.6141 27.6825 45.5812 28.2085 47.3501 28.9915C50.6399 30.4478 52.0877 31.8601 55.3567 33.3508C56.3326 33.7958 56.799 34.6108 57.8851 34.4406C58.6947 34.3137 58.9766 33.8416 59.5707 33.3508C60.6416 32.4662 61.6777 30.6269 61.6777 30.6269C61.6777 30.6269 60.1538 27.9107 58.7279 26.4487C57.0737 24.7524 55.8361 24.0107 53.6711 22.8159C51.3769 21.5498 49.957 20.9542 47.3501 20.2731C44.488 19.5253 42.7414 19.6153 39.7649 19.3655C36.9756 19.1314 35.4018 18.9178 32.601 19.0022C28.9373 19.1127 26.8486 19.3854 23.3302 20.2731C18.3858 21.5204 15.4176 22.4438 11.531 25.3588C9.4635 26.9094 8.81526 28.2145 6.89554 29.9003Z" fill="url(#paint16_linear_2190_19644)"/>
<path d="M6.05273 30.6267C6.05273 30.6267 7.1642 34.4111 9.42395 34.8037C10.0692 34.9158 10.4654 34.9206 11.1096 34.8037C12.2708 34.5929 12.6506 33.9181 13.638 33.3506C15.6128 32.2157 16.6133 31.4276 18.6948 30.4444C21.3481 29.1911 23.0039 28.7656 25.8586 27.9016C27.9706 27.2623 29.1142 26.6769 31.3368 26.4485C32.8075 26.2973 33.6493 26.4016 35.1294 26.4485C38.1079 26.5428 39.8677 26.4147 42.7147 27.175C44.6141 27.6823 45.5812 28.2083 47.3501 28.9914C50.6399 30.4477 52.0877 31.86 55.3567 33.3506C56.3326 33.7956 56.799 34.6107 57.8851 34.4404C58.6947 34.3135 58.9766 33.8414 59.5707 33.3506C60.6416 32.466 61.6777 30.6267 61.6777 30.6267" stroke="#E01A20"/>
<rect x="28.8086" y="3.74512" width="10.1136" height="13.0777"/>
<defs>
<linearGradient id="paint0_linear_2190_19644" x1="9.56945" y1="40.388" x2="9.62747" y2="45.4704" gradientUnits="userSpaceOnUse">
<stop stop-color="#401801"/>
<stop offset="1" stop-color="#C58865"/>
</linearGradient>
<linearGradient id="paint1_linear_2190_19644" x1="9.77871" y1="40.3875" x2="9.83666" y2="45.4639" gradientUnits="userSpaceOnUse">
<stop offset="0.458657" stop-color="#332316"/>
<stop offset="1" stop-color="#82471F"/>
</linearGradient>
<linearGradient id="paint2_linear_2190_19644" x1="9.56945" y1="40.388" x2="9.62747" y2="45.4704" gradientUnits="userSpaceOnUse">
<stop stop-color="#401801"/>
<stop offset="1" stop-color="#C58865"/>
</linearGradient>
<linearGradient id="paint3_linear_2190_19644" x1="32.09" y1="41.1194" x2="32.148" y2="46.2018" gradientUnits="userSpaceOnUse">
<stop stop-color="#401801"/>
<stop offset="1" stop-color="#C58865"/>
</linearGradient>
<linearGradient id="paint4_linear_2190_19644" x1="32.2992" y1="41.118" x2="32.3572" y2="46.1943" gradientUnits="userSpaceOnUse">
<stop offset="0.458657" stop-color="#332316"/>
<stop offset="1" stop-color="#82471F"/>
</linearGradient>
<linearGradient id="paint5_linear_2190_19644" x1="32.09" y1="41.1194" x2="32.148" y2="46.2018" gradientUnits="userSpaceOnUse">
<stop stop-color="#401801"/>
<stop offset="1" stop-color="#C58865"/>
</linearGradient>
<linearGradient id="paint6_linear_2190_19644" x1="34.0248" y1="56.0148" x2="34.1848" y2="81.5914" gradientUnits="userSpaceOnUse">
<stop stop-color="#9F6448"/>
<stop offset="1" stop-color="#55321E"/>
</linearGradient>
<linearGradient id="paint7_linear_2190_19644" x1="47.7235" y1="35.5532" x2="69.4376" y2="45.8739" gradientUnits="userSpaceOnUse">
<stop stop-color="#5E2C11"/>
<stop offset="1" stop-color="#5E2C11" stop-opacity="0"/>
</linearGradient>
<linearGradient id="paint8_linear_2190_19644" x1="22.6945" y1="35.5532" x2="0.980386" y2="45.8739" gradientUnits="userSpaceOnUse">
<stop stop-color="#5E2C11"/>
<stop offset="1" stop-color="#5E2C11" stop-opacity="0"/>
</linearGradient>
<linearGradient id="paint9_linear_2190_19644" x1="21.2604" y1="41.8165" x2="20.3441" y2="47.7242" gradientUnits="userSpaceOnUse">
<stop stop-color="#401801"/>
<stop offset="1" stop-color="#C58865"/>
</linearGradient>
<linearGradient id="paint10_linear_2190_19644" x1="21.0542" y1="41.786" x2="20.1391" y2="47.6866" gradientUnits="userSpaceOnUse">
<stop offset="0.458657" stop-color="#332316"/>
<stop offset="1" stop-color="#82471F"/>
</linearGradient>
<linearGradient id="paint11_linear_2190_19644" x1="21.2604" y1="41.8165" x2="20.3441" y2="47.7242" gradientUnits="userSpaceOnUse">
<stop stop-color="#401801"/>
<stop offset="1" stop-color="#C58865"/>
</linearGradient>
<linearGradient id="paint12_linear_2190_19644" x1="48.435" y1="41.817" x2="49.3512" y2="47.7246" gradientUnits="userSpaceOnUse">
<stop stop-color="#401801"/>
<stop offset="1" stop-color="#C58865"/>
</linearGradient>
<linearGradient id="paint13_linear_2190_19644" x1="48.6391" y1="41.787" x2="49.5542" y2="47.6876" gradientUnits="userSpaceOnUse">
<stop offset="0.458657" stop-color="#332316"/>
<stop offset="1" stop-color="#82471F"/>
</linearGradient>
<linearGradient id="paint14_linear_2190_19644" x1="48.435" y1="41.817" x2="49.3512" y2="47.7246" gradientUnits="userSpaceOnUse">
<stop stop-color="#401801"/>
<stop offset="1" stop-color="#C58865"/>
</linearGradient>
<linearGradient id="paint15_linear_2190_19644" x1="33.8652" y1="0.838867" x2="33.8652" y2="32.3963" gradientUnits="userSpaceOnUse">
<stop stop-color="#1C2033"/>
<stop offset="1" stop-color="#2A324B"/>
</linearGradient>
<linearGradient id="paint16_linear_2190_19644" x1="33.6545" y1="18.2757" x2="33.6545" y2="34.804" gradientUnits="userSpaceOnUse">
<stop stop-color="#1E2336"/>
<stop offset="1" stop-color="#262D44"/>
</linearGradient>
</defs>
</svg>
