<svg width="80" height="80" viewBox="0 0 80 80" fill="none" xmlns="http://www.w3.org/2000/svg">
<rect width="80" height="80" rx="40" fill="#29C066"/>
<path fill-rule="evenodd" clip-rule="evenodd" d="M31.0863 31.904C31.0887 31.904 31.0303 31.9647 30.9568 32.037C30.6745 32.3112 30.09 32.8817 30.0841 34.0752C30.0748 35.7447 31.1727 38.8445 36.4588 44.1295C41.7205 49.3889 44.8157 50.4995 46.4887 50.4995H46.5132C47.7067 50.4937 48.276 49.908 48.5513 49.6269C48.6353 49.5405 48.703 49.4775 48.7508 49.4379C49.9128 48.2689 50.5078 47.3985 50.5021 46.8409C50.4938 46.2715 49.7857 45.5984 48.8068 44.6674C48.4953 44.371 48.157 44.049 47.8 43.692C46.8748 42.7692 46.4163 42.9267 45.4083 43.2814C44.0142 43.7702 42.1008 44.4352 39.1282 41.4614C36.1508 38.4864 36.817 36.5754 37.3047 35.1812C37.657 34.1732 37.818 33.7135 36.8917 32.7872C36.5288 32.4255 36.2033 32.0825 35.9035 31.7675C34.9783 30.7945 34.311 30.091 33.7452 30.0829H33.7358C33.177 30.0829 32.309 30.6802 31.0805 31.9087C31.084 31.9052 31.0863 31.904 31.0863 31.904ZM46.4898 52.2495C43.5825 52.2495 39.792 49.9349 35.2222 45.3674C30.6348 40.7812 28.3167 36.979 28.3341 34.0659C28.3447 32.1409 29.3538 31.155 29.733 30.7852C29.7528 30.7607 29.8205 30.6942 29.8438 30.6709C31.5168 28.9967 32.645 28.32 33.7673 28.3327C35.0705 28.3504 35.998 29.3257 37.1717 30.5612C37.4622 30.8669 37.7772 31.1994 38.1283 31.5494C39.8317 33.2527 39.3463 34.6422 38.9567 35.7575C38.532 36.9744 38.1645 38.0244 40.3648 40.2247C42.5675 42.425 43.6175 42.0575 44.8297 41.6294C45.9462 41.2397 47.3322 40.752 49.0378 42.4554C49.3832 42.8007 49.711 43.1122 50.0132 43.4004C51.2545 44.5799 52.2345 45.512 52.2511 46.8187C52.2648 47.9329 51.5882 49.068 49.9175 50.7399L49.1778 50.2382L49.8032 50.8495C49.4333 51.2287 48.4487 52.239 46.5225 52.2495H46.4898Z" fill="white"/>
</svg>
