<svg width="29" height="29" viewBox="0 0 29 29" fill="none" xmlns="http://www.w3.org/2000/svg">
<g filter="url(#filter0_i_2155_8906)">
<path d="M9.10986 28.5C7.40094 28.5 5.84977 28.0662 4.45634 27.1986C3.0892 26.331 1.99812 25.161 1.1831 23.6887C0.394366 22.1901 0 20.5207 0 18.6803C0 16.8136 0.394366 15.1441 1.1831 13.6718C1.99812 12.1732 3.0892 10.9901 4.45634 10.1225C5.84977 9.22864 7.40094 8.78169 9.10986 8.78169C10.5559 8.78169 11.831 9.09718 12.9352 9.72817C14.0657 10.3329 14.9596 11.1742 15.6169 12.2521C16.2742 13.33 16.6028 14.5526 16.6028 15.9197V21.362C16.6028 22.7291 16.2742 23.9516 15.6169 25.0296C14.9859 26.1075 14.1052 26.962 12.9747 27.593C11.8441 28.1977 10.5559 28.5 9.10986 28.5ZM9.81972 24.3986C11.4235 24.3986 12.7117 23.8596 13.6845 22.7817C14.6836 21.7038 15.1831 20.3235 15.1831 18.6408C15.1831 17.5103 14.9596 16.5113 14.5127 15.6437C14.0657 14.7761 13.4347 14.1056 12.6197 13.6324C11.831 13.1329 10.8977 12.8831 9.81972 12.8831C8.76808 12.8831 7.83474 13.1329 7.01972 13.6324C6.23099 14.1056 5.6 14.7761 5.12676 15.6437C4.67981 16.5113 4.45634 17.5103 4.45634 18.6408C4.45634 19.7714 4.67981 20.7704 5.12676 21.638C5.6 22.5056 6.23099 23.1892 7.01972 23.6887C7.83474 24.162 8.76808 24.3986 9.81972 24.3986ZM14.907 28.1056V23.0183L15.6563 18.4042L14.907 13.8296V9.17606H19.2451V28.1056H14.907Z" fill="black"/>
<path d="M24.0989 28.1056V9.17606H28.4369V28.1056H24.0989ZM26.2679 5.70563C25.5317 5.70563 24.9139 5.45587 24.4144 4.95634C23.9411 4.45681 23.7045 3.83897 23.7045 3.10282C23.7045 2.36667 23.9411 1.74883 24.4144 1.2493C24.9139 0.749765 25.5317 0.5 26.2679 0.5C27.0303 0.5 27.6482 0.749765 28.1214 1.2493C28.5946 1.74883 28.8313 2.36667 28.8313 3.10282C28.8313 3.83897 28.5946 4.45681 28.1214 4.95634C27.6482 5.45587 27.0303 5.70563 26.2679 5.70563Z" fill="black"/>
</g>
<defs>
<filter id="filter0_i_2155_8906" x="0" y="0.5" width="31.8312" height="31" filterUnits="userSpaceOnUse" color-interpolation-filters="sRGB">
<feFlood flood-opacity="0" result="BackgroundImageFix"/>
<feBlend mode="normal" in="SourceGraphic" in2="BackgroundImageFix" result="shape"/>
<feColorMatrix in="SourceAlpha" type="matrix" values="0 0 0 0 0 0 0 0 0 0 0 0 0 0 0 0 0 0 127 0" result="hardAlpha"/>
<feOffset dx="3" dy="4"/>
<feGaussianBlur stdDeviation="1.5"/>
<feComposite in2="hardAlpha" operator="arithmetic" k2="-1" k3="1"/>
<feColorMatrix type="matrix" values="0 0 0 0 0 0 0 0 0 0 0 0 0 0 0 0 0 0 0.43 0"/>
<feBlend mode="normal" in2="shape" result="effect1_innerShadow_2155_8906"/>
</filter>
</defs>
</svg>
