<svg width="35" height="34" viewBox="0 0 35 34" fill="none" xmlns="http://www.w3.org/2000/svg">
<path d="M11.062 34C8.98685 34 7.10329 33.4732 5.41127 32.4197C3.75117 31.3662 2.42629 29.9455 1.43662 28.1577C0.478873 26.338 0 24.3108 0 22.0761C0 19.8094 0.478873 17.7822 1.43662 15.9944C2.42629 14.1746 3.75117 12.738 5.41127 11.6845C7.10329 10.5991 8.98685 10.0563 11.062 10.0563C12.8178 10.0563 14.3662 10.4394 15.707 11.2056C17.0798 11.9399 18.1653 12.9615 18.9634 14.2704C19.7615 15.5793 20.1606 17.0638 20.1606 18.7239V25.3324C20.1606 26.9925 19.7615 28.477 18.9634 29.7859C18.1972 31.0948 17.1277 32.1324 15.7549 32.8986C14.3822 33.6329 12.8178 34 11.062 34ZM11.9239 29.0197C13.8714 29.0197 15.4357 28.3653 16.6169 27.0563C17.83 25.7474 18.4366 24.0714 18.4366 22.0282C18.4366 20.6554 18.1653 19.4423 17.6225 18.3887C17.0798 17.3352 16.3136 16.5211 15.3239 15.9465C14.3662 15.3399 13.2329 15.0366 11.9239 15.0366C10.6469 15.0366 9.51362 15.3399 8.52394 15.9465C7.5662 16.5211 6.8 17.3352 6.22535 18.3887C5.68263 19.4423 5.41127 20.6554 5.41127 22.0282C5.41127 23.4009 5.68263 24.6141 6.22535 25.6676C6.8 26.7211 7.5662 27.5512 8.52394 28.1577C9.51362 28.7324 10.6469 29.0197 11.9239 29.0197ZM18.1014 33.5211V27.3437L19.0113 21.7408L18.1014 16.1859V10.5352H23.369V33.5211H18.1014Z" fill="white"/>
<path d="M29.2629 33.5211V10.5352H34.5305V33.5211H29.2629ZM31.8967 6.32113C31.0028 6.32113 30.2526 6.01784 29.646 5.41127C29.0713 4.8047 28.784 4.05446 28.784 3.16057C28.784 2.26667 29.0713 1.51643 29.646 0.909859C30.2526 0.303286 31.0028 0 31.8967 0C32.8225 0 33.5728 0.303286 34.1474 0.909859C34.722 1.51643 35.0094 2.26667 35.0094 3.16057C35.0094 4.05446 34.722 4.8047 34.1474 5.41127C33.5728 6.01784 32.8225 6.32113 31.8967 6.32113Z" fill="white"/>
</svg>
