<svg width="19" height="22" viewBox="0 0 19 22" fill="none" xmlns="http://www.w3.org/2000/svg">
<g opacity="0.4">
<path d="M9.31287 19.5343C6.98284 19.5343 4.65284 19.1643 2.44284 18.4243C1.60284 18.1343 0.962838 17.5443 0.682838 16.7743C0.392838 16.0043 0.492838 15.1543 0.952838 14.3943L2.10284 12.4843C2.34284 12.0843 2.56284 11.2843 2.56284 10.8143V7.92432C2.56284 4.20432 5.59284 1.17432 9.31287 1.17432C13.0329 1.17432 16.0629 4.20432 16.0629 7.92432V10.8143C16.0629 11.2743 16.2829 12.0843 16.5229 12.4943L17.6629 14.3943C18.0929 15.1143 18.1729 15.9843 17.8829 16.7743C17.5929 17.5643 16.9629 18.1643 16.1729 18.4243C13.9729 19.1643 11.6429 19.5343 9.31287 19.5343ZM9.31287 2.67432C6.42284 2.67432 4.06284 5.02432 4.06284 7.92432V10.8143C4.06284 11.5443 3.76284 12.6243 3.39284 13.2543L2.24284 15.1643C2.02284 15.5343 1.96284 15.9243 2.09284 16.2543C2.21284 16.5943 2.51284 16.8543 2.92284 16.9943C7.10284 18.3943 11.5329 18.3943 15.7129 16.9943C16.0729 16.8743 16.3529 16.6043 16.4829 16.2443C16.6129 15.8843 16.5829 15.4943 16.3829 15.1643L15.2329 13.2543C14.8529 12.6043 14.5629 11.5343 14.5629 10.8043V7.92432C14.5629 5.02432 12.2129 2.67432 9.31287 2.67432Z" fill="black"/>
<path d="M11.1726 2.94506C11.1026 2.94506 11.0326 2.93506 10.9626 2.91506C10.6726 2.83506 10.3926 2.77506 10.1226 2.73506C9.27256 2.62506 8.45256 2.68506 7.68256 2.91506C7.40256 3.00506 7.10259 2.91506 6.91259 2.70506C6.72259 2.49506 6.66259 2.19506 6.77259 1.92506C7.18259 0.875059 8.18256 0.185059 9.32256 0.185059C10.4626 0.185059 11.4626 0.865059 11.8726 1.92506C11.9726 2.19506 11.9226 2.49506 11.7326 2.70506C11.5826 2.86506 11.3726 2.94506 11.1726 2.94506Z" fill="black"/>
<path d="M9.31247 21.8149C8.32247 21.8149 7.36247 21.4149 6.6625 20.7149C5.9625 20.0149 5.5625 19.0549 5.5625 18.0649H7.0625C7.0625 18.6549 7.30247 19.2349 7.72247 19.6549C8.14247 20.0749 8.72247 20.3149 9.31247 20.3149C10.5525 20.3149 11.5625 19.3049 11.5625 18.0649H13.0625C13.0625 20.1349 11.3825 21.8149 9.31247 21.8149Z" fill="black"/>
</g>
</svg>
