<svg width="40" height="41" viewBox="0 0 40 41" fill="none" xmlns="http://www.w3.org/2000/svg">
<circle cx="20" cy="20.4277" r="20" fill="black" fill-opacity="0.1"/>
<path d="M15.605 27.2051C16.5764 27.2051 18.1735 27.1158 20.3335 26.718C19.96 27.7337 18.9864 28.4615 17.8428 28.4615C16.8921 28.4615 16.0592 27.958 15.5892 27.2051H15.605ZM27.8021 21.6637C27.9785 22.5722 27.3414 23.3758 25.9071 24.0537C25.1214 24.4244 23.3743 25.1301 20.4885 25.6915C18.2628 26.1237 16.6321 26.223 15.6057 26.223C15.3007 26.223 15.0485 26.2144 14.85 26.203C13.2671 26.1122 12.3742 25.6051 12.1978 24.6965C11.93 23.3201 12.3535 22.7887 13.0557 21.9087L13.2407 21.6765C13.7142 21.0758 13.8992 20.4858 13.5964 18.9294C12.9185 15.4437 14.4885 13.0615 17.9028 12.3944C21.3185 11.7351 23.6671 13.3537 24.345 16.8401C24.6471 18.3965 25.04 18.8737 25.7043 19.253V19.2537L25.9628 19.4001C26.9428 19.953 27.5343 20.2865 27.8021 21.6637Z" fill="black"/>
</svg>
