<svg width="36" height="30" viewBox="0 0 36 30" fill="none" xmlns="http://www.w3.org/2000/svg">
<path d="M6.52994 0.861876C5.9644 1.06924 5.45541 1.2389 5.4177 1.2389C5.38 1.2389 5.39885 1.44627 5.43655 1.71019C5.49311 1.97411 5.45541 2.18148 5.38 2.18148C5.28574 2.18148 5.21034 2.36999 5.21034 2.57736C5.21034 2.89783 5.28574 2.95439 5.64392 2.84128C5.87014 2.78472 6.36028 2.69047 6.71845 2.63391C7.34055 2.55851 7.3594 2.57736 7.02008 2.84128C6.81271 2.99209 6.41683 3.12405 6.11521 3.12405C5.73818 3.12405 5.58737 3.21831 5.58737 3.44452C5.56852 3.85926 5.15378 4.44365 4.85216 4.44365C4.53169 4.44365 4.60709 4.63217 5.09723 5.02805C5.75703 5.53704 5.87014 6.23454 5.38 6.72468C5.00297 7.10171 4.77675 7.12056 4.04155 6.80008C3.77763 6.68698 3.70222 6.76238 3.70222 7.10171C3.70222 8.3082 3.57026 8.68523 3.17438 8.74178C2.91046 8.77949 2.75965 8.94915 2.75965 9.17537C2.75965 9.5901 2.7408 9.60895 2.09985 9.30733C1.83593 9.19422 1.62856 8.98685 1.62856 8.83604C1.62856 8.51557 1.4212 8.51557 0.912206 8.8926C0.478623 9.19422 0.403217 9.75976 0.610583 11.0982C0.70484 11.5506 0.8368 11.7957 1.04417 11.8146C1.23268 11.8146 1.25153 11.8523 1.11957 11.9277C0.817949 12.0408 0.799097 12.5498 1.08187 12.5498C1.19498 12.5498 1.21383 12.6629 1.11957 12.776C0.987612 13.0022 1.02531 14.0767 1.17613 14.2276C1.21383 14.2653 1.36464 14.1899 1.51545 14.0767C1.66626 13.9448 1.83593 13.9259 1.89248 14.0202C1.94904 14.1333 1.87363 14.2653 1.70397 14.3218C1.51545 14.3972 1.4589 14.5669 1.5343 14.812C1.60971 15.0382 1.57201 15.189 1.44005 15.189C1.28924 15.189 1.25153 15.3398 1.34579 15.6037C1.4212 15.8488 1.4589 16.2635 1.4589 16.5463C1.44005 16.8291 1.5343 17.1118 1.62856 17.1684C1.74167 17.2438 1.77937 17.4512 1.72282 17.6397C1.66626 17.847 1.74167 18.2618 1.93018 18.6011C2.09985 18.9404 2.30721 19.8076 2.40147 20.5428C2.51458 21.278 2.89161 23.182 3.24979 24.7655C3.98499 27.9514 4.49398 29.0637 5.11608 28.7055C5.36115 28.5735 5.49311 28.5735 5.53081 28.7055C5.56852 28.8186 5.71933 29.0637 5.87014 29.2522C6.15291 29.5915 6.17176 29.5915 6.51109 29.1956C6.71845 28.9505 7.00123 28.762 7.17089 28.762C7.34055 28.762 7.47251 28.6112 7.47251 28.4039C7.47251 28.1965 7.62332 27.7818 7.79299 27.4801C8.09461 26.9523 8.09461 26.8957 7.73643 26.2925L7.3594 25.6515L7.86839 25.218C8.20772 24.954 8.43394 24.8598 8.50934 24.9917C8.58475 25.1237 8.99948 24.8221 9.54617 24.2565C10.3568 23.4082 10.4699 23.3517 10.7338 23.6344C10.9977 23.8795 11.1297 23.8984 11.7706 23.691C12.1854 23.559 12.6944 23.5025 12.9206 23.5779C13.2976 23.691 13.3165 23.6344 13.3165 22.541V21.3723L13.9386 21.5042C14.259 21.5796 14.6172 21.7116 14.7115 21.8058C14.9565 22.0321 16.6532 22.0321 16.7851 21.8058C16.8417 21.7116 16.7663 21.5419 16.6155 21.41C16.0311 20.9198 16.3893 19.9395 17.1056 20.0527C17.4826 20.1092 18.5195 19.1666 18.6137 18.6954C18.6891 18.3372 18.953 18.1298 19.594 17.9413C19.7825 17.8847 19.9145 17.6585 19.9145 17.3757C19.9145 16.7914 20.2161 16.584 20.3481 17.0741C20.4612 17.5266 21.2341 17.602 21.2341 17.1495C21.2341 16.9799 21.4414 16.6782 21.7054 16.4709C21.9693 16.2635 22.1766 15.9996 22.1766 15.8676C22.1766 15.7357 22.3463 15.4718 22.5537 15.2832L22.9496 14.9251L22.4594 14.68C21.9504 14.4161 21.8562 14.1522 22.1955 13.9636C22.2898 13.8882 22.4783 13.6243 22.5725 13.3604C22.6668 13.0965 22.8553 12.9268 22.9873 12.9834C23.8733 13.3415 23.8733 13.3415 23.8733 12.9645C23.8733 12.7383 24.0429 12.5309 24.2503 12.4555C24.665 12.3236 24.7404 12.0785 24.4388 11.89C24.3069 11.8146 24.3069 11.6638 24.4388 11.4187C24.5331 11.2302 24.6273 10.8343 24.6273 10.5515C24.6273 10.1368 24.6839 10.0802 24.8536 10.2499C24.9855 10.3819 25.2494 10.4761 25.4757 10.4761C25.7019 10.4761 25.9658 10.5704 26.0789 10.6835C26.192 10.7966 26.4936 11.004 26.7387 11.1171C26.9649 11.2302 27.1911 11.5129 27.2288 11.7392C27.3231 12.3613 28.3976 12.4744 28.3976 11.8711C28.3976 11.5695 28.8878 11.5129 29.0574 11.7957C29.1705 11.9842 29.6984 11.9465 30.3205 11.7015C30.509 11.6261 30.8295 11.7015 31.0745 11.8711C31.4516 12.135 31.5081 12.3424 31.527 13.5866C31.5458 14.3972 31.6589 15.1136 31.7909 15.2832C32.0737 15.6226 33.1105 15.6603 33.1293 15.3209C33.1293 15.2078 33.167 14.7177 33.2048 14.2653C33.2802 13.2473 34.0342 12.3424 34.5055 12.7194C34.7129 12.8891 34.8825 12.908 35.1842 12.7383C35.712 12.4555 35.6177 11.7203 35.0522 11.6449C34.7883 11.6072 34.6752 11.4941 34.7506 11.3056C34.8071 11.1359 34.6563 10.9474 34.317 10.7966C33.808 10.5704 33.4875 10.0991 33.8457 10.0991C34.1473 10.0991 34.2227 9.32618 33.94 9.21307C33.5629 9.08111 33.6195 8.72293 34.0531 8.44016C34.5243 8.13854 34.6186 6.59272 34.1473 6.78123C33.9965 6.83779 33.8645 6.85664 33.8645 6.83779C33.8645 6.81894 33.94 6.51731 34.0342 6.19684C34.1473 5.81981 34.1473 5.53704 34.0342 5.48048C33.7326 5.27312 33.8457 4.57561 34.2981 4.10433C34.6375 3.7273 34.6563 3.61419 34.4301 3.53878C34.2793 3.48223 33.8645 3.16175 33.5064 2.80358C32.8277 2.14377 32.6392 2.06837 32.4507 2.36999C32.2999 2.61506 30.1885 2.50195 29.4722 2.20033C28.6993 1.89871 28.3976 1.93641 27.4551 2.4831C26.7953 2.86013 26.4748 2.93554 25.9469 2.84128C25.5888 2.76587 25.2306 2.61506 25.1552 2.50195C25.0609 2.33229 24.6839 2.46425 23.911 2.87898C22.6668 3.57648 21.4414 3.70844 21.0267 3.19946C20.8382 2.95439 20.8382 2.87898 21.0267 2.74702C21.1964 2.65276 21.2341 2.42655 21.1587 2.10607C21.0267 1.55938 20.5743 1.48397 19.5186 1.8233C18.7457 2.08722 17.2376 3.48223 17.3507 3.82155C17.4449 4.04777 16.2196 4.82068 15.7672 4.82068C15.6729 4.82068 15.4278 4.50021 15.2582 4.10433L14.9188 3.40682L13.1279 3.29371C11.1862 3.16175 10.7715 3.04865 10.6019 2.63391C10.5453 2.46425 10.2248 2.36999 9.79124 2.36999C8.82982 2.36999 8.22657 1.93641 8.22657 1.25776C8.22657 0.937281 8.09461 0.673361 7.92495 0.597956C7.75528 0.541401 7.62332 0.484846 7.60447 0.503698C7.58562 0.503698 7.09548 0.673361 6.52994 0.861876Z" fill="black"/>
</svg>
