<svg width="56" height="53" viewBox="0 0 56 53" fill="none" xmlns="http://www.w3.org/2000/svg">
<path d="M26.7532 52.9128L21.8635 41.8579L26.2608 30.1594L19.1233 18.3713L26.3429 7.15563C23.7339 3.38128 19.5663 0.930664 14.89 0.930664C6.94843 0.930664 0.5 7.96057 0.5 16.6183C0.5 35.7224 26.7532 52.9128 26.7532 52.9128Z" fill="url(#paint0_radial_2190_19701)"/>
<path opacity="0.32" d="M26.7525 52.9127L21.8629 41.8582L22.0434 41.3573C17.7609 40.1765 12.9697 37.5113 6.66895 33.6118C14.43 44.8455 26.7525 52.9127 26.7525 52.9127Z" fill="url(#paint1_linear_2190_19701)"/>
<path opacity="0.32" d="M23.4549 45.471C21.4202 45.7036 19.2872 45.6323 17.0557 45.2388C22.2899 49.9966 26.753 52.9304 26.753 52.9304L23.4549 45.471Z" fill="url(#paint2_linear_2190_19701)"/>
<path opacity="0.5" d="M26.7532 52.9128L21.8635 41.8579L26.2608 30.1594L19.1233 18.3713L26.3429 7.15563C23.7339 3.38128 19.5663 0.930664 14.89 0.930664C6.94843 0.930664 0.5 7.96057 0.5 16.6183C0.5 35.7224 26.7532 52.9128 26.7532 52.9128Z" fill="url(#paint3_radial_2190_19701)"/>
<path opacity="0.5" d="M26.7532 52.9128L21.8635 41.8579L26.2608 30.1594L19.1233 18.3713L26.3429 7.15563C23.7339 3.38128 19.5663 0.930664 14.89 0.930664C6.94843 0.930664 0.5 7.96057 0.5 16.6183C0.5 35.7224 26.7532 52.9128 26.7532 52.9128Z" fill="url(#paint4_radial_2190_19701)"/>
<path opacity="0.24" d="M23.1594 7.29955C24.6032 11.0023 21.4037 16.0288 16.0054 18.5152C10.6071 21.0017 5.07758 20.0357 3.63365 16.3508C2.18975 12.6659 5.38933 7.62154 10.7876 5.13512C16.1859 2.64873 21.7155 3.59676 23.1594 7.29955Z" fill="url(#paint5_radial_2190_19701)"/>
<path d="M26.3591 7.15479L21.6663 18.3168L19.123 18.3704L26.3591 7.15479Z" fill="url(#paint6_radial_2190_19701)"/>
<path d="M21.6663 18.3174L27.6552 30.0877L26.2769 30.1591L19.123 18.3711L21.6663 18.3174Z" fill="url(#paint7_radial_2190_19701)"/>
<path d="M27.6554 30.0884L24.2097 41.9303L21.8633 41.8586L26.2771 30.1601L27.6554 30.0884Z" fill="url(#paint8_radial_2190_19701)"/>
<path d="M24.2097 41.9293L21.8633 41.8579L26.7529 52.9125L24.2097 41.9293Z" fill="url(#paint9_radial_2190_19701)"/>
<path d="M41.0777 0.930664C38.3045 0.930664 35.7121 1.78926 33.5298 3.27397C33.415 3.3634 33.2838 3.43496 33.1689 3.5244C32.0858 4.29356 31.1178 5.22372 30.2645 6.27912C29.8871 6.7442 29.5426 7.24506 29.2144 7.74592L24.8828 18.3534L32.8407 30.1415L26.8024 41.84L29.2307 52.895C29.2307 52.895 55.4839 35.7045 55.4839 16.5825C55.4676 7.96057 49.0192 0.930664 41.0777 0.930664Z" fill="url(#paint10_radial_2190_19701)"/>
<path opacity="0.24" d="M43.2104 4.31118C45.2612 6.7797 43.9977 11.6631 40.4044 15.2049C36.8111 18.7467 32.2332 19.6232 30.1821 17.1547C28.1311 14.6861 29.3781 9.80276 32.9881 6.26096C36.5978 2.71917 41.1593 1.84266 43.2104 4.31118Z" fill="url(#paint11_radial_2190_19701)"/>
<path opacity="0.5" d="M47.0338 2.32617C54.9098 16.0103 47.6574 33.9697 38.9446 39.0678C34.5801 41.6256 30.8389 42.4664 26.7861 41.8582L29.2145 52.9131C29.2145 52.9131 55.4677 35.7227 55.4677 16.6007C55.4677 10.2684 52.0056 4.79469 47.0338 2.32617Z" fill="url(#paint12_radial_2190_19701)"/>
<path opacity="0.5" d="M41.0777 0.930664C36.1552 0.930664 31.807 3.63171 29.2144 7.74592L24.8828 18.3534L30.1826 26.206L32.8407 30.1415L26.8024 41.84L28.0167 47.3673L29.2307 52.895C29.2307 52.895 55.4839 35.7045 55.4839 16.5825C55.4676 7.96057 49.0192 0.930664 41.0777 0.930664Z" fill="url(#paint13_radial_2190_19701)"/>
<path opacity="0.5" d="M41.0777 0.930664C38.3045 0.930664 35.7121 1.78926 33.5298 3.27397C33.415 3.3634 33.2838 3.43496 33.1689 3.5244C32.0858 4.29356 31.1178 5.22372 30.2645 6.27912C29.8871 6.7442 29.5426 7.24506 29.2144 7.74592L24.8828 18.3534L32.8407 30.1415L26.8024 41.84L29.2307 52.895C29.2307 52.895 55.4839 35.7045 55.4839 16.5825C55.4676 7.96057 49.0192 0.930664 41.0777 0.930664Z" fill="url(#paint14_radial_2190_19701)"/>
<path opacity="0.5" d="M41.0769 0.930664C38.3037 0.930664 35.7114 1.78926 33.5291 3.27397C33.4142 3.3634 33.283 3.43496 33.1682 3.5244C32.1508 4.25778 31.232 5.11641 30.428 6.10022C30.0013 6.61899 29.5912 7.1735 29.23 7.7638L24.8984 18.3713L32.8563 30.1594L26.818 41.8579L29.2466 52.9128C29.2466 52.9128 55.4996 35.7224 55.4996 16.6004C55.4668 7.96057 49.0185 0.930664 41.0769 0.930664Z" fill="url(#paint15_radial_2190_19701)"/>
<path opacity="0.32" d="M41.0776 0.930664C36.1551 0.930664 31.8069 3.63171 29.2145 7.74592C29.2145 7.74592 36.0566 3.11297 41.34 5.08063C48.5597 7.7638 55.4511 19.3909 43.8011 33.8801C38.8623 40.0157 33.6119 44.0047 27.5244 45.203L29.2145 52.9128C29.2145 52.9128 55.4675 35.7224 55.4675 16.6004C55.4675 7.96057 49.0191 0.930664 41.0776 0.930664Z" fill="url(#paint16_linear_2190_19701)"/>
<defs>
<radialGradient id="paint0_radial_2190_19701" cx="0" cy="0" r="1" gradientUnits="userSpaceOnUse" gradientTransform="translate(9.87178 15.4342) rotate(-31.5701) scale(33.3877 27.6182)">
<stop offset="0.2479" stop-color="#FF0000"/>
<stop offset="0.8639" stop-color="#C20000"/>
</radialGradient>
<linearGradient id="paint1_linear_2190_19701" x1="6.90816" y1="43.2721" x2="49.4058" y2="43.2721" gradientUnits="userSpaceOnUse">
<stop stop-color="#860805"/>
<stop offset="1" stop-color="#BD2719" stop-opacity="0"/>
</linearGradient>
<linearGradient id="paint2_linear_2190_19701" x1="15.8019" y1="74.9548" x2="47.0282" y2="-36.4361" gradientUnits="userSpaceOnUse">
<stop stop-color="#860805"/>
<stop offset="1" stop-color="#BD2719" stop-opacity="0"/>
</linearGradient>
<radialGradient id="paint3_radial_2190_19701" cx="0" cy="0" r="1" gradientUnits="userSpaceOnUse" gradientTransform="translate(19.2324 15.3093) scale(43.7066 47.648)">
<stop stop-color="white" stop-opacity="0.25"/>
<stop offset="1" stop-color="white" stop-opacity="0"/>
</radialGradient>
<radialGradient id="paint4_radial_2190_19701" cx="0" cy="0" r="1" gradientUnits="userSpaceOnUse" gradientTransform="translate(33.9381 32.8737) rotate(-28.9764) scale(23.7223 12.3019)">
<stop stop-color="#BD2719" stop-opacity="0.25"/>
<stop offset="1" stop-color="#BD2719" stop-opacity="0"/>
</radialGradient>
<radialGradient id="paint5_radial_2190_19701" cx="0" cy="0" r="1" gradientUnits="userSpaceOnUse" gradientTransform="translate(13.3933 11.8251) rotate(-23.4431) scale(10.7966 7.12796)">
<stop stop-color="white"/>
<stop offset="1" stop-color="white" stop-opacity="0"/>
</radialGradient>
<radialGradient id="paint6_radial_2190_19701" cx="0" cy="0" r="1" gradientUnits="userSpaceOnUse" gradientTransform="translate(9.42122 21.7669) scale(25.0291 27.2862)">
<stop stop-color="#4F0940"/>
<stop offset="0.8639" stop-color="#C20000"/>
</radialGradient>
<radialGradient id="paint7_radial_2190_19701" cx="0" cy="0" r="1" gradientUnits="userSpaceOnUse" gradientTransform="translate(30.506 15.9821) scale(13.4321 14.6434)">
<stop stop-color="#FF0000"/>
<stop offset="0.8639" stop-color="#BD2719"/>
</radialGradient>
<radialGradient id="paint8_radial_2190_19701" cx="0" cy="0" r="1" gradientUnits="userSpaceOnUse" gradientTransform="translate(26.5677 23.8254) scale(20.8331 22.7118)">
<stop stop-color="#4F0940"/>
<stop offset="0.8639" stop-color="#C20000"/>
</radialGradient>
<radialGradient id="paint9_radial_2190_19701" cx="0" cy="0" r="1" gradientUnits="userSpaceOnUse" gradientTransform="translate(16.3127 31.4269) scale(22.5856 24.6223)">
<stop stop-color="#4F0940"/>
<stop offset="1" stop-color="#C20000"/>
</radialGradient>
<radialGradient id="paint10_radial_2190_19701" cx="0" cy="0" r="1" gradientUnits="userSpaceOnUse" gradientTransform="translate(23.1022 18.691) rotate(-28.7827) scale(39.7682 33.126)">
<stop offset="0.2479" stop-color="#FF0000"/>
<stop offset="0.8639" stop-color="#C20000"/>
</radialGradient>
<radialGradient id="paint11_radial_2190_19701" cx="0" cy="0" r="1" gradientUnits="userSpaceOnUse" gradientTransform="translate(36.6744 10.7417) rotate(-43.2226) scale(9.17387 5.75085)">
<stop stop-color="white"/>
<stop offset="1" stop-color="white" stop-opacity="0"/>
</radialGradient>
<radialGradient id="paint12_radial_2190_19701" cx="0" cy="0" r="1" gradientUnits="userSpaceOnUse" gradientTransform="translate(20.1988 14.9354) rotate(-43.6024) scale(41.2395 29.3858)">
<stop offset="0.2479" stop-color="#FF0000"/>
<stop offset="1" stop-color="#C20000"/>
</radialGradient>
<radialGradient id="paint13_radial_2190_19701" cx="0" cy="0" r="1" gradientUnits="userSpaceOnUse" gradientTransform="translate(20.5359 13.2893) rotate(-31.5701) scale(34.5289 14.993)">
<stop stop-color="white" stop-opacity="0.25"/>
<stop offset="1" stop-color="white" stop-opacity="0"/>
</radialGradient>
<radialGradient id="paint14_radial_2190_19701" cx="0" cy="0" r="1" gradientUnits="userSpaceOnUse" gradientTransform="translate(37.2613 30.1027) rotate(-28.3116) scale(25.4366 13.2139)">
<stop stop-color="#BD2719" stop-opacity="0.25"/>
<stop offset="1" stop-color="#BD2719" stop-opacity="0"/>
</radialGradient>
<radialGradient id="paint15_radial_2190_19701" cx="0" cy="0" r="1" gradientUnits="userSpaceOnUse" gradientTransform="translate(39.7216 30.9075) rotate(-28.3116) scale(25.4366 13.2139)">
<stop stop-color="#BD2719" stop-opacity="0.25"/>
<stop offset="1" stop-color="#BD2719" stop-opacity="0"/>
</radialGradient>
<linearGradient id="paint16_linear_2190_19701" x1="40.4094" y1="73.6656" x2="42.7488" y2="-3.59468" gradientUnits="userSpaceOnUse">
<stop stop-color="#860805"/>
<stop offset="1" stop-color="#BD2719" stop-opacity="0"/>
</linearGradient>
</defs>
</svg>
