<svg width="24" height="27" viewBox="0 0 24 27" fill="none" xmlns="http://www.w3.org/2000/svg">
<path d="M5.29675 0.96855L4.05279 3.09743C3.86064 3.42612 3.7595 3.80537 3.7595 4.18968V4.33127C3.7595 5.44881 4.66465 6.35396 5.78219 6.35396C6.89973 6.35396 7.80488 5.44881 7.80488 4.33127V4.18968C7.80488 3.80537 7.70375 3.43118 7.51159 3.09743L6.26764 0.96855C6.1665 0.796621 5.98446 0.69043 5.78219 0.69043C5.57992 0.69043 5.39788 0.796621 5.29675 0.96855ZM11.7694 0.96855L10.5254 3.09743C10.3332 3.42612 10.2321 3.80537 10.2321 4.18968V4.33127C10.2321 5.44881 11.1373 6.35396 12.2548 6.35396C13.3723 6.35396 14.2775 5.44881 14.2775 4.33127V4.18968C14.2775 3.80537 14.1764 3.43118 13.9842 3.09743L12.7402 0.96855C12.6391 0.796621 12.4571 0.69043 12.2548 0.69043C12.0525 0.69043 11.8705 0.796621 11.7694 0.96855ZM16.998 3.09743C16.8059 3.42612 16.7047 3.80537 16.7047 4.18968V4.33127C16.7047 5.44881 17.6099 6.35396 18.7274 6.35396C19.8449 6.35396 20.7501 5.44881 20.7501 4.33127V4.18968C20.7501 3.80537 20.649 3.43118 20.4568 3.09743L19.2129 0.96855C19.1117 0.796621 18.9297 0.69043 18.7274 0.69043C18.5251 0.69043 18.3431 0.796621 18.242 0.96855L16.998 3.09743ZM7.40034 9.59027C7.40034 8.69523 6.67723 7.97212 5.78219 7.97212C4.88715 7.97212 4.16404 8.69523 4.16404 9.59027V12.0175C2.37901 12.0175 0.927734 13.4688 0.927734 15.2538V18.8441C1.34744 19.107 1.843 19.2992 2.38407 19.2992C3.06673 19.2992 3.7595 18.9907 4.32585 18.6216C4.59892 18.4446 4.82647 18.2626 4.98323 18.1311C5.05908 18.0653 5.11976 18.0097 5.16021 17.9743C5.18044 17.9541 5.19561 17.944 5.20067 17.9339L5.20572 17.9288C5.36248 17.767 5.57992 17.681 5.80748 17.6861C6.03503 17.6911 6.24235 17.7923 6.39406 17.9592L6.39911 17.9642C6.40417 17.9693 6.41934 17.9844 6.43451 17.9996C6.46991 18.035 6.52047 18.0856 6.59127 18.1513C6.73286 18.2828 6.93513 18.4598 7.18796 18.6317C7.70375 18.9907 8.35101 19.2941 9.02355 19.2941C9.6961 19.2941 10.3434 18.9907 10.8591 18.6317C11.112 18.4547 11.3142 18.2828 11.4558 18.1513C11.5266 18.0856 11.5772 18.035 11.6126 17.9996C11.6278 17.9844 11.6429 17.9693 11.648 17.9642L11.6531 17.9592C11.8048 17.7822 12.0272 17.6861 12.2599 17.6861C12.4925 17.6861 12.715 17.7872 12.8667 17.9592L12.8717 17.9642C12.8768 17.9693 12.8919 17.9844 12.9071 17.9996C12.9425 18.035 12.9931 18.0856 13.0639 18.1513C13.2055 18.2828 13.4077 18.4598 13.6606 18.6317C14.1764 18.9907 14.8236 19.2941 15.4962 19.2941C16.1687 19.2941 16.816 18.9907 17.3318 18.6317C17.5846 18.4547 17.7869 18.2828 17.9284 18.1513C17.9992 18.0856 18.0498 18.035 18.0852 17.9996C18.1004 17.9844 18.1155 17.9693 18.1206 17.9642L18.1257 17.9592C18.2723 17.7872 18.4847 17.6911 18.7122 17.6861C18.9398 17.681 19.1522 17.767 19.314 17.9288L19.319 17.9339C19.3292 17.944 19.3393 17.9541 19.3595 17.9743C19.4 18.0097 19.4556 18.0653 19.5365 18.1311C19.6932 18.2626 19.9157 18.4446 20.1939 18.6216C20.7602 18.9907 21.453 19.2992 22.1356 19.2992C22.6767 19.2992 23.1723 19.102 23.592 18.8441V15.2538C23.592 13.4688 22.1407 12.0175 20.3557 12.0175V9.59027C20.3557 8.69523 19.6326 7.97212 18.7375 7.97212C17.8425 7.97212 17.1194 8.69523 17.1194 9.59027V12.0175H13.873V9.59027C13.873 8.69523 13.1498 7.97212 12.2548 7.97212C11.3598 7.97212 10.6366 8.69523 10.6366 9.59027V12.0175H7.40034V9.59027ZM23.5819 20.6443C23.152 20.8111 22.6615 20.9173 22.1255 20.9173C20.9878 20.9173 19.9815 20.4167 19.3039 19.9768C19.0966 19.8403 18.9095 19.7037 18.7527 19.5824C18.6111 19.7037 18.4442 19.8352 18.2571 19.9616C17.6048 20.4117 16.6339 20.9173 15.4911 20.9173C14.3483 20.9173 13.3774 20.4117 12.7301 19.9616C12.5531 19.8403 12.3913 19.7138 12.2548 19.5975C12.1183 19.7138 11.9565 19.8352 11.7795 19.9616C11.1322 20.4117 10.1613 20.9173 9.0185 20.9173C7.87568 20.9173 6.90478 20.4117 6.25752 19.9616C6.07043 19.8301 5.90355 19.6987 5.76196 19.5824C5.60521 19.7037 5.41811 19.8403 5.21078 19.9768C4.52812 20.4167 3.52183 20.9173 2.38407 20.9173C1.84806 20.9173 1.35756 20.8061 0.927734 20.6443V24.9627C0.927734 25.8578 1.65085 26.5809 2.54589 26.5809H21.9637C22.8588 26.5809 23.5819 25.8578 23.5819 24.9627V20.6443Z" fill="black"/>
</svg>
