<svg width="30" height="25" viewBox="0 0 30 25" fill="none" xmlns="http://www.w3.org/2000/svg">
<path d="M14.6319 17.611C16.8901 17.611 18.7207 15.8948 18.7207 13.7777C18.7207 11.6606 16.8901 9.94434 14.6319 9.94434C12.3736 9.94434 10.543 11.6606 10.543 13.7777C10.543 15.8948 12.3736 17.611 14.6319 17.611Z" stroke="black" stroke-width="2"/>
<path d="M1 14.2424C1 10.327 1 8.36921 2.02089 6.96288C2.46284 6.35407 3.03075 5.83133 3.69218 5.42454C4.67394 4.82072 5.90303 4.6049 7.78483 4.52777C8.68282 4.52777 9.45599 3.90142 9.6321 3.0909C9.89626 1.87514 11.056 1 12.403 1H16.8563C18.2032 1 19.3629 1.87514 19.6272 3.0909C19.8033 3.90142 20.5764 4.52777 21.4744 4.52777C23.3563 4.6049 24.5853 4.82072 25.5671 5.42454C26.2284 5.83133 26.7964 6.35407 27.2384 6.96288C28.2593 8.36921 28.2593 10.327 28.2593 14.2424C28.2593 18.1579 28.2593 20.1157 27.2384 21.522C26.7964 22.1307 26.2284 22.6535 25.5671 23.0603C24.0393 24 21.9124 24 17.6584 24H11.6008C7.34698 24 5.22006 24 3.69218 23.0603C3.03075 22.6535 2.46284 22.1307 2.02089 21.522C1.73254 21.1247 1.52564 20.6835 1.37717 20.1667" stroke="black" stroke-width="2" stroke-linecap="round"/>
<path d="M24.1755 9.94434H22.8125" stroke="black" stroke-width="2" stroke-linecap="round"/>
</svg>
