<svg width="17" height="14" viewBox="0 0 17 14" fill="none" xmlns="http://www.w3.org/2000/svg">
<g clip-path="url(#clip0_2578_4643)">
<path d="M0.95752 3.9082C0.95752 3.01191 1.74106 2.2832 2.70479 2.2832H9.69388C10.6576 2.2832 11.4411 3.01191 11.4411 3.9082V10.4082C11.4411 11.3045 10.6576 12.0332 9.69388 12.0332H2.70479C1.74106 12.0332 0.95752 11.3045 0.95752 10.4082V3.9082ZM16.2216 3.19219C16.5055 3.33437 16.683 3.60859 16.683 3.9082V10.4082C16.683 10.7078 16.5055 10.982 16.2216 11.1242C15.9376 11.2664 15.5936 11.2512 15.3234 11.0836L12.7025 9.45858L12.3148 9.21737V8.78319V5.5332V5.09902L12.7025 4.85781L15.3234 3.23281C15.5909 3.06777 15.9349 3.05 16.2216 3.19219Z" fill="#111111" fill-opacity="0.9"/>
</g>
<defs>
<clipPath id="clip0_2578_4643">
<rect width="15.7254" height="13" fill="white" transform="translate(0.95752 0.658203)"/>
</clipPath>
</defs>
</svg>
