<svg width="38" height="33" viewBox="0 0 38 33" fill="none" xmlns="http://www.w3.org/2000/svg">
<path d="M18.9637 23.4747C21.8356 23.4747 24.1637 21.2312 24.1637 18.4637C24.1637 15.6961 21.8356 13.4526 18.9637 13.4526C16.0918 13.4526 13.7637 15.6961 13.7637 18.4637C13.7637 21.2312 16.0918 23.4747 18.9637 23.4747Z" stroke="black" stroke-width="2"/>
<path d="M1.63086 19.071C1.63086 13.9527 1.63086 11.3935 2.92916 9.55506C3.49121 8.75921 4.21344 8.07588 5.05461 7.54411C6.30315 6.75479 7.86623 6.47267 10.2594 6.37183C11.4014 6.37183 12.3847 5.55306 12.6086 4.49353C12.9446 2.90425 14.4195 1.76025 16.1324 1.76025H21.7959C23.5088 1.76025 24.9837 2.90425 25.3198 4.49353C25.5438 5.55306 26.5269 6.37183 27.669 6.37183C30.0622 6.47267 31.6252 6.75479 32.8738 7.54411C33.7149 8.07588 34.4371 8.75921 34.9993 9.55506C36.2975 11.3935 36.2975 13.9527 36.2975 19.071C36.2975 24.1894 36.2975 26.7487 34.9993 28.5871C34.4371 29.3828 33.7149 30.0662 32.8738 30.598C30.9308 31.8264 28.2259 31.8264 22.816 31.8264H15.1123C9.70256 31.8264 6.99768 31.8264 5.05461 30.598C4.21344 30.0662 3.49121 29.3828 2.92916 28.5871C2.56246 28.0678 2.29934 27.491 2.11052 26.8153" stroke="black" stroke-width="2" stroke-linecap="round"/>
<path d="M31.0966 13.4526H29.3633" stroke="black" stroke-width="2" stroke-linecap="round"/>
</svg>
