<svg width="40" height="39" viewBox="0 0 40 39" fill="none" xmlns="http://www.w3.org/2000/svg">
<circle cx="19.5725" cy="19.5" r="19.5" fill="#484848"/>
<path fill-rule="evenodd" clip-rule="evenodd" d="M15.7647 12H20.3804C21.365 12.0054 22.3072 12.4017 22.9995 13.1017C23.692 13.8018 24.0779 14.7482 24.0726 15.7328V20.2672C24.0779 21.2517 23.692 22.1982 22.9995 22.8982C22.3072 23.5982 21.365 23.9945 20.3804 24H15.7647C14.7801 23.9945 13.8379 23.5982 13.1455 22.8982C12.4531 22.1982 12.0672 21.2517 12.0726 20.2672V15.7339C12.0669 14.7491 12.4527 13.8024 13.1451 13.1021C13.8376 12.4018 14.7799 12.0054 15.7647 12Z" stroke="white" stroke-width="2" stroke-linecap="round" stroke-linejoin="round"/>
<path d="M17.0729 26.9997H22.1836C24.9143 26.9685 27.1028 24.73 27.0725 21.9994V16.999" stroke="white" stroke-width="2" stroke-linecap="round" stroke-linejoin="round"/>
</svg>
