<svg width="96" height="78" viewBox="0 0 96 78" fill="none" xmlns="http://www.w3.org/2000/svg">
<path d="M16.0329 24.5899H16.328C19.0821 24.3931 21.1477 22.0325 21.0493 19.2784C20.8526 16.5243 18.492 14.4587 15.7379 14.5571C12.9838 14.6554 10.9182 17.1145 11.0166 19.8686C11.1149 22.5243 13.3772 24.5899 16.0329 24.5899ZM13.6723 17.5079C14.1641 16.9177 14.951 16.5243 15.7379 16.5243H15.9346C17.6067 16.5243 18.9838 17.9013 18.9838 19.5735C18.9838 21.2456 17.6067 22.6227 15.9346 22.6227C14.2625 22.6227 12.8854 21.2456 12.8854 19.5735C12.8854 18.7866 13.1805 18.0981 13.6723 17.5079Z" fill="#262626"/>
<path d="M83.3117 19.0818L57.0494 17.6064L56.8527 14.6555C56.5576 9.04898 51.7379 4.72111 46.033 5.01619L12.6887 6.88504C7.08218 7.18012 2.75431 12.0982 3.04939 17.7047L4.91825 51.1473V51.9342C5.60677 57.049 9.93464 60.885 15.0494 60.885H15.6396L36.9838 59.7047V60.2949C36.6887 65.9014 40.9183 70.8195 46.6232 71.1146L80.0658 73.0818H80.656C86.0658 73.0818 90.5904 68.8523 90.8855 63.4424L92.8527 29.9998C93.2461 24.2949 88.9183 19.4752 83.3117 19.0818ZM7.08218 11.6064C8.55759 9.93422 10.6232 8.95062 12.7871 8.85226L46.2297 6.9834C50.7543 6.68832 54.6887 10.2293 54.9838 14.7539L55.1805 17.508L49.9674 17.2129C44.3609 16.9178 39.4428 21.1473 39.1478 26.8523L38.5576 36.1965L29.2133 46.7211C29.0166 47.0162 28.6232 47.1146 28.2297 47.2129C27.8363 47.2129 27.5412 47.1146 27.2461 46.8195L19.574 39.9342C18.1969 38.6555 16.1314 38.8523 14.8527 40.2293L6.88546 49.1801L5.11497 17.7047C4.91825 15.4424 5.70513 13.2785 7.08218 11.6064ZM15.6396 58.8195C11.41 59.0162 7.67234 56.0654 6.98382 51.8359L16.2297 41.508C16.4264 41.2129 16.8199 41.1146 17.2133 41.0162C17.6068 41.0162 17.9019 41.1146 18.1969 41.4096L25.8691 48.2949C26.5576 48.885 27.4428 49.1801 28.3281 49.1801C29.2133 49.1801 30.0002 48.6883 30.5904 48.0982L38.2625 39.4424L37.1805 57.7375L15.6396 58.8195ZM90.8855 29.8031L88.9183 63.2457C88.6232 67.7703 84.6887 71.3113 80.1642 71.0162L46.7215 69.049C42.1969 68.7539 38.656 64.8195 38.951 60.2949L40.9182 26.8523C41.2133 22.5244 44.7543 19.0818 49.1805 19.0818H49.6723L83.115 21.049C87.7379 21.3441 91.1805 25.2785 90.8855 29.8031Z" fill="#262626"/>
<path d="M76.9178 41.9019L60.2948 30.9838C58.2293 29.6068 55.4752 30.197 54.1965 32.2625C53.803 32.951 53.508 33.6396 53.508 34.4265L52.3276 54.197C52.2293 56.656 53.9998 58.7215 56.4588 58.9183H56.7539C57.4424 58.9183 58.1309 58.7215 58.7211 58.4265L76.426 49.574C78.5899 48.492 79.4752 45.8363 78.3932 43.6724C77.9998 42.9838 77.508 42.3937 76.9178 41.9019ZM75.5408 47.8035L57.8358 56.656C57.4424 56.8527 57.0489 56.9511 56.5571 56.9511C56.1637 56.9511 55.6719 56.7543 55.3768 56.5576C54.6883 56.0658 54.1965 55.2789 54.2948 54.3937L55.4752 34.6232C55.5735 33.7379 56.0653 32.951 56.8522 32.5576C57.6391 32.1642 58.5244 32.2625 59.3112 32.656L75.7375 43.574C76.9178 44.3609 77.2129 45.8363 76.426 46.9183C76.2293 47.3117 75.9342 47.6068 75.5408 47.8035Z" fill="#262626"/>
</svg>
