<svg width="24" height="25" viewBox="0 0 24 25" fill="none" xmlns="http://www.w3.org/2000/svg">
<g clip-path="url(#clip0_114_1303)">
<path d="M12 14.251C12.8284 14.251 13.5 13.5794 13.5 12.751C13.5 11.9225 12.8284 11.251 12 11.251C11.1716 11.251 10.5 11.9225 10.5 12.751C10.5 13.5794 11.1716 14.251 12 14.251Z" fill="#262626"/>
<path d="M6 14.251C6.82843 14.251 7.5 13.5794 7.5 12.751C7.5 11.9225 6.82843 11.251 6 11.251C5.17157 11.251 4.5 11.9225 4.5 12.751C4.5 13.5794 5.17157 14.251 6 14.251Z" fill="#262626"/>
<path d="M18 14.251C18.8284 14.251 19.5 13.5794 19.5 12.751C19.5 11.9225 18.8284 11.251 18 11.251C17.1716 11.251 16.5 11.9225 16.5 12.751C16.5 13.5794 17.1716 14.251 18 14.251Z" fill="#262626"/>
</g>
<defs>
<clipPath id="clip0_114_1303">
<rect width="24" height="24" fill="white" transform="translate(0 0.750977)"/>
</clipPath>
</defs>
</svg>
