<svg width="25" height="24" viewBox="0 0 25 24" fill="none" xmlns="http://www.w3.org/2000/svg">
<path d="M12.1094 13.5078C12.9378 13.5078 13.6094 12.8362 13.6094 12.0078C13.6094 11.1794 12.9378 10.5078 12.1094 10.5078C11.2809 10.5078 10.6094 11.1794 10.6094 12.0078C10.6094 12.8362 11.2809 13.5078 12.1094 13.5078Z" fill="#262626"/>
<path d="M6.10938 13.5078C6.9378 13.5078 7.60938 12.8362 7.60938 12.0078C7.60938 11.1794 6.9378 10.5078 6.10938 10.5078C5.28095 10.5078 4.60938 11.1794 4.60938 12.0078C4.60938 12.8362 5.28095 13.5078 6.10938 13.5078Z" fill="#262626"/>
<path d="M18.1094 13.5078C18.9378 13.5078 19.6094 12.8362 19.6094 12.0078C19.6094 11.1794 18.9378 10.5078 18.1094 10.5078C17.2809 10.5078 16.6094 11.1794 16.6094 12.0078C16.6094 12.8362 17.2809 13.5078 18.1094 13.5078Z" fill="#262626"/>
</svg>
