<svg width="20" height="21" viewBox="0 0 20 21" fill="none" xmlns="http://www.w3.org/2000/svg">
<g clip-path="url(#clip0_2192_15749)">
<path d="M2.50018 5.91522C2.60962 5.91511 2.71801 5.93662 2.81912 5.97852C2.92023 6.02043 3.01206 6.08189 3.08934 6.15939L10.0002 13.0727L16.911 6.15939C16.9879 6.0798 17.0798 6.01631 17.1815 5.97264C17.2832 5.92896 17.3925 5.90598 17.5032 5.90501C17.6138 5.90405 17.7236 5.92514 17.826 5.96704C17.9284 6.00894 18.0214 6.07082 18.0997 6.14906C18.1779 6.2273 18.2398 6.32035 18.2817 6.42276C18.3236 6.52518 18.3447 6.63491 18.3437 6.74556C18.3428 6.85621 18.3198 6.96556 18.2761 7.06723C18.2324 7.1689 18.1689 7.26085 18.0893 7.33772L10.5893 14.8411C10.43 14.9914 10.2192 15.0752 10.0002 15.0752C9.7811 15.0752 9.57032 14.9914 9.41101 14.8411L1.91101 7.33772C1.7945 7.22118 1.71516 7.07271 1.68302 6.91108C1.65088 6.74946 1.66739 6.58193 1.73045 6.42968C1.7935 6.27743 1.90029 6.14729 2.03729 6.05572C2.1743 5.96415 2.33538 5.91526 2.50018 5.91522Z" fill="#262626"/>
</g>
<defs>
<clipPath id="clip0_2192_15749">
<rect width="20" height="20" fill="white" transform="matrix(-1 0 0 -1 20 20.5)"/>
</clipPath>
</defs>
</svg>
