<svg width="41" height="40" viewBox="0 0 41 40" fill="none" xmlns="http://www.w3.org/2000/svg">
<path d="M29.6777 11.252C29.6777 10.7482 29.373 10.2912 28.9043 10.0959C28.4355 9.90062 27.9004 10.01 27.541 10.3654L25.8379 12.0723C23.9629 13.9471 21.4199 15.0016 18.7676 15.0016H18.4277H17.1777H13.4277C12.0488 15.0016 10.9277 16.1226 10.9277 17.5014V21.251C10.9277 22.6297 12.0488 23.7507 13.4277 23.7507V28.7501C13.4277 29.4415 13.9863 30 14.6777 30H17.1777C17.8691 30 18.4277 29.4415 18.4277 28.7501V23.7507H18.7676C21.4199 23.7507 23.9629 24.8053 25.8379 26.68L27.541 28.383C27.9004 28.7423 28.4355 28.8478 28.9043 28.6525C29.373 28.4572 29.6777 28.0041 29.6777 27.4964V21.7353C30.4043 21.3916 30.9277 20.4659 30.9277 19.3762C30.9277 18.2864 30.4043 17.3607 29.6777 17.017V11.252ZM27.1777 14.2478V19.3762V24.5045C24.8809 22.4149 21.8848 21.251 18.7676 21.251H18.4277V17.5014H18.7676C21.8848 17.5014 24.8809 16.3374 27.1777 14.2478Z" fill="black"/>
<circle cx="20.9277" cy="20" r="20" fill="black" fill-opacity="0.1"/>
</svg>
