<svg width="20" height="20" viewBox="0 0 20 20" fill="none" xmlns="http://www.w3.org/2000/svg">
<path d="M10 0C4.486 0 0 4.486 0 10C0 15.514 4.486 20 10 20C15.514 20 20 15.514 20 10C20 4.486 15.514 0 10 0ZM10 18.1818C5.48855 18.1818 1.81818 14.5115 1.81818 10C1.81818 5.48855 5.48855 1.81818 10 1.81818C14.5115 1.81818 18.1818 5.48855 18.1818 10C18.1818 14.5115 14.5115 18.1818 10 18.1818Z" fill="black"/>
<path d="M12.4428 12.443C11.0958 13.7899 8.90425 13.79 7.55728 12.4431C7.20231 12.088 6.62667 12.088 6.27164 12.4431C5.91661 12.7981 5.91661 13.3737 6.27164 13.7287C7.2997 14.7568 8.64958 15.2706 10.0001 15.2706C11.3501 15.2706 12.7007 14.7565 13.7285 13.7287C14.0835 13.3737 14.0835 12.7981 13.7285 12.4431C13.3734 12.088 12.7978 12.088 12.4428 12.443Z" fill="black"/>
<path d="M6.97827 8.91772C7.20433 8.69227 7.33342 8.37954 7.33342 8.06075C7.33342 7.74197 7.20433 7.42924 6.97827 7.20378C6.75282 6.97833 6.44009 6.84863 6.1213 6.84863C5.80185 6.84863 5.48979 6.97833 5.26427 7.20378C5.03827 7.42924 4.90918 7.74197 4.90918 8.06075C4.90918 8.37954 5.03827 8.69227 5.26427 8.91772C5.48979 9.14378 5.80251 9.27288 6.1213 9.27288C6.44009 9.27288 6.75282 9.14378 6.97827 8.91772Z" fill="black"/>
<path d="M13.8786 6.84863C13.5598 6.84863 13.2471 6.97833 13.0216 7.20378C12.7962 7.42924 12.6665 7.74136 12.6665 8.06075C12.6665 8.38015 12.7962 8.69227 13.0216 8.91772C13.2471 9.14378 13.5598 9.27288 13.8786 9.27288C14.1974 9.27288 14.5101 9.14378 14.7356 8.91772C14.961 8.69227 15.0907 8.38015 15.0907 8.06075C15.0907 7.74197 14.961 7.42924 14.7356 7.20378C14.5101 6.97833 14.1974 6.84863 13.8786 6.84863Z" fill="black"/>
</svg>
