<svg width="27" height="26" viewBox="0 0 27 26" fill="none" xmlns="http://www.w3.org/2000/svg">
<path d="M18.0426 9.87902C18.3019 10.8095 17.9891 11.6985 17.344 11.8647C16.6989 12.031 15.9657 11.4114 15.7064 10.481C15.4471 9.55046 15.7598 8.66144 16.405 8.49522C17.0502 8.32901 17.7832 8.94856 18.0426 9.87902Z" fill="black"/>
<path d="M11.0348 11.6842C11.2941 12.6147 10.9813 13.5037 10.3362 13.6699C9.69104 13.8362 8.95786 13.2165 8.69857 12.2861C8.43929 11.3556 8.75206 10.4666 9.39719 10.3004C10.0423 10.1342 10.7755 10.7537 11.0348 11.6842Z" fill="black"/>
<path fill-rule="evenodd" clip-rule="evenodd" d="M13.8408 2.01128C7.66294 2.01128 2.65477 6.82682 2.65477 12.7671C2.65477 18.4138 7.18021 23.0442 12.934 23.488C12.9364 21.1909 12.9656 19.6783 13.2984 18.4426C12.1136 18.5363 10.9581 18.4446 9.88672 18.1864C9.40083 18.0693 9.10568 17.5957 9.22745 17.1285C9.34923 16.6613 9.84184 16.3774 10.3277 16.4945C11.4506 16.7651 12.7108 16.8164 14.0096 16.5979C14.033 16.594 14.0563 16.5909 14.0797 16.5887C15.1829 14.6452 17.0033 13.1434 19.2105 12.4007C20.5972 11.9342 22.2617 11.8978 24.9906 11.8951C24.529 6.36266 19.7134 2.01128 13.8408 2.01128ZM24.8929 13.6401C22.1649 13.6462 20.8596 13.6937 19.8097 14.047C17.6386 14.7774 15.9316 16.4188 15.1719 18.5064C14.8045 19.5159 14.7551 20.771 14.7488 23.3941L24.8929 13.6401ZM0.84082 12.7671C0.84082 5.86353 6.66112 0.26709 13.8408 0.26709C21.0206 0.26709 26.8408 5.86353 26.8408 12.7671C26.8408 13.1884 26.8192 13.605 26.7767 14.016L26.7447 14.3262L15.4623 25.1746L15.1397 25.2055C14.7122 25.2463 14.279 25.2671 13.8408 25.2671C6.66112 25.2671 0.84082 19.6707 0.84082 12.7671Z" fill="black"/>
</svg>
