<svg width="25" height="24" viewBox="0 0 25 24" fill="none" xmlns="http://www.w3.org/2000/svg">
<path d="M8.46967 12.5303C8.76256 12.8232 9.23744 12.8232 9.53033 12.5303C9.82322 12.2374 9.82322 11.7626 9.53033 11.4697L8.46967 12.5303ZM6.03033 7.96967C5.73744 7.67678 5.26256 7.67678 4.96967 7.96967C4.67678 8.26256 4.67678 8.73744 4.96967 9.03033L6.03033 7.96967ZM5.5 7.75C5.08579 7.75 4.75 8.08579 4.75 8.5C4.75 8.91421 5.08579 9.25 5.5 9.25V7.75ZM19.5 9.25C19.9142 9.25 20.25 8.91421 20.25 8.5C20.25 8.08579 19.9142 7.75 19.5 7.75V9.25ZM4.96967 7.96967C4.67678 8.26256 4.67678 8.73744 4.96967 9.03033C5.26256 9.32322 5.73744 9.32322 6.03033 9.03033L4.96967 7.96967ZM9.53033 5.53033C9.82322 5.23744 9.82322 4.76256 9.53033 4.46967C9.23744 4.17678 8.76256 4.17678 8.46967 4.46967L9.53033 5.53033ZM16.5303 11.4697C16.2374 11.1768 15.7626 11.1768 15.4697 11.4697C15.1768 11.7626 15.1768 12.2374 15.4697 12.5303L16.5303 11.4697ZM18.9697 16.0303C19.2626 16.3232 19.7374 16.3232 20.0303 16.0303C20.3232 15.7374 20.3232 15.2626 20.0303 14.9697L18.9697 16.0303ZM19.5 16.25C19.9142 16.25 20.25 15.9142 20.25 15.5C20.25 15.0858 19.9142 14.75 19.5 14.75V16.25ZM5.5 14.75C5.08579 14.75 4.75 15.0858 4.75 15.5C4.75 15.9142 5.08579 16.25 5.5 16.25V14.75ZM20.0303 16.0303C20.3232 15.7374 20.3232 15.2626 20.0303 14.9697C19.7374 14.6768 19.2626 14.6768 18.9697 14.9697L20.0303 16.0303ZM15.4697 18.4697C15.1768 18.7626 15.1768 19.2374 15.4697 19.5303C15.7626 19.8232 16.2374 19.8232 16.5303 19.5303L15.4697 18.4697ZM9.53033 11.4697L6.03033 7.96967L4.96967 9.03033L8.46967 12.5303L9.53033 11.4697ZM5.5 9.25H19.5V7.75H5.5V9.25ZM6.03033 9.03033L9.53033 5.53033L8.46967 4.46967L4.96967 7.96967L6.03033 9.03033ZM15.4697 12.5303L18.9697 16.0303L20.0303 14.9697L16.5303 11.4697L15.4697 12.5303ZM19.5 14.75H5.5V16.25H19.5V14.75ZM18.9697 14.9697L15.4697 18.4697L16.5303 19.5303L20.0303 16.0303L18.9697 14.9697Z" fill="black"/>
</svg>
