<svg width="30" height="30" viewBox="0 0 30 30" fill="none" xmlns="http://www.w3.org/2000/svg">
<path d="M26.25 9.17106H21.3375L21.8025 3.83106C21.8475 3.31606 21.465 2.86231 20.95 2.81606C20.4288 2.77856 19.98 3.15356 19.935 3.66981L19.4562 9.16981H11.5562L12.0187 3.83231C12.065 3.31606 11.6813 2.86231 11.1688 2.81606C10.6438 2.77856 10.1975 3.15356 10.1525 3.66981L9.675 9.16981H4.7275C4.21 9.16981 3.79 9.59106 3.79 10.1073C3.79 10.6236 4.21 11.0448 4.7275 11.0448H9.5125L8.825 18.9536H3.75C3.2325 18.9536 2.8125 19.3736 2.8125 19.8911C2.8125 20.4086 3.2325 20.8286 3.75 20.8286H8.6625L8.1975 26.1686C8.1525 26.6836 8.535 27.1373 9.05 27.1836L9.1325 27.1873C9.61375 27.1873 10.0225 26.8186 10.065 26.3298L10.5438 20.8298H18.4438L17.9813 26.1673C17.9363 26.6836 18.3188 27.1373 18.8337 27.1836L18.9163 27.1873C19.3975 27.1873 19.8062 26.8186 19.8487 26.3298L20.3263 20.8298H25.2725C25.7887 20.8298 26.21 20.4086 26.21 19.8923C26.21 19.3761 25.7887 18.9548 25.2725 18.9548H20.4875L21.175 11.0461H26.25C26.7675 11.0461 27.1875 10.6261 27.1875 10.1086C27.1875 9.59106 26.7675 9.17106 26.25 9.17106ZM18.6063 18.9536H10.7062L11.3937 11.0461H19.2938L18.6063 18.9536Z" fill="#0F1419"/>
</svg>
