<svg width="31" height="30" viewBox="0 0 31 30" fill="none" xmlns="http://www.w3.org/2000/svg">
<path d="M27.4678 14.9999C27.4678 8.19522 21.951 2.67843 15.1463 2.67843C8.3417 2.67843 2.82492 8.19522 2.82492 14.9999C2.82492 21.8045 8.3417 27.3213 15.1463 27.3213C21.951 27.3213 27.4678 21.8045 27.4678 14.9999ZM29.0749 14.9999C29.0749 22.6927 22.8392 28.9284 15.1463 28.9284C7.45349 28.9284 1.21777 22.6927 1.21777 14.9999C1.21777 7.307 7.45349 1.07129 15.1463 1.07129C22.8392 1.07129 29.0749 7.307 29.0749 14.9999ZM8.15956 14.9999H8.32242C8.64599 14.9999 8.82706 15.362 8.64706 15.6331C8.0042 16.5974 7.62813 17.7513 7.62813 18.9899V19.5224C7.62813 19.652 7.63563 19.7795 7.65063 19.9049C7.67849 20.1449 7.49849 20.357 7.25742 20.357H6.7067C5.74777 20.357 4.96777 19.5534 4.96777 18.5645C4.96777 16.5984 6.28242 14.9999 8.15956 14.9999ZM22.1331 14.9999C24.0113 14.9999 25.3249 16.5984 25.3249 18.5645C25.3249 19.5534 24.5449 20.357 23.5871 20.357H23.0363C22.7953 20.357 22.6142 20.1449 22.6431 19.9049C22.6571 19.7795 22.6646 19.652 22.6646 19.5224V18.9899C22.6646 17.7513 22.2896 16.5974 21.6467 15.6331C21.4667 15.362 21.6467 14.9999 21.9703 14.9999H22.1331ZM8.98563 13.9284C7.80384 13.9284 6.84277 12.8474 6.84277 11.5177C6.84277 10.0541 7.68384 9.107 8.98563 9.107C10.2874 9.107 11.1285 10.0541 11.1285 11.5177C11.1285 12.8474 10.1674 13.9284 8.98563 13.9284ZM21.3071 13.9284C20.1253 13.9284 19.1642 12.8474 19.1642 11.5177C19.1642 10.0541 20.0053 9.107 21.3071 9.107C22.6088 9.107 23.4499 10.0541 23.4499 11.5177C23.4499 12.8474 22.4888 13.9284 21.3071 13.9284ZM16.4021 14.4641C18.9585 14.4641 21.0392 16.4945 21.0392 18.9899V19.5224C21.0392 20.5734 20.1638 21.4284 19.086 21.4284H11.2067C10.1288 21.4284 9.25349 20.5734 9.25349 19.5224V18.9899C9.25349 16.4945 11.3331 14.4641 13.8906 14.4641H16.4021ZM18.0928 9.64272C18.0928 11.4159 16.7717 12.857 15.1463 12.857C13.5221 12.857 12.1999 11.4159 12.1999 9.64272C12.1999 7.66057 13.3292 6.42843 15.1463 6.42843C16.9646 6.42843 18.0928 7.66057 18.0928 9.64272Z" fill="black"/>
</svg>
