<svg width="31" height="25" viewBox="0 0 31 25" fill="none" xmlns="http://www.w3.org/2000/svg">
<path d="M25.4073 0.26709C28.0399 0.26709 30.174 2.321 30.174 4.85463V19.6796C30.174 22.2132 28.0399 24.2671 25.4073 24.2671H5.60745C2.97491 24.2671 0.84082 22.2132 0.84082 19.6796V4.85463C0.84082 2.321 2.97491 0.26709 5.60745 0.26709H25.4073ZM25.4073 2.38442H5.60745C4.18993 2.38442 3.0408 3.49037 3.0408 4.85463V19.6796C3.0408 21.0438 4.18993 22.1498 5.60745 22.1498H25.4073C26.8248 22.1498 27.974 21.0438 27.974 19.6796V4.85463C27.974 3.49037 26.8248 2.38442 25.4073 2.38442ZM9.66217 7.84909C10.5376 7.84909 11.1566 7.96388 11.8653 8.29145C12.3217 8.50237 12.514 9.02941 12.2948 9.46863C12.0757 9.90785 11.5281 10.0929 11.0717 9.882C10.632 9.67876 10.2802 9.61352 9.66217 9.61352C8.39101 9.61352 7.45696 10.7376 7.45696 12.2565C7.45696 13.7767 8.39224 14.9045 9.66217 14.9045C10.2908 14.9045 10.823 14.6506 11.0999 14.1976L11.1089 14.1765V13.1404L10.5577 13.1414C10.0975 13.1414 9.71649 12.8149 9.65102 12.3895L9.64108 12.2591C9.64108 11.8162 9.98026 11.4495 10.4223 11.3865L10.5577 11.3769H12.0267C12.487 11.3769 12.868 11.7033 12.9335 12.1288L12.9434 12.2591L12.9414 14.4438L12.9321 14.5218L12.9011 14.6487L12.871 14.7265C12.319 15.983 11.051 16.6689 9.66217 16.6689C7.27736 16.6689 5.62364 14.6748 5.62364 12.2565C5.62364 9.83897 7.27708 7.84909 9.66217 7.84909ZM16.4298 8.02129C16.8901 8.02129 17.2711 8.34772 17.3366 8.77314L17.3465 8.90351V15.6255C17.3465 16.1127 16.9361 16.5077 16.4298 16.5077C15.9696 16.5077 15.5886 16.1813 15.5231 15.7559L15.5132 15.6255V8.90351C15.5132 8.41627 15.9236 8.02129 16.4298 8.02129ZM20.8237 8.02129L23.7532 8.03103C24.2594 8.03271 24.6684 8.42906 24.6667 8.91629C24.6651 9.35923 24.3246 9.7248 23.8823 9.78635L23.7468 9.79547L21.7363 9.788V12.2639L23.3833 12.2651C23.8436 12.2651 24.2246 12.5915 24.2901 13.0169L24.3 13.1473C24.3 13.5902 23.9608 13.9569 23.5188 14.0199L23.3833 14.0295L21.7363 14.0283L21.7372 15.6028C21.7372 16.0457 21.398 16.4124 20.9559 16.4754L20.8205 16.485C20.3603 16.485 19.9792 16.1586 19.9138 15.7331L19.9038 15.6028V8.90047C19.9054 8.45753 20.2459 8.09196 20.6882 8.03041L20.8237 8.02129Z" fill="black"/>
</svg>
