<svg width="55" height="53" viewBox="0 0 55 53" fill="none" xmlns="http://www.w3.org/2000/svg">
<path d="M27.5 52.9307C42.6879 52.9307 55 41.2901 55 26.9307C55 12.5712 42.6879 0.930664 27.5 0.930664C12.3121 0.930664 0 12.5712 0 26.9307C0 41.2901 12.3121 52.9307 27.5 52.9307Z" fill="url(#paint0_radial_2190_19741)"/>
<path opacity="0.5" d="M27.5 52.9307C42.6879 52.9307 55 41.2901 55 26.9307C55 12.5712 42.6879 0.930664 27.5 0.930664C12.3121 0.930664 0 12.5712 0 26.9307C0 41.2901 12.3121 52.9307 27.5 52.9307Z" fill="url(#paint1_radial_2190_19741)"/>
<path d="M46.0717 31.3324C45.867 31.2599 45.6367 31.2478 45.4321 31.3083C39.6252 32.8803 33.6007 33.6664 27.5124 33.6664C21.424 33.6664 15.3867 32.8683 9.59255 31.3083C9.37517 31.2478 9.1577 31.2599 8.95304 31.3324C8.32634 31.5743 7.32866 32.4692 8.64605 35.8915V35.9035C10.5902 40.2813 15.7449 47.9724 27.4995 47.9724C39.2286 47.9724 44.3832 40.2692 46.3787 35.9035C47.6832 32.4692 46.6984 31.5743 46.0717 31.3324Z" fill="url(#paint2_linear_2190_19741)"/>
<path d="M20.2353 14.6682C19.9411 13.6645 18.6108 13.338 16.6283 13.858C14.9526 14.3055 11.5248 16.1436 9.90031 19.9046C9.60613 20.5939 10.412 20.7147 10.7573 20.2311C11.9468 18.5622 15.6434 15.8534 19.0073 15.3213C20.3759 15.1036 20.2353 14.6682 20.2353 14.6682Z" fill="url(#paint3_linear_2190_19741)"/>
<path d="M20.0552 22.7464C18.1494 21.6339 15.6937 21.7548 13.9029 23.0246C12.9948 23.6776 12.0994 24.6692 11.575 26.2171C11.4855 26.4711 11.4215 26.7492 11.4087 27.0274C11.3704 27.5836 11.7797 28.0795 12.4448 27.499C17.5227 22.9641 21.0785 27.632 21.0785 27.632C21.7692 28.1036 22.4727 27.1241 22.332 26.2171C22.2937 25.9511 22.2552 25.673 22.1913 25.4311C21.782 24.1009 20.9506 23.2664 20.0552 22.7464Z" fill="url(#paint4_radial_2190_19741)"/>
<path d="M45.7011 31.2598C45.6627 31.2598 45.6243 31.2598 45.5732 31.2719C39.715 32.8681 33.6395 33.6784 27.4872 33.6784C21.3348 33.6784 15.2592 32.8681 9.40113 31.2719C9.36269 31.2598 9.32433 31.2598 9.27317 31.2598C8.87666 31.2961 6.98365 31.671 8.60803 35.9035V35.9156C9.40113 37.6812 10.7185 39.991 12.7778 42.1072C10.8465 39.9426 13.2255 38.7454 17.4592 39.2291C21.693 39.7129 27.4872 39.7249 27.4872 39.7249C27.4872 39.7249 33.2685 39.7129 37.515 39.2291C41.7488 38.7454 44.1278 39.9426 42.1965 42.1072C44.2558 39.991 45.5732 37.6812 46.3662 35.9156V35.9035C47.9906 31.6589 46.0976 31.284 45.7011 31.2598Z" fill="url(#paint5_linear_2190_19741)"/>
<path d="M42.4396 37.2098C44.0512 36.8832 45.2664 35.6134 45.4198 34.0534L45.5733 32.5298C39.7151 34.0897 33.6396 34.8879 27.5001 34.8879C21.3605 34.8879 15.2849 34.0897 9.42676 32.5298L9.58025 34.0534C9.73375 35.6014 10.9489 36.8712 12.5605 37.2098C17.4466 38.2134 22.4605 38.7093 27.5001 38.7093C32.5396 38.7093 37.5535 38.2014 42.4396 37.2098Z" fill="url(#paint6_radial_2190_19741)"/>
<path d="M22.1796 25.419C22.0005 24.8748 21.7574 24.4031 21.4888 24.0161C21.0796 23.4599 20.5807 23.0487 20.0563 22.7464C18.1505 21.6339 15.6946 21.7548 13.9039 23.0245C12.9958 23.6776 12.1005 24.6692 11.5761 26.2171C11.5249 26.3622 11.4865 26.5195 11.4609 26.6766V26.6887C13.6993 23.3874 16.9226 23.1576 16.9226 23.1576C16.9226 23.1576 20.1203 22.9036 22.2819 25.8544C22.2563 25.7092 22.2179 25.5641 22.1796 25.419Z" fill="url(#paint7_linear_2190_19741)"/>
<path d="M34.7648 14.6682C35.059 13.6645 36.3893 13.338 38.3718 13.858C40.0474 14.3055 43.4753 16.1436 45.0997 19.9046C45.394 20.5939 44.5881 20.7147 44.2428 20.2311C43.0532 18.5622 39.3567 15.8534 35.9928 15.3213C34.6242 15.1036 34.7648 14.6682 34.7648 14.6682Z" fill="url(#paint8_linear_2190_19741)"/>
<path d="M34.9442 22.7464C36.8501 21.6339 39.3059 21.7548 41.0966 23.0246C42.0047 23.6776 42.9001 24.6692 43.4245 26.2171C43.514 26.4711 43.5779 26.7492 43.5907 27.0274C43.6291 27.5836 43.2199 28.0795 42.5547 27.499C37.4768 22.9641 33.921 27.632 33.921 27.632C33.2303 28.1036 32.5268 27.1241 32.6675 26.2171C32.7059 25.9511 32.7442 25.673 32.8082 25.4311C33.2175 24.1009 34.0489 23.2664 34.9442 22.7464Z" fill="url(#paint9_radial_2190_19741)"/>
<path d="M32.8211 25.419C33.0001 24.8748 33.2431 24.4031 33.5118 24.0161C33.9211 23.4599 34.4199 23.0487 34.9443 22.7464C36.8501 21.6339 39.3059 21.7548 41.0966 23.0245C42.0048 23.6776 42.9001 24.6692 43.4245 26.2171C43.4757 26.3622 43.5141 26.5195 43.5396 26.6766V26.6887C41.3013 23.3874 38.078 23.1576 38.078 23.1576C38.078 23.1576 34.8803 22.9036 32.7188 25.8544C32.7443 25.7092 32.7826 25.5641 32.8211 25.419Z" fill="url(#paint10_linear_2190_19741)"/>
<path d="M43.1691 39.0962C43.361 38.8301 43.054 38.4916 42.7471 38.6246C40.7773 39.4349 36.0959 40.8376 27.5005 40.8376C18.6238 40.8376 14.1598 39.4832 12.2668 38.6609C11.9598 38.5279 11.6528 38.8665 11.8447 39.1325C14.5435 42.8934 19.3273 46.8357 27.5005 46.8357C35.6738 46.8236 40.4575 42.8692 43.1691 39.0962Z" fill="url(#paint11_radial_2190_19741)"/>
<defs>
<radialGradient id="paint0_radial_2190_19741" cx="0" cy="0" r="1" gradientUnits="userSpaceOnUse" gradientTransform="translate(22.0893 16.3937) scale(33.1752 31.3656)">
<stop stop-color="#FFD800"/>
<stop offset="1" stop-color="#FFA800"/>
</radialGradient>
<radialGradient id="paint1_radial_2190_19741" cx="0" cy="0" r="1" gradientUnits="userSpaceOnUse" gradientTransform="translate(22.0893 16.3937) scale(26.1004 24.6768)">
<stop stop-color="#FFE95F"/>
<stop offset="1" stop-color="#FFBB47" stop-opacity="0"/>
</radialGradient>
<linearGradient id="paint2_linear_2190_19741" x1="7.97838" y1="39.6207" x2="47.0208" y2="39.6207" gradientUnits="userSpaceOnUse">
<stop offset="0.00132565" stop-color="#3C2200"/>
<stop offset="0.5" stop-color="#512D00"/>
<stop offset="1" stop-color="#3C2200"/>
</linearGradient>
<linearGradient id="paint3_linear_2190_19741" x1="15.1411" y1="17.8202" x2="14.4371" y2="15.1614" gradientUnits="userSpaceOnUse">
<stop offset="0.00132565" stop-color="#3C2200"/>
<stop offset="1" stop-color="#7A4400"/>
</linearGradient>
<radialGradient id="paint4_radial_2190_19741" cx="0" cy="0" r="1" gradientUnits="userSpaceOnUse" gradientTransform="translate(16.8974 25.0394) rotate(175.72) scale(4.24122 2.84523)">
<stop offset="0.00132565" stop-color="#7A4400"/>
<stop offset="1" stop-color="#643800"/>
</radialGradient>
<linearGradient id="paint5_linear_2190_19741" x1="46.8026" y1="36.6763" x2="8.43197" y2="36.6763" gradientUnits="userSpaceOnUse">
<stop offset="0.00132565" stop-color="#3C2200"/>
<stop offset="0.5" stop-color="#512D00"/>
<stop offset="1" stop-color="#3C2200"/>
</linearGradient>
<radialGradient id="paint6_radial_2190_19741" cx="0" cy="0" r="1" gradientUnits="userSpaceOnUse" gradientTransform="translate(27.5001 35.6251) scale(33.2226 31.4105)">
<stop offset="0.00132565" stop-color="white"/>
<stop offset="1" stop-color="#A8BBBD"/>
</radialGradient>
<linearGradient id="paint7_linear_2190_19741" x1="17.3446" y1="19.9889" x2="17.0434" y2="24.3573" gradientUnits="userSpaceOnUse">
<stop offset="0.00132565" stop-color="#3C2200"/>
<stop offset="1" stop-color="#512D00"/>
</linearGradient>
<linearGradient id="paint8_linear_2190_19741" x1="39.8846" y1="17.8245" x2="40.5885" y2="15.1657" gradientUnits="userSpaceOnUse">
<stop offset="0.00132565" stop-color="#3C2200"/>
<stop offset="1" stop-color="#7A4400"/>
</linearGradient>
<radialGradient id="paint9_radial_2190_19741" cx="0" cy="0" r="1" gradientUnits="userSpaceOnUse" gradientTransform="translate(38.0717 25.0389) rotate(4.27969) scale(4.24121 2.84523)">
<stop offset="0.00132565" stop-color="#7A4400"/>
<stop offset="1" stop-color="#643800"/>
</radialGradient>
<linearGradient id="paint10_linear_2190_19741" x1="37.6326" y1="19.9902" x2="37.9338" y2="24.3585" gradientUnits="userSpaceOnUse">
<stop offset="0.00132565" stop-color="#3C2200"/>
<stop offset="1" stop-color="#512D00"/>
</linearGradient>
<radialGradient id="paint11_radial_2190_19741" cx="0" cy="0" r="1" gradientUnits="userSpaceOnUse" gradientTransform="translate(27.5065 42.7091) scale(32.7352 30.9496)">
<stop offset="0.00132565" stop-color="white"/>
<stop offset="1" stop-color="#A8BBBD"/>
</radialGradient>
</defs>
</svg>
