<svg width="20" height="18" viewBox="0 0 20 18" fill="none" xmlns="http://www.w3.org/2000/svg">
<g opacity="0.4">
<path d="M11.3339 16.2156C11.0168 16.526 10.5879 16.7156 10.1296 16.7458H10.0002C9.49385 16.7458 9.01331 16.5508 8.66663 16.2114L8.66424 16.2091L2.36628 10.0984L2.36631 10.0984L2.36126 10.0936C0.283081 8.1144 0.205819 4.89404 2.18404 2.82126C4.15047 0.843854 7.38398 0.716249 9.51355 2.53259L10.0002 2.9477L10.4869 2.53259C12.6164 0.716322 15.8498 0.843843 17.8162 2.82102C19.7947 4.89805 19.7174 8.11438 17.6348 10.0979L17.6348 10.0979L17.6296 10.1029L11.3361 16.2135L11.3339 16.2156Z" stroke="black" stroke-width="1.5"/>
</g>
</svg>
