<svg width="25" height="22" viewBox="0 0 25 22" fill="none" xmlns="http://www.w3.org/2000/svg">
<path d="M13.5826 20.3418C13.2131 20.7298 12.7253 20.9571 12.215 20.9945H12.0648C11.5008 20.9945 10.9526 20.7622 10.5471 20.3363L10.544 20.3331L2.9458 12.4253L2.94584 12.4252L2.93934 12.4186C0.439686 9.86498 0.343045 5.67898 2.72708 2.99903C5.06261 0.480241 8.8701 0.324499 11.3898 2.62974L12.0648 3.2473L12.7398 2.62974C15.2594 0.32459 19.0667 0.480229 21.4023 2.99873C23.7867 5.68425 23.6899 9.86499 21.185 12.4241L21.185 12.4241L21.1783 12.431L13.5854 20.3389L13.5826 20.3418Z" stroke="black" stroke-width="2"/>
</svg>
