<svg width="28" height="26" viewBox="0 0 28 26"  xmlns="http://www.w3.org/2000/svg">
<path fill="currentColor" d="M27.2251 7.18793L14.5938 0.37168C14.2226 0.17168 13.7763 0.17168 13.4063 0.37168L0.781319 7.18793C0.173819 7.51793 -0.0524313 8.27543 0.275069 8.88293C0.500069 9.30168 0.931319 9.53918 1.37507 9.53918C1.57507 9.53918 1.78007 9.49168 1.96882 9.38918L2.88632 8.89418L4.87382 22.9567C5.14382 24.4742 6.51132 25.5342 8.19882 25.5342H19.8013C21.4888 25.5342 22.8563 24.4742 23.1288 22.9242L25.1138 8.89293L26.0351 9.39043C26.6413 9.71918 27.4001 9.49293 27.7276 8.88543C28.0563 8.27793 27.8276 7.51918 27.2226 7.19168L27.2251 7.18793ZM14.0001 17.2942C11.7563 17.2942 9.93757 15.4754 9.93757 13.2317C9.93757 10.9879 11.7563 9.16918 14.0001 9.16918C16.2438 9.16918 18.0626 10.9879 18.0626 13.2317C18.0626 15.4754 16.2438 17.2942 14.0001 17.2942Z" />
</svg>
