<svg width="27" height="26" viewBox="0 0 27 26" fill="none" xmlns="http://www.w3.org/2000/svg">
<path d="M25.8161 11.168C25.8161 11.168 25.8139 11.1658 25.8118 11.1637L14.2468 1.14689C13.9521 0.866172 13.5664 0.7076 13.1346 0.701172C12.7264 0.7076 12.3407 0.866172 12.0761 1.1201L0.476778 11.168C0.0278493 11.5622 -0.108222 12.1912 0.147849 12.7419C0.373921 13.2305 0.896778 13.5133 1.43464 13.5133H3.50356V23.424C3.50356 24.459 4.34356 25.299 5.37856 25.299H9.93213C10.5236 25.299 11.0036 24.819 11.0036 24.2276V17.6169C11.0036 17.4208 11.1621 17.2633 11.3571 17.2633H14.9357C15.1307 17.2633 15.2893 17.4208 15.2893 17.6169V24.2276C15.2893 24.819 15.7693 25.299 16.3607 25.299H20.9143C21.9503 25.299 22.7893 24.459 22.7893 23.424V13.5133H24.8582C25.3961 13.5133 25.9189 13.2305 26.145 12.7419C26.4011 12.1912 26.265 11.5622 25.8161 11.168Z" fill="black"/>
</svg>
