<svg width="31" height="30" viewBox="0 0 31 30" fill="none" xmlns="http://www.w3.org/2000/svg">
<path d="M18.8962 25.4463H23.4498C23.8933 25.4463 24.2533 25.0863 24.2533 24.6427V14.9999H24.2866C24.1076 14.9109 23.9383 14.8016 23.783 14.672L23.3533 14.3131C23.2537 14.2316 23.1101 14.2316 23.0105 14.3141L22.8348 14.4609C22.208 14.9816 21.4194 15.2677 20.6051 15.2677H20.363C19.5541 15.2677 18.7698 14.9859 18.1462 14.4706L17.9491 14.3077C17.8494 14.2263 17.7069 14.2263 17.6083 14.3077L17.4101 14.4716C16.7855 14.9859 16.0012 15.2677 15.1933 15.2677H15.0466C14.2483 15.2677 13.4737 14.9934 12.8544 14.4909L12.623 14.3034C12.5233 14.2231 12.3808 14.2241 12.2833 14.3056L12.098 14.4609C11.4712 14.9827 10.6826 15.2677 9.86835 15.2677H9.67763C8.87085 15.2677 8.08978 14.9881 7.46621 14.4759L7.25835 14.3045C7.15871 14.2231 7.01728 14.2231 6.91763 14.3045L6.41299 14.7202C6.28121 14.8284 6.13763 14.9227 5.98763 14.9999H6.03906V24.6427C6.03906 25.0863 6.39906 25.4463 6.84263 25.4463H11.3962V18.7499C11.3962 18.0106 11.9962 17.4106 12.7355 17.4106H17.5569C18.2962 17.4106 18.8962 18.0106 18.8962 18.7499V25.4463ZM4.08156 9.37486H26.2108C26.1819 9.27843 26.1508 9.18307 26.1155 9.08879L24.8823 5.73736C24.5994 5.02272 23.9083 4.55343 23.1401 4.55343H7.15335C6.38406 4.55343 5.69299 5.02272 5.41656 5.71915L4.17692 9.08879C4.14156 9.18307 4.11049 9.27843 4.08156 9.37486ZM26.3962 10.982H3.89621V12.857C3.89621 13.3006 4.25621 13.6606 4.69978 13.6606H4.88299C5.06942 13.6606 5.24942 13.5963 5.39299 13.4784L5.89763 13.0638C6.58871 12.4949 7.58728 12.4949 8.27835 13.0638L8.48621 13.2341C8.82156 13.5095 9.24263 13.6606 9.67763 13.6606H9.86835C10.3066 13.6606 10.7319 13.5074 11.0683 13.2266L11.2548 13.0713C11.9426 12.4981 12.9401 12.4916 13.6344 13.0552L13.8658 13.2416C14.2001 13.5127 14.6169 13.6606 15.0466 13.6606H15.1933C15.6283 13.6606 16.0505 13.5084 16.3869 13.232L16.5851 13.0681C17.2773 12.4959 18.2791 12.4959 18.9723 13.0681L19.1694 13.232C19.5048 13.5084 19.9269 13.6606 20.363 13.6606H20.6051C21.0433 13.6606 21.4687 13.5063 21.8062 13.2256L21.9819 13.0799C22.6762 12.4991 23.6876 12.4991 24.3819 13.0788L24.8126 13.4377C24.9851 13.5813 25.2037 13.6606 25.4298 13.6606C25.9644 13.6606 26.3962 13.2288 26.3962 12.6963V10.982ZM25.8605 15.2324V24.6427C25.8605 25.9745 24.7816 27.0534 23.4498 27.0534H6.84263C5.51085 27.0534 4.43192 25.9745 4.43192 24.6427V15.2527C3.22656 15.1199 2.28906 14.0977 2.28906 12.857V10.6616C2.28906 9.93415 2.41763 9.21415 2.66835 8.53272L3.91549 5.14486C4.44263 3.81736 5.72513 2.94629 7.15335 2.94629H23.1401C24.5673 2.94629 25.8498 3.81736 26.3833 5.16307L27.6241 8.53272C27.8748 9.21415 28.0033 9.93415 28.0033 10.6616V12.6963C28.0033 13.9702 27.0766 15.0277 25.8605 15.2324ZM17.2891 25.4463V19.0177H13.0033V25.4463H17.2891Z" fill="black"/>
</svg>
