<svg width="34" height="38" viewBox="0 0 34 38" fill="none" xmlns="http://www.w3.org/2000/svg">
<path d="M7.57589 0.77132C7.28892 0.91481 6.96607 1.1121 6.89433 1.18385C6.6791 1.39907 6.9302 1.88334 7.34273 1.97302C7.54002 2.02683 7.64763 2.15238 7.59383 2.25999C7.52208 2.34967 7.61176 2.5111 7.77319 2.60077C8.04222 2.7622 8.04222 2.83394 7.6297 3.37201C7.3786 3.7128 7.19924 4.05357 7.21717 4.16119C7.25305 4.25087 7.32479 4.55578 7.3786 4.82481C7.45034 5.14766 7.70144 5.4167 8.1319 5.61399C8.93901 6.00858 9.04663 6.27762 8.59823 6.85156C8.383 7.1206 8.27539 7.44344 8.31126 7.56899C8.45475 7.92771 5.08281 11.7122 4.49093 11.8736C4.23983 11.9274 3.80937 11.9274 3.54033 11.8736C3.14574 11.7839 2.96639 11.8736 2.5718 12.322C2.01579 13.0035 1.99785 13.165 2.46418 13.3085C2.69735 13.3802 2.8229 13.5775 2.8229 13.8645C2.8229 14.0976 2.89464 14.2949 3.00226 14.2949C3.23542 14.2949 3.46859 14.7971 3.61207 15.5863L3.73763 16.2679H2.3207C1.47771 16.2679 0.832023 16.3575 0.706472 16.4831C0.419499 16.7701 0.437435 17.0391 0.724408 16.8777C0.88583 16.7701 0.88583 16.8059 0.724408 16.9853C0.54505 17.1826 0.562985 17.3081 0.88583 17.6489C1.1728 17.9538 1.45978 18.0614 2.05166 18.0614C2.78703 18.0614 2.8229 18.0794 2.64354 18.4202C2.50005 18.6892 2.26689 18.7789 1.69294 18.7789H0.939638L2.05166 19.8909L3.16368 21.0029L3.89905 20.7518C4.31157 20.6083 4.68822 20.411 4.70616 20.3214C4.74203 20.2137 4.81378 19.9088 4.86758 19.6219C4.93933 19.299 5.10075 19.1376 5.33391 19.1376C5.65676 19.1376 5.67469 19.1735 5.4774 19.4963C5.28011 19.8012 5.29804 19.8909 5.49534 20.0164C5.65676 20.1241 5.67469 20.2137 5.54914 20.2855C5.42359 20.3572 5.40566 20.5545 5.49534 20.8056C5.56708 21.0209 5.56708 21.4692 5.4774 21.7921C5.35185 22.2226 5.42359 23.0835 5.69263 24.8232C6.03341 27.1011 6.14103 27.4419 7.50415 30.491C8.29332 32.2845 9.11837 34.383 9.3336 35.1543C9.65645 36.338 9.8358 36.6609 10.3918 37.0913C11.1092 37.6832 11.5397 37.6294 11.8087 36.9479C11.8984 36.7147 12.2033 36.4098 12.5082 36.2842C12.8132 36.1587 13.0104 36.0152 12.9566 35.9614C12.7414 35.7462 13.2257 34.9211 13.5844 34.9211C13.9072 34.9211 13.9431 34.8135 13.9431 33.8629C13.9431 33.2889 14.0687 32.4998 14.2301 32.1231C14.4453 31.603 14.4991 31.0828 14.4274 30.0246C14.3198 28.2849 14.3915 27.9979 15.0372 27.7647C15.3242 27.675 15.6111 27.4598 15.6649 27.3163C15.7188 27.1549 16.0416 26.9935 16.3824 26.9217C16.7949 26.85 16.9922 26.7065 16.9922 26.4913C16.9922 26.3119 17.5123 25.7738 18.2118 25.2537C18.8755 24.7515 19.6108 24.052 19.844 23.7112C20.0592 23.3704 20.687 22.8503 21.225 22.5454C22.3012 21.9535 22.8213 21.2899 22.6779 20.7518C22.6061 20.4828 22.7137 20.3214 23.0904 20.1241C23.3594 19.9806 23.6285 19.7295 23.7002 19.5681C23.8078 19.2811 23.8437 19.2811 24.0589 19.586C24.2741 19.8909 24.2921 19.8909 24.4176 19.586C24.5073 19.3169 24.579 19.3169 24.8302 19.5142C25.0992 19.7474 25.1171 19.6757 25.0095 18.7968C24.9378 18.2587 24.8122 17.7386 24.7046 17.631C24.6149 17.5413 24.5252 17.2902 24.5252 17.0929C24.5252 16.8956 24.31 16.5369 24.041 16.3037C23.754 16.0706 23.6285 15.8553 23.7361 15.8015C23.8437 15.7477 24.0948 15.6042 24.2741 15.4608C24.597 15.2276 24.597 15.2097 24.1307 14.833C23.8257 14.5998 23.6823 14.3487 23.7361 14.1514C23.7899 13.99 23.8796 13.7389 23.9154 13.6134C23.9692 13.434 24.1127 13.4699 24.5073 13.7568C24.7943 13.9541 25.153 14.0976 25.2785 14.0797C25.4041 14.0438 25.5835 14.277 25.6731 14.5819C25.8346 15.1379 25.8704 15.1558 27.1618 15.2276C27.8792 15.2814 28.5249 15.3711 28.5967 15.4249C28.6505 15.4966 28.3994 15.8733 28.0407 16.2679C27.395 16.9853 27.395 17.0032 27.6999 17.4696L28.0048 17.9359L28.1662 17.4516C28.3994 16.7521 28.7043 16.9674 28.9913 18.0435C29.1706 18.7251 29.3141 18.9582 29.5293 18.9224C29.7446 18.8686 29.8342 18.5816 29.8701 17.631C29.9239 16.4472 29.9419 16.4113 30.3544 16.4831C30.8566 16.5907 30.8386 16.6445 31.2512 14.4743C31.6099 12.6986 32.13 11.9633 33.0268 11.9633C33.547 11.9633 33.5828 11.9274 33.6187 11.2458C33.6366 10.5643 33.6008 10.5284 33.1344 10.5284C32.7219 10.5284 32.6502 10.4567 32.7219 10.1697C32.7757 9.97239 32.7398 9.81097 32.6322 9.81097C32.5426 9.81097 32.417 9.63161 32.3632 9.41638L32.2556 9.0218L31.9148 9.41638C31.6278 9.73923 31.4843 9.79304 31.1077 9.64955C30.731 9.50606 30.5337 9.55987 29.9419 10.0083C29.5473 10.2952 29.0989 10.7436 28.9375 10.9768C28.7581 11.2279 28.4173 11.5149 28.1662 11.6225C27.8434 11.748 27.7537 11.8736 27.8434 12.1068C27.8972 12.2682 27.9689 12.4834 27.9869 12.591C28.0227 12.7704 26.7134 13.0035 25.4579 13.0215C24.7046 13.0394 24.6687 13.0035 24.3997 12.322C24.2024 11.8557 24.0051 11.6046 23.8257 11.6404C23.6105 11.6763 23.5746 11.9274 23.6105 12.7524L23.6643 13.8107L22.5344 13.703C21.9245 13.6313 21.1892 13.5775 20.9201 13.5775C20.6152 13.5775 20.1668 13.3623 19.8081 13.0394C19.288 12.591 19.0369 12.5013 18.3015 12.5013C17.602 12.5013 17.1177 12.3399 15.9878 11.7301C14.3556 10.8512 14.1404 10.4208 14.9116 9.524L15.3421 8.98592L14.3556 8.30436C13.7996 7.90977 13.2436 7.60487 13.1001 7.60487C12.9746 7.60487 12.8132 7.38964 12.7593 7.13853C12.7055 6.88743 12.6159 6.52872 12.562 6.34936C12.4903 6.08032 12.5441 6.02651 12.8132 6.11619C12.9925 6.17 13.2615 6.13413 13.405 6.04445C13.6382 5.90096 13.6203 5.81129 13.3512 5.32702C12.9746 4.7172 13.0643 4.4661 14.0328 3.42582C14.7502 2.65458 14.7861 2.18825 14.1942 1.66811C13.692 1.25559 13.6561 1.23765 13.1539 1.52463C12.867 1.70398 12.5441 1.97302 12.4365 2.13445C12.2033 2.5111 11.6653 2.54697 10.7147 2.25999C10.1766 2.09857 10.0152 1.93715 9.92548 1.54256C9.87168 1.21972 9.63851 0.932743 9.29773 0.753387C8.61617 0.412605 8.25745 0.412605 7.57589 0.77132Z" fill="black"/>
</svg>
