<svg width="30" height="30" viewBox="0 0 30 30" fill="none" xmlns="http://www.w3.org/2000/svg">
<path d="M24.6875 27.5H5.3125C3.7625 27.5 2.5 26.2375 2.5 24.6875V5.3125C2.5 3.7625 3.7625 2.5 5.3125 2.5H24.6875C26.2375 2.5 27.5 3.7625 27.5 5.3125V24.6875C27.5 26.2375 26.2375 27.5 24.6875 27.5ZM5.3125 4.375C4.795 4.375 4.375 4.79625 4.375 5.3125V24.6875C4.375 25.2038 4.795 25.625 5.3125 25.625H24.6875C25.205 25.625 25.625 25.2038 25.625 24.6875V5.3125C25.625 4.79625 25.205 4.375 24.6875 4.375H5.3125Z" fill="#0F1419"/>
<path d="M21.25 10.7998H8.75C8.2325 10.7998 7.8125 10.3786 7.8125 9.8623C7.8125 9.34605 8.2325 8.9248 8.75 8.9248H21.25C21.7675 8.9248 22.1875 9.34355 22.1875 9.8623C22.1875 10.3811 21.7675 10.7998 21.25 10.7998ZM21.25 15.9373H8.75C8.2325 15.9373 7.8125 15.5173 7.8125 14.9998C7.8125 14.4823 8.2325 14.0623 8.75 14.0623H21.25C21.7675 14.0623 22.1875 14.4823 22.1875 14.9998C22.1875 15.5173 21.7675 15.9373 21.25 15.9373ZM15 21.0748H8.75C8.2325 21.0748 7.8125 20.6561 7.8125 20.1373C7.8125 19.6186 8.2325 19.1998 8.75 19.1998H15C15.5175 19.1998 15.9375 19.6211 15.9375 20.1373C15.9375 20.6536 15.5175 21.0748 15 21.0748Z" fill="#0F1419"/>
</svg>
