<svg width="12" height="14" viewBox="0 0 12 14" fill="none" xmlns="http://www.w3.org/2000/svg">
<path fill-rule="evenodd" clip-rule="evenodd" d="M6.20885 12.4394C6.11491 12.5125 6.02735 12.5788 5.94735 12.6383C5.86199 12.5783 5.76731 12.5092 5.66465 12.4314C5.18057 12.064 4.55277 11.5248 3.93448 10.8523C2.66628 9.47271 1.6 7.71174 1.6 5.83333C1.6 3.256 3.56995 1.16667 6 1.16667C8.43005 1.16667 10.4 3.256 10.4 5.83333C10.4 7.6916 9.28673 9.44751 7.97215 10.8417C7.33437 11.5182 6.69256 12.0633 6.20885 12.4394ZM11.5 5.83333C11.5 10.5 6 14 6 14C5.725 14 0.5 10.5 0.5 5.83333C0.5 2.61167 2.96243 0 6 0C9.03754 0 11.5 2.61167 11.5 5.83333ZM7.1 5.83333C7.1 6.47764 6.60749 7 6 7C5.39251 7 4.9 6.47764 4.9 5.83333C4.9 5.189 5.39251 4.66667 6 4.66667C6.60749 4.66667 7.1 5.189 7.1 5.83333ZM8.2 5.83333C8.2 7.12203 7.21506 8.16667 6 8.16667C4.78494 8.16667 3.8 7.12203 3.8 5.83333C3.8 4.54467 4.78494 3.5 6 3.5C7.21506 3.5 8.2 4.54467 8.2 5.83333Z" fill="black"/>
</svg>
