<svg width="40" height="41" viewBox="0 0 40 41" fill="none" xmlns="http://www.w3.org/2000/svg">
<circle cx="20" cy="20.4277" r="20" fill="black" fill-opacity="0.1"/>
<g clip-path="url(#clip0_2369_15115)">
<path d="M13.1819 16.3369C14.6881 16.3369 15.9091 15.1158 15.9091 13.6096C15.9091 12.1034 14.6881 10.8823 13.1819 10.8823C11.6756 10.8823 10.4546 12.1034 10.4546 13.6096C10.4546 15.1158 11.6756 16.3369 13.1819 16.3369Z" fill="black"/>
<path d="M20.0002 16.3369C21.5065 16.3369 22.7275 15.1158 22.7275 13.6096C22.7275 12.1034 21.5065 10.8823 20.0002 10.8823C18.494 10.8823 17.2729 12.1034 17.2729 13.6096C17.2729 15.1158 18.494 16.3369 20.0002 16.3369Z" fill="black"/>
<path d="M26.8181 16.3369C28.3243 16.3369 29.5454 15.1158 29.5454 13.6096C29.5454 12.1034 28.3243 10.8823 26.8181 10.8823C25.3119 10.8823 24.0908 12.1034 24.0908 13.6096C24.0908 15.1158 25.3119 16.3369 26.8181 16.3369Z" fill="black"/>
<path d="M13.1819 23.1552C14.6881 23.1552 15.9091 21.9342 15.9091 20.428C15.9091 18.9217 14.6881 17.7007 13.1819 17.7007C11.6756 17.7007 10.4546 18.9217 10.4546 20.428C10.4546 21.9342 11.6756 23.1552 13.1819 23.1552Z" fill="black"/>
<path d="M20.0002 23.1552C21.5065 23.1552 22.7275 21.9342 22.7275 20.428C22.7275 18.9217 21.5065 17.7007 20.0002 17.7007C18.494 17.7007 17.2729 18.9217 17.2729 20.428C17.2729 21.9342 18.494 23.1552 20.0002 23.1552Z" fill="black"/>
<path d="M26.8181 23.1552C28.3243 23.1552 29.5454 21.9342 29.5454 20.428C29.5454 18.9217 28.3243 17.7007 26.8181 17.7007C25.3119 17.7007 24.0908 18.9217 24.0908 20.428C24.0908 21.9342 25.3119 23.1552 26.8181 23.1552Z" fill="black"/>
<path d="M13.1819 29.9731C14.6881 29.9731 15.9091 28.7521 15.9091 27.2458C15.9091 25.7396 14.6881 24.5186 13.1819 24.5186C11.6756 24.5186 10.4546 25.7396 10.4546 27.2458C10.4546 28.7521 11.6756 29.9731 13.1819 29.9731Z" fill="black"/>
<path d="M20.0002 29.9731C21.5065 29.9731 22.7275 28.7521 22.7275 27.2458C22.7275 25.7396 21.5065 24.5186 20.0002 24.5186C18.494 24.5186 17.2729 25.7396 17.2729 27.2458C17.2729 28.7521 18.494 29.9731 20.0002 29.9731Z" fill="black"/>
<path d="M26.8181 29.9731C28.3243 29.9731 29.5454 28.7521 29.5454 27.2458C29.5454 25.7396 28.3243 24.5186 26.8181 24.5186C25.3119 24.5186 24.0908 25.7396 24.0908 27.2458C24.0908 28.7521 25.3119 29.9731 26.8181 29.9731Z" fill="black"/>
</g>
<defs>
<clipPath id="clip0_2369_15115">
<rect width="20" height="20" fill="white" transform="translate(10 10.4277)"/>
</clipPath>
</defs>
</svg>
