<svg width="23" height="22" viewBox="0 0 23 22" fill="none" xmlns="http://www.w3.org/2000/svg">
<g opacity="0.4">
<path d="M17.5171 9.77389V13.7739C17.5171 14.0339 17.5071 14.2839 17.4771 14.5239C17.2471 17.2239 15.6571 18.5639 12.7271 18.5639H12.3271C12.0771 18.5639 11.8371 18.6839 11.6871 18.8839L10.4871 20.4839C9.95711 21.1939 9.09711 21.1939 8.56711 20.4839L7.3671 18.8839C7.2371 18.7139 6.94711 18.5639 6.72711 18.5639H6.32712C3.13712 18.5639 1.53711 17.7739 1.53711 13.7739V9.77389C1.53711 6.8439 2.88712 5.2539 5.57712 5.0239C5.81712 4.9939 6.06712 4.98389 6.32712 4.98389H12.7271C15.9171 4.98389 17.5171 6.5839 17.5171 9.77389Z" stroke="black" stroke-width="1.5" stroke-miterlimit="10" stroke-linecap="round" stroke-linejoin="round"/>
<path opacity="0.4" d="M21.5162 5.7739V9.77389C21.5162 12.7139 20.1662 14.2939 17.4762 14.5239C17.5062 14.2839 17.5162 14.0339 17.5162 13.7739V9.77389C17.5162 6.5839 15.9162 4.98389 12.7262 4.98389H6.32617C6.06617 4.98389 5.81617 4.9939 5.57617 5.0239C5.80617 2.3339 7.39617 0.983887 10.3262 0.983887H16.7262C19.9162 0.983887 21.5162 2.5839 21.5162 5.7739Z" stroke="black" stroke-width="1.5" stroke-miterlimit="10" stroke-linecap="round" stroke-linejoin="round"/>
<path d="M13.0312 12.2339H13.0403" stroke="black" stroke-width="2" stroke-linecap="round" stroke-linejoin="round"/>
<path d="M9.53125 12.2339H9.54025" stroke="black" stroke-width="2" stroke-linecap="round" stroke-linejoin="round"/>
<path d="M6.03223 12.2339H6.04123" stroke="black" stroke-width="2" stroke-linecap="round" stroke-linejoin="round"/>
</g>
</svg>
