<svg width="28" height="18" viewBox="0 0 28 18" fill="none" xmlns="http://www.w3.org/2000/svg">
<path fill-rule="evenodd" clip-rule="evenodd" d="M0 0H28V18H0V0ZM12.4163 6.03475H15.5837C15.6087 6.03475 15.6338 6.06574 15.6338 6.09673V6.69964C15.6338 6.73063 15.6087 6.76162 15.5837 6.76162H14.5924C14.752 6.98983 14.8613 7.26029 14.9115 7.55048H15.5837C15.6087 7.55048 15.6338 7.58147 15.6338 7.61246V8.21537C15.6338 8.24636 15.6087 8.27735 15.5837 8.27735H14.9115C14.8522 8.62952 14.7018 8.95351 14.4922 9.20144C14.2233 9.52262 13.8451 9.71983 13.4326 9.71983H13.3916L15.1735 12.2244C15.2236 12.2977 15.1393 12.4414 15.0983 12.4414L14.2757 12.4527L12.3776 9.77336C12.3617 9.75364 12.3617 9.72265 12.3617 9.69166V8.71404H13.4372C13.6309 8.71404 13.8063 8.62107 13.9339 8.47457C13.9841 8.41258 14.0273 8.3506 14.0592 8.27735H12.4118C12.3867 8.27735 12.3617 8.24636 12.3617 8.21537V7.61246C12.3617 7.58147 12.3867 7.55048 12.4118 7.55048H14.0592C14.0251 7.47723 13.9841 7.41525 13.9339 7.35326C13.8086 7.20676 13.6309 7.11379 13.4372 7.11379H12.3617V6.10518C12.3617 6.07419 12.3867 6.0432 12.4118 6.0432L12.4163 6.03475ZM13.9954 3.70762C16.3652 3.70762 18.2793 6.07701 18.2793 9.00423C18.2793 11.9343 16.363 14.3008 13.9954 14.3008C11.6257 14.3008 9.71159 11.9314 9.71159 9.00423C9.71159 6.07701 11.6257 3.70762 13.9954 3.70762ZM4.67122 2.74127H23.2878C23.2878 4.20629 24.2539 5.40085 25.4388 5.40085V12.5146C24.2539 12.5146 23.2878 13.7092 23.2878 15.1742H4.67122C4.67122 13.7092 3.70508 12.5146 2.52018 12.5146V5.40085C3.70508 5.40085 4.67122 4.20629 4.67122 2.74127Z" fill="black"/>
</svg>
