<svg width="30" height="30" viewBox="0 0 30 30" fill="none" xmlns="http://www.w3.org/2000/svg">
<path d="M27.1212 20.5851C27.0962 20.5651 24.4462 18.5351 24.4925 13.0476C24.5175 9.8826 23.4775 7.0701 21.5587 5.12885C19.84 3.3876 17.5125 2.4251 15.0062 2.4126H14.99C12.485 2.4251 10.1575 3.3876 8.43748 5.1301C6.51998 7.07135 5.47748 9.8826 5.50498 13.0476C5.55123 18.4601 2.97998 20.5063 2.87748 20.5851C2.55248 20.8263 2.41998 21.2476 2.54623 21.6326C2.67373 22.0176 3.03373 22.2763 3.43623 22.2763H9.58623C9.71373 25.1638 12.0825 27.4763 14.9987 27.4763C17.915 27.4763 20.2812 25.1638 20.4075 22.2763H26.56C26.9625 22.2763 27.3225 22.0188 27.4475 21.6338C27.5762 21.2501 27.4437 20.8276 27.1187 20.5863L27.1212 20.5851ZM15 25.5976C13.1187 25.5976 11.5875 24.1263 11.465 22.2751H18.535C18.41 24.1251 16.8812 25.6001 15 25.6001V25.5976ZM5.47498 20.4001C6.39998 18.9851 7.40998 16.6151 7.37998 13.0301C7.35748 10.3301 8.18498 8.0526 9.77123 6.44635C11.1375 5.0626 12.9962 4.29635 15 4.2876C17.0037 4.2976 18.8587 5.0626 20.225 6.4476C21.8125 8.05385 22.6412 10.3301 22.6187 13.0313C22.5887 16.6163 23.6 18.9876 24.525 20.4013H5.47498V20.4001Z" fill="#0F1419"/>
</svg>
