<svg width="33" height="31" viewBox="0 0 33 31" fill="none" xmlns="http://www.w3.org/2000/svg">
<path d="M10.3298 14.2214C11.9924 14.2214 13.3402 12.8138 13.3402 11.0773C13.3402 9.3408 11.9924 7.93311 10.3298 7.93311C8.66716 7.93311 7.31934 9.3408 7.31934 11.0773C7.31934 12.8138 8.66716 14.2214 10.3298 14.2214Z" stroke="black" stroke-width="2" stroke-linecap="round" stroke-linejoin="round"/>
<path d="M8.16309 29.9419C16.5471 10.9196 23.5163 7.58683 31.4037 19.9277" stroke="black" stroke-width="2" stroke-linecap="round" stroke-linejoin="round"/>
<path d="M25.3824 1.64453H7.31973C3.99448 1.64453 1.29883 4.45991 1.29883 7.93287V23.6537C1.29883 27.1266 3.99448 29.9421 7.31973 29.9421H25.3824C28.7076 29.9421 31.4033 27.1266 31.4033 23.6537V7.93287C31.4033 4.45991 28.7076 1.64453 25.3824 1.64453Z" stroke="black" stroke-width="2" stroke-linecap="round" stroke-linejoin="round"/>
</svg>
