<svg width="72" height="57" viewBox="0 0 72 57" fill="none" xmlns="http://www.w3.org/2000/svg">
<path d="M23.6518 42.7195L26.9292 52.8243C27.3173 54.0252 26.8214 55.312 25.6355 56.1184L24.8593 56.6501L14.3154 45.9277L19.0375 41.6729L23.6518 42.7195Z" fill="url(#paint0_linear_2190_19795)"/>
<path d="M24.5574 54.8322C24.8162 55.158 25.269 55.381 25.7649 55.3982L26.4118 55.4156C26.1961 55.6729 25.9374 55.9131 25.6355 56.1361L24.8593 56.6678L14.3154 45.9455L15.2642 45.1048L16.8598 44.9502L24.5574 54.8322Z" fill="url(#paint1_linear_2190_19795)"/>
<path d="M25.0731 55.414C26.4746 53.2353 24.879 49.4268 22.3347 42.6843C19.3376 34.7069 20.2863 41.6722 20.2863 41.6722L15.6289 44.966C15.6505 44.966 24.8144 55.8088 25.0731 55.414Z" fill="url(#paint2_linear_2190_19795)"/>
<path d="M23.6518 42.7195L26.9292 52.8243C27.3173 54.0252 26.8214 55.312 25.6355 56.1184L24.8593 56.6501L14.3154 45.9277L19.0375 41.6729L23.6518 42.7195Z" fill="url(#paint3_linear_2190_19795)"/>
<path d="M18.3463 38.4982L5.64624 35.8904C4.1369 35.5818 2.51971 35.9763 1.5063 36.9199L0.837891 37.5375L14.3142 45.9268L19.6616 42.1697L18.3463 38.4982Z" fill="url(#paint4_linear_2190_19795)"/>
<path d="M2.39114 37.3666C5.12951 36.2515 9.91632 37.5209 18.3902 39.5453C28.4165 41.93 19.6623 41.1753 19.6623 41.1753L15.5224 44.8807C15.5224 44.8636 1.89521 37.5725 2.39114 37.3666Z" fill="url(#paint5_linear_2190_19795)"/>
<path d="M18.3463 38.4982L5.64624 35.8904C4.1369 35.5818 2.51971 35.9763 1.5063 36.9199L0.837891 37.5375L14.3142 45.9268L19.6616 42.1697L18.3463 38.4982Z" fill="url(#paint6_linear_2190_19795)"/>
<path d="M3.12345 37.7776C2.71378 37.5716 2.43349 37.2113 2.41191 36.8168L2.39036 36.3022C2.06691 36.4737 1.76504 36.6796 1.48476 36.9198L0.837891 37.5374L14.3142 45.9267L15.3707 45.1719L15.5648 43.9022L3.12345 37.7776Z" fill="url(#paint7_linear_2190_19795)"/>
<path d="M65.6525 34.8115L61.0596 38.4656L65.7389 42.1885L70.3315 38.5344L70.2451 38.3629C69.4259 36.7159 67.7656 35.4291 65.6525 34.8115Z" fill="url(#paint8_linear_2190_19795)"/>
<path d="M66.6875 35.1718L64.6824 36.7672C63.8413 37.4364 63.5609 38.4143 63.9492 39.3063L64.5529 40.6618H65.5231C66.3426 40.6618 67.1188 40.4045 67.7011 39.9412L70.0941 38.0369C70.159 38.1399 70.2235 38.2428 70.2669 38.3629L70.353 38.5344L65.7389 42.1885L61.0596 38.4656L65.6525 34.8115C66.0189 34.9145 66.3426 35.0346 66.6875 35.1718Z" fill="url(#paint9_linear_2190_19795)"/>
<path opacity="0.5" d="M63.5186 40.4202L68.6288 36.3545C69.0601 36.7148 69.448 37.1093 69.7718 37.5554L64.8555 41.4668L63.5186 40.4202Z" fill="url(#paint10_linear_2190_19795)"/>
<path opacity="0.75" d="M65.0488 37.1791C66.1913 38.0198 66.666 39.6839 66.1698 41.8627L65.7604 42.1885L61.0596 38.4656L65.6525 34.8115C66.0838 34.9316 66.4717 35.0859 66.86 35.2577C66.1053 35.738 64.2511 36.5958 65.0488 37.1791Z" fill="url(#paint11_linear_2190_19795)"/>
<path d="M61.1892 23.3154L56.5967 26.9695L61.2756 30.6924L65.8682 27.0383L65.7822 26.8665C64.9626 25.2369 63.3023 23.933 61.1892 23.3154Z" fill="url(#paint12_linear_2190_19795)"/>
<path d="M62.2028 23.6933L60.1976 25.2887C59.3565 25.9576 59.0762 26.9358 59.4644 27.8277L60.0682 29.183H61.0383C61.8579 29.183 62.634 28.9257 63.2163 28.4624L65.6097 26.5581C65.6742 26.661 65.7391 26.764 65.7822 26.8841L65.8682 27.0558L61.2756 30.7099L56.5967 26.9871L61.1892 23.333C61.556 23.4186 61.8794 23.5558 62.2028 23.6933Z" fill="url(#paint13_linear_2190_19795)"/>
<path opacity="0.5" d="M59.0557 28.9259L64.1659 24.8599C64.5972 25.2201 64.9851 25.6149 65.3085 26.0608L60.3926 29.9725L59.0557 28.9259Z" fill="url(#paint14_linear_2190_19795)"/>
<path opacity="0.75" d="M60.5868 25.7003C61.7294 26.541 62.2037 28.2051 61.7079 30.3839L61.2981 30.7099L56.6191 26.9871L61.2121 23.333C61.6434 23.4531 62.0313 23.6074 62.4195 23.7788C61.6434 24.2421 59.7673 25.0999 60.5868 25.7003Z" fill="url(#paint15_linear_2190_19795)"/>
<path d="M43.8547 27.5368C43.8547 27.5368 54.6145 36.7667 57.5897 42.6512L63.3252 53.9398C63.4977 54.2827 64.0584 54.3172 64.3603 54.0254C66.193 52.0868 67.8748 48.7759 67.1201 46.4941L61.3631 28.789C59.3579 24.1913 56.8785 19.7479 53.9458 15.5104L52.8678 13.9492L41.8926 24.3285L43.8547 27.5368Z" fill="url(#paint16_linear_2190_19795)"/>
<path d="M61.0167 49.3407L60.9736 49.3235L57.5882 42.6669C54.591 36.7824 43.8532 27.5524 43.8532 27.5524L43.4219 26.8148L45.3625 25.6826C52.3919 32.3048 57.4157 38.5324 59.4643 42.6498C61.5125 46.8187 60.9952 49.3235 61.0167 49.3407Z" fill="url(#paint17_linear_2190_19795)"/>
<path d="M53.7941 19.7134C58.4082 25.1518 65.9549 42.8394 65.9549 47.0943C65.9549 51.3317 65.5021 47.9692 64.9847 45.3788C64.4674 42.7881 59.7235 31.5682 57.7614 28.8746C55.7993 26.1812 50.5596 21.9779 50.5596 21.9779L53.7941 19.7134Z" fill="url(#paint18_linear_2190_19795)"/>
<path d="M43.8547 27.5368C43.8547 27.5368 54.6145 36.7667 57.5897 42.6512L63.3252 53.9398C63.4977 54.2827 64.0584 54.3172 64.3603 54.0254C66.193 52.0868 67.8748 48.7759 67.1201 46.4941L61.3631 28.789C59.3579 24.1913 56.8785 19.7479 53.9458 15.5104L52.8678 13.9492L41.8926 24.3285L43.8547 27.5368Z" fill="url(#paint19_linear_2190_19795)"/>
<path d="M42.7338 8.63153L38.1409 12.2857L33.4619 8.5629L38.0548 4.90869L38.2703 4.97729C40.3189 5.62924 41.9576 6.95025 42.7338 8.63153Z" fill="url(#paint20_linear_2190_19795)"/>
<path d="M42.2582 7.8252L40.253 9.42068C39.4119 10.0898 38.1829 10.3128 37.0619 10.004L35.3586 9.52363V8.75162C35.3586 8.09967 35.682 7.48207 36.2642 7.01885L38.6573 5.11456C38.5282 5.06307 38.3988 5.01161 38.2478 4.97729L38.032 4.90869L33.4395 8.5629L38.1184 12.2857L42.711 8.63153C42.6034 8.33986 42.4306 8.08253 42.2582 7.8252Z" fill="url(#paint21_linear_2190_19795)"/>
<path opacity="0.5" d="M35.6826 10.3297L40.7928 6.26376C40.34 5.92063 39.8442 5.61185 39.2835 5.35449L34.3672 9.26605L35.6826 10.3297Z" fill="url(#paint22_linear_2190_19795)"/>
<path opacity="0.75" d="M39.7357 9.11059C38.6791 8.20134 36.5876 7.82389 33.8492 8.21849L33.4395 8.54444L38.1184 12.2673L42.711 8.61308C42.56 8.26995 42.3661 7.96116 42.1506 7.65234C41.5684 8.26994 40.4903 9.76253 39.7357 9.11059Z" fill="url(#paint23_linear_2190_19795)"/>
<path d="M28.2853 5.07928L23.6926 8.73349L19.0137 5.01065L23.6064 1.35645L23.822 1.42508C25.8919 2.07699 27.5091 3.398 28.2853 5.07928Z" fill="url(#paint24_linear_2190_19795)"/>
<path d="M27.8325 4.25587L25.8273 5.85138C24.9863 6.52044 23.7573 6.74348 22.6361 6.43466L20.9327 5.95429V5.18229C20.9327 4.53037 21.2561 3.91274 21.8383 3.44954L24.2317 1.54522C24.1023 1.49376 23.9729 1.4423 23.822 1.40799L23.6064 1.33936L19.0137 5.01074L23.6926 8.73357L28.2853 5.07934C28.1559 4.78769 28.005 4.53037 27.8325 4.25587Z" fill="url(#paint25_linear_2190_19795)"/>
<path opacity="0.5" d="M21.2352 6.77746L26.3454 2.71152C25.8926 2.36839 25.3967 2.05957 24.836 1.80225L19.9199 5.73095L21.2352 6.77746Z" fill="url(#paint26_linear_2190_19795)"/>
<path opacity="0.75" d="M25.3098 5.55926C24.2532 4.65002 22.1617 4.27257 19.4233 4.66716L19.0137 5.01029L23.6926 8.73313L28.2853 5.0789C28.1344 4.7358 27.9403 4.42698 27.7247 4.11816C27.121 4.71862 26.0429 6.19404 25.3098 5.55926Z" fill="url(#paint27_linear_2190_19795)"/>
<path d="M37.4282 22.4226C37.4282 22.4226 25.828 13.8617 18.4322 11.4942L4.24441 6.93073C3.81319 6.79349 3.77006 6.34744 4.13661 6.10726C6.59468 4.66616 10.7562 3.32798 13.6239 3.92844L35.8759 8.50909C41.6544 10.1046 47.239 12.0775 52.565 14.4107L54.5272 15.2685L41.4819 24.0009L37.4282 22.4226Z" fill="url(#paint28_linear_2190_19795)"/>
<path d="M47.2601 14.5149C40.425 10.8264 18.1729 4.82178 12.847 4.82178C7.52121 4.82178 11.7474 5.18205 15.0032 5.59378C18.2591 6.00552 32.3606 9.77985 35.746 11.341C39.1311 12.9022 44.4138 17.0711 44.4138 17.0711L47.2601 14.5149Z" fill="url(#paint29_linear_2190_19795)"/>
<path d="M37.4282 22.4226C37.4282 22.4226 25.828 13.8617 18.4322 11.4942L4.24441 6.93073C3.81319 6.79349 3.77006 6.34744 4.13661 6.10726C6.59468 4.66616 10.7562 3.32798 13.6239 3.92844L35.8759 8.50909C41.6544 10.1046 47.239 12.0775 52.565 14.4107L54.5272 15.2685L41.4819 24.0009L37.4282 22.4226Z" fill="url(#paint30_linear_2190_19795)"/>
<path d="M10.0244 8.76864L10.046 8.80295L18.412 11.4964C25.8078 13.8811 37.4083 22.4248 37.4083 22.4248L38.3355 22.768L39.7584 21.2238C31.4355 15.6482 23.6085 11.6508 18.4336 10.021C13.194 8.37408 10.046 8.78581 10.0244 8.76864Z" fill="url(#paint31_linear_2190_19795)"/>
<path d="M14.7662 45.5669C20.2214 45.7729 31.0886 39.614 33.5035 37.6925C35.9185 35.771 62.6339 14.5319 66.3427 11.5811C70.0512 8.6303 73.4151 2.12818 71.3881 0.515533C69.3614 -1.09712 61.1894 1.57919 57.4806 4.53001C53.7718 7.48084 27.035 28.7541 24.6416 30.6584C22.2482 32.5628 14.4859 41.2265 14.7662 45.5669Z" fill="url(#paint32_radial_2190_19795)"/>
<path d="M14.7662 45.5669C20.2214 45.7729 31.0886 39.614 33.5035 37.6925C35.9185 35.771 62.6339 14.5319 66.3427 11.5811C70.0512 8.6303 73.4151 2.12818 71.3881 0.515533C69.3614 -1.09712 61.1894 1.57919 57.4806 4.53001C53.7718 7.48084 27.035 28.7541 24.6416 30.6584C22.2482 32.5628 14.4859 41.2265 14.7662 45.5669Z" fill="url(#paint33_linear_2190_19795)"/>
<path d="M21.3232 40.3523C24.4497 39.6663 32.212 34.4678 34.0662 32.9925C35.9209 31.5172 59.0568 13.1088 61.9031 10.8442C64.7493 8.57961 65.6334 6.3665 64.8353 5.73173C64.0377 5.09696 61.2563 5.80036 58.4101 8.06493C55.5638 10.3295 32.4279 28.738 30.5732 30.2133C28.719 31.6886 22.1857 37.8649 21.3232 40.3523Z" fill="url(#paint34_linear_2190_19795)"/>
<path d="M21.494 42.0335C24.1246 39.992 23.1328 38.894 23.1328 38.894L14.7451 45.1901C14.7451 45.3102 14.7451 45.4474 14.7451 45.5675C16.1682 45.6192 17.9363 45.2415 19.8338 44.6239C19.8553 43.9892 20.1787 43.0627 21.494 42.0335Z" fill="url(#paint35_linear_2190_19795)"/>
<path d="M12.2217 47.5923C13.1488 47.5064 15.1757 46.2542 15.65 45.8768C16.1244 45.4991 21.213 41.4505 21.9246 40.8843C22.6577 40.3009 23.4339 39.1343 23.132 38.9115C22.8302 38.6884 21.364 39.306 20.6524 39.8722C19.9193 40.4553 14.8307 44.5041 14.3779 44.8644C13.9035 45.2418 12.3079 46.8717 12.2217 47.5923Z" fill="url(#paint36_linear_2190_19795)"/>
<path d="M15.65 45.8752C16.1244 45.4978 22.5283 40.4882 21.4718 41.2432C22.9596 40.1966 23.9946 38.2238 22.5068 39.4248C21.019 40.6086 12.2217 47.6081 12.2217 47.6081C13.1273 47.5222 15.1757 46.2529 15.65 45.8752Z" fill="url(#paint37_linear_2190_19795)"/>
<path d="M67.249 5.32008L67.8528 6.34944L69.2327 6.26367L68.8229 4.6167L67.249 5.32008Z" fill="url(#paint38_linear_2190_19795)"/>
<path d="M65.3531 3.82744L66.1942 2.55792L64.1675 2.23193L64.0596 3.32993L65.3531 3.82744Z" fill="url(#paint39_linear_2190_19795)"/>
<path d="M67.8108 3.39828C67.6599 3.27819 67.4655 3.1581 67.2716 3.05518L66.5169 2.67773L65.6328 3.99874L66.0641 4.34187L66.5814 4.75361L67.0127 5.09671L68.63 4.37619L68.2851 3.89582C68.1557 3.7071 68.0047 3.55269 67.8108 3.39828Z" fill="url(#paint40_linear_2190_19795)"/>
<path d="M67.918 6.64046L67.6592 8.16734L67.8965 8.0987C68.4787 7.9443 68.9316 7.56688 69.0825 7.08651L69.2549 6.55469L67.918 6.64046Z" fill="url(#paint41_linear_2190_19795)"/>
<path d="M63.7991 2.23193L63.1309 2.3692C62.5271 2.48929 62.0528 2.84956 61.8585 3.31276L61.7725 3.50148L63.6912 3.29561L63.7991 2.23193Z" fill="url(#paint42_linear_2190_19795)"/>
<defs>
<linearGradient id="paint0_linear_2190_19795" x1="28.2709" y1="46.4339" x2="15.6403" y2="55.0925" gradientUnits="userSpaceOnUse">
<stop offset="0.4927" stop-color="white"/>
<stop offset="0.5861" stop-color="#F9FAFA"/>
<stop offset="0.7161" stop-color="#E6ECEC"/>
<stop offset="0.8672" stop-color="#C9D5D6"/>
<stop offset="1" stop-color="#A9BCBE"/>
</linearGradient>
<linearGradient id="paint1_linear_2190_19795" x1="14.5186" y1="55.3171" x2="24.2672" y2="43.0647" gradientUnits="userSpaceOnUse">
<stop stop-color="white"/>
<stop offset="0.1839" stop-color="#F9FAFA"/>
<stop offset="0.4404" stop-color="#E6ECEC"/>
<stop offset="0.7381" stop-color="#C9D5D6"/>
<stop offset="1" stop-color="#A9BCBE"/>
</linearGradient>
<linearGradient id="paint2_linear_2190_19795" x1="19.0142" y1="47.3898" x2="26.5291" y2="46.5799" gradientUnits="userSpaceOnUse">
<stop offset="0.00132565" stop-color="white" stop-opacity="0"/>
<stop offset="0.1876" stop-color="#F7F8F9" stop-opacity="0.093268"/>
<stop offset="0.4837" stop-color="#E0E7E7" stop-opacity="0.2415"/>
<stop offset="0.8505" stop-color="#BAC9CB" stop-opacity="0.4251"/>
<stop offset="1" stop-color="#A9BCBE" stop-opacity="0.5"/>
</linearGradient>
<linearGradient id="paint3_linear_2190_19795" x1="6.44504" y1="54.2792" x2="24.0882" y2="45.0732" gradientUnits="userSpaceOnUse">
<stop offset="0.00132565" stop-color="white" stop-opacity="0"/>
<stop offset="0.1894" stop-color="#FBFCFC" stop-opacity="0.0941853"/>
<stop offset="0.3776" stop-color="#EFF2F3" stop-opacity="0.1884"/>
<stop offset="0.5658" stop-color="#DBE2E3" stop-opacity="0.2826"/>
<stop offset="0.7542" stop-color="#BFCCCE" stop-opacity="0.3769"/>
<stop offset="0.941" stop-color="#9BAFB2" stop-opacity="0.4704"/>
<stop offset="1" stop-color="#8EA5A8" stop-opacity="0.5"/>
</linearGradient>
<linearGradient id="paint4_linear_2190_19795" x1="13.6947" y1="34.8339" x2="8.29967" y2="47.2651" gradientUnits="userSpaceOnUse">
<stop offset="0.4927" stop-color="white"/>
<stop offset="0.5861" stop-color="#F9FAFA"/>
<stop offset="0.7161" stop-color="#E6ECEC"/>
<stop offset="0.8672" stop-color="#C9D5D6"/>
<stop offset="1" stop-color="#A9BCBE"/>
</linearGradient>
<linearGradient id="paint5_linear_2190_19795" x1="10.9324" y1="43.626" x2="12.7313" y2="36.9258" gradientUnits="userSpaceOnUse">
<stop offset="0.00132565" stop-color="white" stop-opacity="0"/>
<stop offset="0.1876" stop-color="#F7F8F9" stop-opacity="0.093268"/>
<stop offset="0.4837" stop-color="#E0E7E7" stop-opacity="0.2415"/>
<stop offset="0.8505" stop-color="#BAC9CB" stop-opacity="0.4251"/>
<stop offset="1" stop-color="#A9BCBE" stop-opacity="0.5"/>
</linearGradient>
<linearGradient id="paint6_linear_2190_19795" x1="3.59248" y1="51.4465" x2="9.23434" y2="35.9378" gradientUnits="userSpaceOnUse">
<stop offset="0.00132565" stop-color="white" stop-opacity="0"/>
<stop offset="0.2202" stop-color="#FCFCFC" stop-opacity="0.1096"/>
<stop offset="0.4036" stop-color="#F1F4F4" stop-opacity="0.2014"/>
<stop offset="0.5742" stop-color="#E0E6E7" stop-opacity="0.2868"/>
<stop offset="0.737" stop-color="#C7D3D4" stop-opacity="0.3683"/>
<stop offset="0.8929" stop-color="#A8BABC" stop-opacity="0.4464"/>
<stop offset="1" stop-color="#8EA5A8" stop-opacity="0.5"/>
</linearGradient>
<linearGradient id="paint7_linear_2190_19795" x1="3.45109" y1="45.9489" x2="10.3679" y2="35.183" gradientUnits="userSpaceOnUse">
<stop stop-color="white"/>
<stop offset="0.1839" stop-color="#F9FAFA"/>
<stop offset="0.4404" stop-color="#E6ECEC"/>
<stop offset="0.7381" stop-color="#C9D5D6"/>
<stop offset="1" stop-color="#A9BCBE"/>
</linearGradient>
<linearGradient id="paint8_linear_2190_19795" x1="61.1588" y1="42.1434" x2="67.9402" y2="33.6204" gradientUnits="userSpaceOnUse">
<stop stop-color="white"/>
<stop offset="0.1839" stop-color="#F9FAFA"/>
<stop offset="0.4404" stop-color="#E6ECEC"/>
<stop offset="0.7381" stop-color="#C9D5D6"/>
<stop offset="1" stop-color="#A9BCBE"/>
</linearGradient>
<linearGradient id="paint9_linear_2190_19795" x1="75.7179" y1="43.692" x2="64.6562" y2="34.5162" gradientUnits="userSpaceOnUse">
<stop stop-color="white"/>
<stop offset="0.1839" stop-color="#F9FAFA"/>
<stop offset="0.4404" stop-color="#E6ECEC"/>
<stop offset="0.7381" stop-color="#C9D5D6"/>
<stop offset="1" stop-color="#A9BCBE"/>
</linearGradient>
<linearGradient id="paint10_linear_2190_19795" x1="66.098" y1="38.4201" x2="67.1761" y2="39.7747" gradientUnits="userSpaceOnUse">
<stop stop-color="white" stop-opacity="0"/>
<stop offset="0.2965" stop-color="white"/>
<stop offset="1" stop-color="white" stop-opacity="0"/>
</linearGradient>
<linearGradient id="paint11_linear_2190_19795" x1="69.8764" y1="41.1046" x2="64.0237" y2="34.9819" gradientUnits="userSpaceOnUse">
<stop stop-color="#99AFB3"/>
<stop offset="0.7044" stop-color="#93A9AD" stop-opacity="0.2956"/>
<stop offset="1" stop-color="#8EA5A8" stop-opacity="0"/>
</linearGradient>
<linearGradient id="paint12_linear_2190_19795" x1="56.6929" y1="30.653" x2="63.4743" y2="22.13" gradientUnits="userSpaceOnUse">
<stop stop-color="white"/>
<stop offset="0.1839" stop-color="#F9FAFA"/>
<stop offset="0.4404" stop-color="#E6ECEC"/>
<stop offset="0.7381" stop-color="#C9D5D6"/>
<stop offset="1" stop-color="#A9BCBE"/>
</linearGradient>
<linearGradient id="paint13_linear_2190_19795" x1="71.252" y1="32.2021" x2="60.1903" y2="23.0263" gradientUnits="userSpaceOnUse">
<stop stop-color="white"/>
<stop offset="0.1839" stop-color="#F9FAFA"/>
<stop offset="0.4404" stop-color="#E6ECEC"/>
<stop offset="0.7381" stop-color="#C9D5D6"/>
<stop offset="1" stop-color="#A9BCBE"/>
</linearGradient>
<linearGradient id="paint14_linear_2190_19795" x1="61.6321" y1="26.9314" x2="62.7102" y2="28.2861" gradientUnits="userSpaceOnUse">
<stop stop-color="white" stop-opacity="0"/>
<stop offset="0.2965" stop-color="white"/>
<stop offset="1" stop-color="white" stop-opacity="0"/>
</linearGradient>
<linearGradient id="paint15_linear_2190_19795" x1="65.4118" y1="29.6147" x2="59.5587" y2="23.4919" gradientUnits="userSpaceOnUse">
<stop stop-color="#99AFB3"/>
<stop offset="0.7044" stop-color="#93A9AD" stop-opacity="0.2956"/>
<stop offset="1" stop-color="#8EA5A8" stop-opacity="0"/>
</linearGradient>
<linearGradient id="paint16_linear_2190_19795" x1="44.8279" y1="41.9397" x2="69.2673" y2="19.6549" gradientUnits="userSpaceOnUse">
<stop offset="0.4927" stop-color="white"/>
<stop offset="0.5861" stop-color="#F9FAFA"/>
<stop offset="0.7161" stop-color="#E6ECEC"/>
<stop offset="0.8672" stop-color="#C9D5D6"/>
<stop offset="1" stop-color="#A9BCBE"/>
</linearGradient>
<linearGradient id="paint17_linear_2190_19795" x1="48.7997" y1="39.0998" x2="58.4343" y2="33.5676" gradientUnits="userSpaceOnUse">
<stop stop-color="#FF0000"/>
<stop offset="0.2186" stop-color="#F90402"/>
<stop offset="0.5234" stop-color="#E60E09"/>
<stop offset="0.8774" stop-color="#C92014"/>
<stop offset="1" stop-color="#BD2719"/>
</linearGradient>
<linearGradient id="paint18_linear_2190_19795" x1="86.0922" y1="14.6495" x2="62.8759" y2="42.1242" gradientUnits="userSpaceOnUse">
<stop offset="0.00132565" stop-color="white" stop-opacity="0"/>
<stop offset="0.1876" stop-color="#F7F8F9" stop-opacity="0.093268"/>
<stop offset="0.4837" stop-color="#E0E7E7" stop-opacity="0.2415"/>
<stop offset="0.8505" stop-color="#BAC9CB" stop-opacity="0.4251"/>
<stop offset="1" stop-color="#A9BCBE" stop-opacity="0.5"/>
</linearGradient>
<linearGradient id="paint19_linear_2190_19795" x1="39.2173" y1="35.4598" x2="67.5443" y2="32.2228" gradientUnits="userSpaceOnUse">
<stop offset="0.00132565" stop-color="white" stop-opacity="0"/>
<stop offset="0.1543" stop-color="#F7F8F9" stop-opacity="0.0765679"/>
<stop offset="0.3974" stop-color="#E0E6E7" stop-opacity="0.1983"/>
<stop offset="0.6987" stop-color="#BAC8CA" stop-opacity="0.3492"/>
<stop offset="1" stop-color="#8EA5A8" stop-opacity="0.5"/>
</linearGradient>
<linearGradient id="paint20_linear_2190_19795" x1="33.5283" y1="12.2203" x2="40.3097" y2="3.69721" gradientUnits="userSpaceOnUse">
<stop stop-color="white"/>
<stop offset="0.1839" stop-color="#F9FAFA"/>
<stop offset="0.4404" stop-color="#E6ECEC"/>
<stop offset="0.7381" stop-color="#C9D5D6"/>
<stop offset="1" stop-color="#A9BCBE"/>
</linearGradient>
<linearGradient id="paint21_linear_2190_19795" x1="31.5807" y1="0.636404" x2="37.6963" y2="12.2822" gradientUnits="userSpaceOnUse">
<stop stop-color="white"/>
<stop offset="0.1839" stop-color="#F9FAFA"/>
<stop offset="0.4404" stop-color="#E6ECEC"/>
<stop offset="0.7381" stop-color="#C9D5D6"/>
<stop offset="1" stop-color="#A9BCBE"/>
</linearGradient>
<linearGradient id="paint22_linear_2190_19795" x1="38.2062" y1="8.29079" x2="37.1281" y2="6.93603" gradientUnits="userSpaceOnUse">
<stop stop-color="white" stop-opacity="0"/>
<stop offset="0.2965" stop-color="white"/>
<stop offset="1" stop-color="white" stop-opacity="0"/>
</linearGradient>
<linearGradient id="paint23_linear_2190_19795" x1="34.8326" y1="5.28273" x2="39.3224" y2="12.0624" gradientUnits="userSpaceOnUse">
<stop stop-color="#99AFB3"/>
<stop offset="0.7044" stop-color="#93A9AD" stop-opacity="0.2956"/>
<stop offset="1" stop-color="#8EA5A8" stop-opacity="0"/>
</linearGradient>
<linearGradient id="paint24_linear_2190_19795" x1="19.0872" y1="8.66576" x2="25.8687" y2="0.142656" gradientUnits="userSpaceOnUse">
<stop stop-color="white"/>
<stop offset="0.1839" stop-color="#F9FAFA"/>
<stop offset="0.4404" stop-color="#E6ECEC"/>
<stop offset="0.7381" stop-color="#C9D5D6"/>
<stop offset="1" stop-color="#A9BCBE"/>
</linearGradient>
<linearGradient id="paint25_linear_2190_19795" x1="17.1409" y1="-2.91807" x2="23.2565" y2="8.72775" gradientUnits="userSpaceOnUse">
<stop stop-color="white"/>
<stop offset="0.1839" stop-color="#F9FAFA"/>
<stop offset="0.4404" stop-color="#E6ECEC"/>
<stop offset="0.7381" stop-color="#C9D5D6"/>
<stop offset="1" stop-color="#A9BCBE"/>
</linearGradient>
<linearGradient id="paint26_linear_2190_19795" x1="23.7661" y1="4.7362" x2="22.6882" y2="3.3815" gradientUnits="userSpaceOnUse">
<stop stop-color="white" stop-opacity="0"/>
<stop offset="0.2965" stop-color="white"/>
<stop offset="1" stop-color="white" stop-opacity="0"/>
</linearGradient>
<linearGradient id="paint27_linear_2190_19795" x1="20.3929" y1="1.72903" x2="24.8827" y2="8.50873" gradientUnits="userSpaceOnUse">
<stop stop-color="#99AFB3"/>
<stop offset="0.7044" stop-color="#93A9AD" stop-opacity="0.2956"/>
<stop offset="1" stop-color="#8EA5A8" stop-opacity="0"/>
</linearGradient>
<linearGradient id="paint28_linear_2190_19795" x1="19.3263" y1="21.6469" x2="34.7455" y2="-5.06511" gradientUnits="userSpaceOnUse">
<stop offset="0.4927" stop-color="white"/>
<stop offset="0.5861" stop-color="#F9FAFA"/>
<stop offset="0.7161" stop-color="#E6ECEC"/>
<stop offset="0.8672" stop-color="#C9D5D6"/>
<stop offset="1" stop-color="#A9BCBE"/>
</linearGradient>
<linearGradient id="paint29_linear_2190_19795" x1="40.7854" y1="-8.20642" x2="31.0803" y2="14.6952" gradientUnits="userSpaceOnUse">
<stop offset="0.00132565" stop-color="white" stop-opacity="0"/>
<stop offset="0.1876" stop-color="#F7F8F9" stop-opacity="0.093268"/>
<stop offset="0.4837" stop-color="#E0E7E7" stop-opacity="0.2415"/>
<stop offset="0.8505" stop-color="#BAC9CB" stop-opacity="0.4251"/>
<stop offset="1" stop-color="#A9BCBE" stop-opacity="0.5"/>
</linearGradient>
<linearGradient id="paint30_linear_2190_19795" x1="27.4727" y1="26.1142" x2="29.1156" y2="3.39997" gradientUnits="userSpaceOnUse">
<stop offset="0.00132565" stop-color="white" stop-opacity="0"/>
<stop offset="0.1543" stop-color="#F7F8F9" stop-opacity="0.0765679"/>
<stop offset="0.3974" stop-color="#E0E6E7" stop-opacity="0.1983"/>
<stop offset="0.6987" stop-color="#BAC8CA" stop-opacity="0.3492"/>
<stop offset="1" stop-color="#8EA5A8" stop-opacity="0.5"/>
</linearGradient>
<linearGradient id="paint31_linear_2190_19795" x1="22.8948" y1="18.4877" x2="26.1679" y2="9.48411" gradientUnits="userSpaceOnUse">
<stop stop-color="#FF0000"/>
<stop offset="0.2186" stop-color="#F90402"/>
<stop offset="0.5234" stop-color="#E60E09"/>
<stop offset="0.8774" stop-color="#C92014"/>
<stop offset="1" stop-color="#BD2719"/>
</linearGradient>
<radialGradient id="paint32_radial_2190_19795" cx="0" cy="0" r="1" gradientUnits="userSpaceOnUse" gradientTransform="translate(43.8656 21.6781) rotate(-37.7833) scale(43.4069 6.38204)">
<stop offset="0.4927" stop-color="white"/>
<stop offset="0.5861" stop-color="#F9FAFA"/>
<stop offset="0.7161" stop-color="#E6ECEC"/>
<stop offset="0.8672" stop-color="#C9D5D6"/>
<stop offset="1" stop-color="#A9BCBE"/>
</radialGradient>
<linearGradient id="paint33_linear_2190_19795" x1="40.4428" y1="20.9648" x2="44.941" y2="26.6185" gradientUnits="userSpaceOnUse">
<stop offset="0.00132565" stop-color="white" stop-opacity="0"/>
<stop offset="0.1876" stop-color="#F7F8F9" stop-opacity="0.093268"/>
<stop offset="0.4837" stop-color="#E0E7E7" stop-opacity="0.2415"/>
<stop offset="0.8505" stop-color="#BAC9CB" stop-opacity="0.4251"/>
<stop offset="1" stop-color="#A9BCBE" stop-opacity="0.5"/>
</linearGradient>
<linearGradient id="paint34_linear_2190_19795" x1="59.633" y1="9.87444" x2="27.759" y2="49.9345" gradientUnits="userSpaceOnUse">
<stop offset="0.00132565" stop-color="white" stop-opacity="0"/>
<stop offset="0.1876" stop-color="#F7F8F9" stop-opacity="0.093268"/>
<stop offset="0.4837" stop-color="#E0E7E7" stop-opacity="0.2415"/>
<stop offset="0.8505" stop-color="#BAC9CB" stop-opacity="0.4251"/>
<stop offset="1" stop-color="#A9BCBE" stop-opacity="0.5"/>
</linearGradient>
<linearGradient id="paint35_linear_2190_19795" x1="16.5762" y1="40.3279" x2="19.515" y2="44.0846" gradientUnits="userSpaceOnUse">
<stop stop-color="white"/>
<stop offset="0.1839" stop-color="#F9FAFA"/>
<stop offset="0.4404" stop-color="#E6ECEC"/>
<stop offset="0.7381" stop-color="#C9D5D6"/>
<stop offset="1" stop-color="#A9BCBE"/>
</linearGradient>
<linearGradient id="paint36_linear_2190_19795" x1="16.9379" y1="21.1571" x2="17.7466" y2="58.0856" gradientUnits="userSpaceOnUse">
<stop stop-color="white"/>
<stop offset="0.1839" stop-color="#F9FAFA"/>
<stop offset="0.4404" stop-color="#E6ECEC"/>
<stop offset="0.7381" stop-color="#C9D5D6"/>
<stop offset="1" stop-color="#A9BCBE"/>
</linearGradient>
<linearGradient id="paint37_linear_2190_19795" x1="14.1457" y1="16.9908" x2="16.6003" y2="45.654" gradientUnits="userSpaceOnUse">
<stop stop-color="white"/>
<stop offset="0.1839" stop-color="#F9FAFA"/>
<stop offset="0.4404" stop-color="#E6ECEC"/>
<stop offset="0.7381" stop-color="#C9D5D6"/>
<stop offset="1" stop-color="#A9BCBE"/>
</linearGradient>
<linearGradient id="paint38_linear_2190_19795" x1="70.0466" y1="5.065" x2="66.1137" y2="7.3676" gradientUnits="userSpaceOnUse">
<stop/>
<stop offset="0.1097" stop-color="#060606"/>
<stop offset="0.2626" stop-color="#161819"/>
<stop offset="0.4411" stop-color="#303636"/>
<stop offset="0.639" stop-color="#555F60"/>
<stop offset="0.8501" stop-color="#849394"/>
<stop offset="1" stop-color="#A9BCBE"/>
</linearGradient>
<linearGradient id="paint39_linear_2190_19795" x1="65.1463" y1="1.01895" x2="65.1293" y2="5.00774" gradientUnits="userSpaceOnUse">
<stop/>
<stop offset="0.1097" stop-color="#060606"/>
<stop offset="0.2626" stop-color="#161819"/>
<stop offset="0.4411" stop-color="#303636"/>
<stop offset="0.639" stop-color="#555F60"/>
<stop offset="0.8501" stop-color="#849394"/>
<stop offset="1" stop-color="#A9BCBE"/>
</linearGradient>
<linearGradient id="paint40_linear_2190_19795" x1="68.3428" y1="2.58226" x2="66.6631" y2="5.89284" gradientUnits="userSpaceOnUse">
<stop/>
<stop offset="0.1097" stop-color="#060606"/>
<stop offset="0.2626" stop-color="#161819"/>
<stop offset="0.4411" stop-color="#303636"/>
<stop offset="0.639" stop-color="#555F60"/>
<stop offset="0.8501" stop-color="#849394"/>
<stop offset="1" stop-color="#A9BCBE"/>
</linearGradient>
<linearGradient id="paint41_linear_2190_19795" x1="70.5696" y1="6.9851" x2="65.0717" y2="8.28069" gradientUnits="userSpaceOnUse">
<stop/>
<stop offset="0.1097" stop-color="#060606"/>
<stop offset="0.2626" stop-color="#161819"/>
<stop offset="0.4411" stop-color="#303636"/>
<stop offset="0.639" stop-color="#555F60"/>
<stop offset="0.8501" stop-color="#849394"/>
<stop offset="1" stop-color="#A9BCBE"/>
</linearGradient>
<linearGradient id="paint42_linear_2190_19795" x1="62.5739" y1="0.658194" x2="62.8305" y2="4.8918" gradientUnits="userSpaceOnUse">
<stop/>
<stop offset="0.1097" stop-color="#060606"/>
<stop offset="0.2626" stop-color="#161819"/>
<stop offset="0.4411" stop-color="#303636"/>
<stop offset="0.639" stop-color="#555F60"/>
<stop offset="0.8501" stop-color="#849394"/>
<stop offset="1" stop-color="#A9BCBE"/>
</linearGradient>
</defs>
</svg>
