<svg width="30" height="30" viewBox="0 0 30 30" fill="none" xmlns="http://www.w3.org/2000/svg">
<path d="M15.0002 14.7703C16.694 14.7703 18.5902 14.5828 19.8002 13.2003C20.8177 12.0378 21.1477 10.2403 20.8077 7.71031C20.3327 4.17906 18.1615 2.07031 15.0002 2.07031C11.839 2.07031 9.66775 4.17906 9.19275 7.71281C8.85275 10.2403 9.18275 12.0378 10.2002 13.2003C11.4102 14.5841 13.3065 14.7703 15.0002 14.7703ZM11.0502 7.96031C11.2527 6.46031 12.034 3.94531 15.0002 3.94531C17.9665 3.94531 18.7477 6.46156 18.9502 7.96031C19.209 9.89781 19.0215 11.2441 18.3877 11.9666C17.819 12.6166 16.8052 12.8953 15.0002 12.8953C13.1952 12.8953 12.1815 12.6166 11.6127 11.9666C10.979 11.2441 10.7915 9.89656 11.0502 7.96031ZM25.3502 24.0453C24.254 19.6378 19.9977 16.5578 15.0002 16.5578C10.0027 16.5578 5.7465 19.6378 4.65025 24.0453C4.43525 24.9103 4.61525 25.7953 5.144 26.4703C5.654 27.1203 6.444 27.4953 7.31025 27.4953H22.6902C23.5565 27.4953 24.3465 27.1203 24.8565 26.4703C25.3865 25.7953 25.5652 24.9116 25.349 24.0453H25.3502ZM23.3802 25.3153C23.2227 25.5153 22.9852 25.6228 22.6902 25.6228H7.31025C7.0165 25.6228 6.77775 25.5166 6.62025 25.3153C6.449 25.0978 6.39525 24.8003 6.47025 24.4978C7.35775 20.9291 10.8665 18.4353 15.0002 18.4353C19.134 18.4353 22.6427 20.9278 23.5302 24.4978C23.6052 24.8003 23.5515 25.0978 23.3802 25.3153Z" fill="black"/>
</svg>
