<svg width="30" height="31" viewBox="0 0 30 31" fill="none" xmlns="http://www.w3.org/2000/svg">
<path d="M2.56152 9.25293H27.4378" stroke="black" stroke-width="2" stroke-linejoin="round"/>
<path d="M16.8799 3.00098L20.4524 9.25223" stroke="black" stroke-width="2" stroke-linecap="round" stroke-linejoin="round"/>
<path d="M9.00879 3.1377L12.5025 9.2527" stroke="black" stroke-width="2" stroke-linecap="round" stroke-linejoin="round"/>
<path d="M2.5 15.5013V19.8125C2.5 23.3737 3.3725 24.82 4.5075 25.9938C5.6825 27.1288 7.13 28.0025 10.69 28.0025H19.31C22.87 28.0025 24.3175 27.1288 25.4925 25.9938C26.6275 24.82 27.5 23.3737 27.5 19.8125V11.19C27.5 7.63 26.6275 6.1825 25.4925 5.00875C24.3175 3.87375 22.87 3 19.31 3H10.69C7.13 3 5.6825 3.87375 4.5075 5.00875C3.3725 6.1825 2.5 7.63 2.5 11.19V15.5013Z" stroke="black" stroke-width="2" stroke-linecap="round" stroke-linejoin="round"/>
<path fill-rule="evenodd" clip-rule="evenodd" d="M12.2042 22.5805C12.0316 22.4808 11.8882 22.3374 11.7886 22.1647C11.689 21.992 11.6366 21.7961 11.6367 21.5967V15.038C11.6365 14.8384 11.6888 14.6422 11.7885 14.4692C11.8882 14.2963 12.0317 14.1526 12.2046 14.0528C12.3774 13.9529 12.5735 13.9004 12.7732 13.9004C12.9728 13.9004 13.1689 13.9531 13.3417 14.053L19.023 17.333C19.1959 17.4327 19.3395 17.5761 19.4393 17.7489C19.5391 17.9217 19.5917 18.1178 19.5917 18.3174C19.5917 18.5169 19.5391 18.713 19.4393 18.8858C19.3395 19.0586 19.1959 19.2021 19.023 19.3017L13.3417 22.5817C13.1688 22.6816 12.9726 22.7341 12.773 22.7341C12.5733 22.7341 12.3771 22.6816 12.2042 22.5817V22.5805Z" fill="black"/>
</svg>
