<svg width="27" height="23" viewBox="0 0 27 23" fill="none" xmlns="http://www.w3.org/2000/svg">
<path fill-rule="evenodd" clip-rule="evenodd" d="M16.4114 5.87467C16.7871 4.83317 16.6816 3.83121 15.9829 2.88199C16.8662 2.25138 21.8013 -0.104091 24.7676 0.00357463C25.5718 0.0321391 26.2441 0.181553 26.6836 0.895665C26.8286 1.13077 26.9275 1.39444 26.9934 1.68009V8.89591C24.293 5.94278 20.5598 5.41764 16.4114 5.87467ZM13.6165 2.29752C15.0029 2.29752 16.1257 3.42032 16.1257 4.8068C16.1257 6.19327 15.0029 7.31608 13.6165 7.31608C12.23 7.31608 11.1072 6.19327 11.1072 4.8068C11.1072 3.42032 12.23 2.29752 13.6165 2.29752ZM5.02075 22.8354L12.063 8.53775L0.290039 17.8256L4.42529 17.8959L5.02075 22.8354ZM8.23096 8.52237C9.25928 7.99942 10.2546 7.46329 11.2126 6.91837C7.74536 6.17789 3.93091 6.48551 1.22168 8.96622C0.749268 9.39908 0.342773 9.8671 0 10.3703C0.239502 10.8075 0.766846 11.0053 1.57764 10.9657C3.71777 10.8625 6.32153 9.49356 8.23096 8.52237ZM10.5886 5.87467C10.2129 4.83317 10.3184 3.83121 11.0171 2.88199C10.1338 2.25138 5.19873 -0.104091 2.23242 0.00357463C1.43042 0.0343363 0.755859 0.18375 0.316406 0.897862C0.171387 1.13297 0.0725098 1.39664 0.00878906 1.68009V8.89591C2.70923 5.94278 6.44019 5.41764 10.5886 5.87467ZM21.9792 22.8354L14.937 8.53775L26.7122 17.8234L22.5769 17.8937L21.9792 22.8354ZM18.769 8.52237C17.7407 7.99942 16.7454 7.46329 15.7874 6.91837C19.2546 6.17789 23.0691 6.48551 25.7783 8.96622C26.2507 9.39908 26.6572 9.8671 27 10.3703C26.7605 10.8075 26.2332 11.0053 25.4224 10.9657C23.2822 10.8625 20.6785 9.49356 18.769 8.52237Z" fill="black"/>
</svg>
