<svg width="55" height="53" viewBox="0 0 55 53" fill="none" xmlns="http://www.w3.org/2000/svg">
<path d="M27.5 52.9307C42.6878 52.9307 55 41.29 55 26.9307C55 12.5713 42.6878 0.930664 27.5 0.930664C12.3122 0.930664 0 12.5713 0 26.9307C0 41.29 12.3122 52.9307 27.5 52.9307Z" fill="url(#paint0_radial_2190_19770)"/>
<path opacity="0.5" d="M27.5 52.9307C42.6878 52.9307 55 41.29 55 26.9307C55 12.5713 42.6878 0.930664 27.5 0.930664C12.3122 0.930664 0 12.5713 0 26.9307C0 41.29 12.3122 52.9307 27.5 52.9307Z" fill="url(#paint1_radial_2190_19770)"/>
<path opacity="0.5" d="M27.5 52.9307C42.6878 52.9307 55 41.29 55 26.9307C55 12.5713 42.6878 0.930664 27.5 0.930664C12.3122 0.930664 0 12.5713 0 26.9307C0 41.29 12.3122 52.9307 27.5 52.9307Z" fill="url(#paint2_radial_2190_19770)"/>
<path opacity="0.5" d="M27.5 52.9307C42.6878 52.9307 55 41.29 55 26.9307C55 12.5713 42.6878 0.930664 27.5 0.930664C12.3122 0.930664 0 12.5713 0 26.9307C0 41.29 12.3122 52.9307 27.5 52.9307Z" fill="url(#paint3_radial_2190_19770)"/>
<path d="M8.6808 22.3322C8.56052 23.3721 9.66057 24.1521 11.6887 24.3634C13.4246 24.5584 17.3262 24.0709 20.3339 21.1784C20.8839 20.6421 20.1793 20.2359 19.6637 20.5609C17.8934 21.6822 13.373 22.8521 10.0559 22.1371C8.73242 21.8609 8.6808 22.3322 8.6808 22.3322Z" fill="url(#paint4_linear_2190_19770)"/>
<path d="M11.5505 28.8809C10.7427 28.3285 9.72854 29.2222 10.2957 30.1321C10.9145 31.1397 13.802 32.8621 17.4286 32.8621C21.5536 32.8621 23.427 31.4971 23.3755 29.4171C23.3411 27.9222 21.1926 27.646 20.2473 29.4821C18.6489 32.5534 11.5505 28.8809 11.5505 28.8809Z" fill="url(#paint5_radial_2190_19770)"/>
<path d="M36.4711 31.2043C37.9329 31.2043 39.118 29.5092 39.118 27.4181C39.118 25.327 37.9329 23.6318 36.4711 23.6318C35.0093 23.6318 33.8242 25.327 33.8242 27.4181C33.8242 29.5092 35.0093 31.2043 36.4711 31.2043Z" fill="url(#paint6_radial_2190_19770)"/>
<path d="M31.1439 18.383C30.8861 17.0342 32.0033 15.9617 34.2205 15.588C36.1111 15.2629 40.4596 15.7342 44.1034 19.4067C44.7736 20.0892 44.0517 20.6417 43.433 20.2355C41.3533 18.8542 36.2658 17.4892 32.6908 18.5617C31.247 18.9842 31.1439 18.383 31.1439 18.383Z" fill="url(#paint7_linear_2190_19770)"/>
<path d="M36.4711 24.9968C35.3367 24.9968 34.3398 25.9393 33.8242 27.3206C33.8586 25.2731 35.0273 23.6318 36.4711 23.6318C37.9149 23.6318 39.0836 25.2731 39.118 27.3206C38.6024 25.9393 37.6226 24.9968 36.4711 24.9968Z" fill="url(#paint8_linear_2190_19770)"/>
<path d="M43.8114 33.6255C43.5707 33.3654 43.1239 33.5442 43.1582 33.8855C43.2613 34.8442 43.141 36.3067 42.1441 38.1917C39.6348 42.9854 32.8972 38.6305 28.1192 38.9229C20.402 39.4105 22.4473 42.6117 16.0536 42.6117C13.4754 42.6117 11.0176 40.3367 10.6051 38.1267C10.5707 37.948 10.4504 37.7855 10.2957 37.688C10.1238 37.5904 9.90039 37.7205 9.90039 37.8992C9.90039 41.458 12.9426 44.3342 16.7067 44.3342H17.1879C18.7004 44.3342 20.1785 43.8467 21.3645 42.9529L21.5535 42.8067C25.0426 40.1904 29.941 40.1904 33.3957 42.7905C33.4301 42.823 33.4645 42.8392 33.4988 42.8717C34.7535 43.8142 36.3176 44.3342 37.9332 44.3342C41.8863 44.3342 45.0832 41.3117 45.0832 37.5742C45.1176 35.8355 44.9628 34.9092 43.8114 33.6255Z" fill="url(#paint9_radial_2190_19770)"/>
<path d="M13.1314 30.197C14.1627 30.7333 18.872 32.4396 20.5908 29.9046C22.2751 27.4021 23.3408 29.4983 23.3751 29.5795C23.3751 29.5308 23.3751 29.482 23.3751 29.4333C23.3408 27.9383 21.1923 27.6621 20.247 29.4983C18.6486 32.5696 11.5501 28.9133 11.5501 28.9133C10.8455 28.4259 9.98608 29.0433 10.158 29.8234C10.708 28.7346 12.1002 29.6608 13.1314 30.197Z" fill="url(#paint10_linear_2190_19770)"/>
<path d="M43.141 33.8855C43.2441 34.8443 43.1238 36.3068 42.127 38.1918C39.6175 42.9856 32.8801 38.6305 28.1019 38.9231C20.3848 39.4106 22.4301 42.6118 16.0363 42.6118C13.4582 42.6118 11.0004 40.3368 10.5879 38.1268C10.5535 37.948 10.4332 37.7855 10.2786 37.6881C10.141 37.6068 9.95191 37.6718 9.90039 37.818C10.1238 38.0131 10.3472 38.3868 10.4676 38.9231C10.7598 40.0931 12.3582 43.0831 16.3114 43.0831C22.3269 43.0831 22.6879 39.8168 27.4832 39.5406C31.1098 39.3293 33.8942 41.133 38.4832 41.133C43.5535 41.133 43.5191 35.5593 43.777 33.6093C43.5707 33.3656 43.1066 33.5443 43.141 33.8855Z" fill="url(#paint11_linear_2190_19770)"/>
<defs>
<radialGradient id="paint0_radial_2190_19770" cx="0" cy="0" r="1" gradientUnits="userSpaceOnUse" gradientTransform="translate(22.0893 16.3937) scale(33.1752 31.3656)">
<stop stop-color="#FFE030"/>
<stop offset="1" stop-color="#FFB92E"/>
</radialGradient>
<radialGradient id="paint1_radial_2190_19770" cx="0" cy="0" r="1" gradientUnits="userSpaceOnUse" gradientTransform="translate(22.0893 16.3937) scale(26.1004 24.6767)">
<stop stop-color="#FFEA5F"/>
<stop offset="1" stop-color="#FFBC47" stop-opacity="0"/>
</radialGradient>
<radialGradient id="paint2_radial_2190_19770" cx="0" cy="0" r="1" gradientUnits="userSpaceOnUse" gradientTransform="translate(10.813 37.2989) rotate(-2.61941) scale(11.5657 8.65432)">
<stop stop-color="#FF4C00"/>
<stop offset="0.1542" stop-color="#FF4C00"/>
<stop offset="0.1795" stop-color="#FF4C00"/>
<stop offset="0.3996" stop-color="#FB4C0B" stop-opacity="0.7318"/>
<stop offset="0.7799" stop-color="#EF4B27" stop-opacity="0.2683"/>
<stop offset="1" stop-color="#E74A3A" stop-opacity="0"/>
</radialGradient>
<radialGradient id="paint3_radial_2190_19770" cx="0" cy="0" r="1" gradientUnits="userSpaceOnUse" gradientTransform="translate(44.187 37.2989) rotate(-177.381) scale(11.5657 8.65432)">
<stop stop-color="#FF4C00"/>
<stop offset="0.1542" stop-color="#FF4C00"/>
<stop offset="0.1795" stop-color="#FF4C00"/>
<stop offset="0.3996" stop-color="#FB4C0B" stop-opacity="0.7318"/>
<stop offset="0.7799" stop-color="#EF4B27" stop-opacity="0.2683"/>
<stop offset="1" stop-color="#E74A3A" stop-opacity="0"/>
</radialGradient>
<linearGradient id="paint4_linear_2190_19770" x1="13.8882" y1="26.0672" x2="14.3873" y2="22.5493" gradientUnits="userSpaceOnUse">
<stop offset="0.00132565" stop-color="#3C2200"/>
<stop offset="1" stop-color="#7A4400"/>
</linearGradient>
<radialGradient id="paint5_radial_2190_19770" cx="0" cy="0" r="1" gradientUnits="userSpaceOnUse" gradientTransform="translate(16.7672 30.5259) rotate(-177.39) scale(5.0615 2.31439)">
<stop offset="0.00132565" stop-color="#7A4400"/>
<stop offset="1" stop-color="#643800"/>
</radialGradient>
<radialGradient id="paint6_radial_2190_19770" cx="0" cy="0" r="1" gradientUnits="userSpaceOnUse" gradientTransform="translate(35.675 27.5069) rotate(72.9749) scale(3.69044 2.50243)">
<stop offset="0.00132565" stop-color="#7A4400"/>
<stop offset="1" stop-color="#643800"/>
</radialGradient>
<linearGradient id="paint7_linear_2190_19770" x1="37.8304" y1="19.5872" x2="37.2224" y2="16.0235" gradientUnits="userSpaceOnUse">
<stop offset="0.00132565" stop-color="#3C2200"/>
<stop offset="1" stop-color="#7A4400"/>
</linearGradient>
<linearGradient id="paint8_linear_2190_19770" x1="36.4776" y1="23.6984" x2="36.4776" y2="27.227" gradientUnits="userSpaceOnUse">
<stop offset="0.00132565" stop-color="#3C2200"/>
<stop offset="1" stop-color="#512D00"/>
</linearGradient>
<radialGradient id="paint9_radial_2190_19770" cx="0" cy="0" r="1" gradientUnits="userSpaceOnUse" gradientTransform="translate(27.5055 38.9293) scale(13.0991 12.3846)">
<stop offset="0.00132565" stop-color="#7A4400"/>
<stop offset="1" stop-color="#643800"/>
</radialGradient>
<linearGradient id="paint10_linear_2190_19770" x1="16.7356" y1="26.1951" x2="16.7867" y2="32.2889" gradientUnits="userSpaceOnUse">
<stop offset="0.00132565" stop-color="#3C2200"/>
<stop offset="1" stop-color="#512D00"/>
</linearGradient>
<linearGradient id="paint11_linear_2190_19770" x1="9.91167" y1="38.293" x2="43.8034" y2="38.293" gradientUnits="userSpaceOnUse">
<stop offset="0.00132565" stop-color="#3C2200"/>
<stop offset="1" stop-color="#512D00"/>
</linearGradient>
</defs>
</svg>
