<svg width="15" height="14" viewBox="0 0 15 14" fill="none" xmlns="http://www.w3.org/2000/svg">
<g clip-path="url(#clip0_2578_4646)">
<path d="M12.1737 5.93944C12.1737 7.10487 11.7669 8.18143 11.0816 9.05487L14.5379 12.2719C14.8792 12.5892 14.8792 13.1047 14.5379 13.422C14.1967 13.7394 13.6425 13.7394 13.3012 13.422L9.84489 10.2051C8.90573 10.8449 7.74816 11.2207 6.49504 11.2207C3.35814 11.2207 0.816406 8.85682 0.816406 5.93944C0.816406 3.02207 3.35814 0.658203 6.49504 0.658203C9.63194 0.658203 12.1737 3.02207 12.1737 5.93944ZM6.49504 9.59569C7.01131 9.59569 7.52253 9.50111 7.99951 9.31737C8.47648 9.13363 8.90987 8.86431 9.27493 8.5248C9.63999 8.18528 9.92957 7.78222 10.1271 7.33863C10.3247 6.89503 10.4264 6.41959 10.4264 5.93944C10.4264 5.4593 10.3247 4.98385 10.1271 4.54026C9.92957 4.09666 9.63999 3.6936 9.27493 3.35409C8.90987 3.01457 8.47648 2.74526 7.99951 2.56151C7.52253 2.37777 7.01131 2.2832 6.49504 2.2832C5.97877 2.2832 5.46755 2.37777 4.99057 2.56151C4.5136 2.74526 4.08021 3.01457 3.71515 3.35409C3.35009 3.6936 3.0605 4.09666 2.86293 4.54026C2.66537 4.98385 2.56368 5.4593 2.56368 5.93944C2.56368 6.41959 2.66537 6.89503 2.86293 7.33863C3.0605 7.78222 3.35009 8.18528 3.71515 8.5248C4.08021 8.86431 4.5136 9.13363 4.99057 9.31737C5.46755 9.50111 5.97877 9.59569 6.49504 9.59569Z" fill="#111111" fill-opacity="0.9"/>
</g>
<defs>
<clipPath id="clip0_2578_4646">
<rect width="13.9782" height="13" fill="white" transform="translate(0.816406 0.658203)"/>
</clipPath>
</defs>
</svg>
