<svg width="18" height="17" viewBox="0 0 18 17" fill="none" xmlns="http://www.w3.org/2000/svg">
<path fill-rule="evenodd" clip-rule="evenodd" d="M14.9554 7.14443C14.9554 3.19867 11.7567 0 7.81094 0C3.86518 0 0.666504 3.19867 0.666504 7.14443C0.666504 11.0902 3.86518 14.2889 7.81094 14.2889C9.44764 14.2889 10.9558 13.7385 12.1604 12.8128L16.0757 16.7271L16.1802 16.8173C16.545 17.088 17.0627 17.0579 17.3936 16.7271C17.7575 16.3631 17.7575 15.7731 17.3936 15.4092L13.4793 11.4939C14.405 10.2893 14.9554 8.78113 14.9554 7.14443ZM2.53141 7.14448C2.53141 4.22805 4.89565 1.86381 7.81208 1.86381C10.7285 1.86381 13.0928 4.22805 13.0928 7.14448C13.0928 10.0609 10.7285 12.4251 7.81208 12.4251C4.89565 12.4251 2.53141 10.0609 2.53141 7.14448Z" fill="#070707" fill-opacity="0.74"/>
</svg>
