<svg width="39" height="39" viewBox="0 0 39 39" fill="none" xmlns="http://www.w3.org/2000/svg">
<circle cx="19.5" cy="19.5" r="19.5" fill="#484848"/>
<path d="M29.7722 28.6726L24.8912 23.7917C26.1045 22.3328 26.8354 20.4593 26.8354 18.418C26.8354 13.7763 23.0592 10 18.4178 10C13.7762 10 10 13.7763 10 18.418C10 23.0593 13.7762 26.8353 18.4178 26.8353C20.459 26.8353 22.3326 26.1045 23.7915 24.8912L28.6726 29.7722C28.8244 29.9241 29.0235 30 29.2224 30C29.4214 30 29.6204 29.9241 29.7723 29.7722C30.076 29.4685 30.076 28.9763 29.7722 28.6726ZM11.5552 18.418C11.5552 14.6338 14.6337 11.5552 18.4178 11.5552C22.2017 11.5552 25.2801 14.6338 25.2801 18.418C25.2801 22.2018 22.2017 25.2801 18.4178 25.2801C14.6337 25.2801 11.5552 22.2018 11.5552 18.418Z" fill="white" stroke="white" stroke-width="0.5"/>
<path d="M22.2376 17.6422H19.1951V14.5999C19.1951 14.1704 18.8471 13.8223 18.4175 13.8223C17.988 13.8223 17.6399 14.1704 17.6399 14.5999V17.6423H14.5976C14.1681 17.6423 13.82 17.9905 13.82 18.4199C13.82 18.8493 14.1681 19.1975 14.5976 19.1975H17.6399V22.24C17.6399 22.6695 17.988 23.0176 18.4175 23.0176C18.8471 23.0176 19.1951 22.6695 19.1951 22.24V19.1974H22.2376C22.6671 19.1974 23.0152 18.8492 23.0152 18.4198C23.0152 17.9903 22.6671 17.6422 22.2376 17.6422Z" fill="white" stroke="white" stroke-width="0.5"/>
</svg>
