<svg width="30" height="30" viewBox="0 0 30 30" fill="none" xmlns="http://www.w3.org/2000/svg">
<path d="M28.2251 9.18744L15.5938 2.37119C15.2226 2.17119 14.7763 2.17119 14.4063 2.37119L1.78132 9.18744C1.17382 9.51744 0.947569 10.2749 1.27507 10.8824C1.50007 11.3012 1.93132 11.5387 2.37507 11.5387C2.57507 11.5387 2.78007 11.4912 2.96882 11.3887L3.88632 10.8937L5.87382 24.9562C6.14382 26.4737 7.51132 27.5337 9.19882 27.5337H20.8013C22.4888 27.5337 23.8563 26.4737 24.1288 24.9237L26.1138 10.8924L27.0351 11.3899C27.6413 11.7187 28.4001 11.4924 28.7276 10.8849C29.0563 10.2774 28.8276 9.51869 28.2226 9.19119L28.2251 9.18744ZM15.0001 19.2937C12.7563 19.2937 10.9376 17.4749 10.9376 15.2312C10.9376 12.9874 12.7563 11.1687 15.0001 11.1687C17.2438 11.1687 19.0626 12.9874 19.0626 15.2312C19.0626 17.4749 17.2438 19.2937 15.0001 19.2937Z" fill="#0095F6"/>
</svg>
