<svg width="14" height="14" viewBox="0 0 14 14" fill="none" xmlns="http://www.w3.org/2000/svg">
<g clip-path="url(#clip0_2578_4649)">
<path d="M13.1637 4.88827C13.245 5.10917 13.1764 5.35546 13.0012 5.51288L12.2167 6.22636C12.0212 6.40663 11.9272 6.67069 11.9399 6.93475C11.9424 7.00839 11.945 7.08202 11.945 7.15819C11.945 7.23436 11.9424 7.30799 11.9399 7.38163C11.9272 7.64823 12.0186 7.91229 12.2167 8.09002L13.0012 8.8035C13.1764 8.96092 13.245 9.20721 13.1637 9.42811C13.052 9.73026 12.9174 10.0197 12.7626 10.299L12.6432 10.5047C12.4756 10.784 12.2878 11.048 12.0821 11.2969C11.9323 11.4797 11.6835 11.5406 11.46 11.4695L10.452 11.1496C10.1981 11.0683 9.92389 11.1217 9.69791 11.2664C9.5735 11.3451 9.44655 11.4213 9.31452 11.4873C9.07838 11.6092 8.89557 11.8224 8.83717 12.0814L8.6112 13.1148C8.56042 13.3459 8.38268 13.5287 8.14909 13.5668C7.7987 13.6252 7.43815 13.6556 7.06999 13.6556C6.70183 13.6556 6.34128 13.6252 5.99089 13.5668C5.7573 13.5287 5.57956 13.3459 5.52878 13.1148L5.3028 12.0814C5.24695 11.8224 5.06159 11.6092 4.82546 11.4873C4.69343 11.4187 4.56648 11.3451 4.44206 11.2664C4.21863 11.1217 3.94187 11.0683 3.68796 11.1496L2.6825 11.472C2.45906 11.5431 2.21023 11.4797 2.06043 11.2994C1.85477 11.0506 1.66688 10.7865 1.4993 10.5072L1.37996 10.3015C1.22508 10.0222 1.09051 9.73279 0.978791 9.43065C0.897541 9.20975 0.966095 8.96346 1.14129 8.80604L1.92586 8.09256C2.12137 7.91229 2.21531 7.64823 2.20262 7.38417C2.20008 7.31053 2.19754 7.2369 2.19754 7.16073C2.19754 7.08456 2.20008 7.01092 2.20262 6.93729C2.21531 6.67069 2.12391 6.40663 1.92586 6.2289L1.14129 5.51288C0.966095 5.35546 0.897541 5.10917 0.978791 4.88827C1.09051 4.58613 1.22508 4.29667 1.37996 4.01738L1.4993 3.81171C1.66688 3.53242 1.85477 3.26835 2.06043 3.01953C2.21023 2.83671 2.45906 2.77578 2.6825 2.84687L3.6905 3.16679C3.94441 3.24804 4.21863 3.19472 4.4446 3.05C4.56902 2.97128 4.69597 2.89511 4.828 2.8291C5.06413 2.70722 5.24695 2.49394 5.30534 2.23496L5.53132 1.20156C5.5821 0.970507 5.75984 0.787695 5.99343 0.749609C6.34382 0.688672 6.70436 0.658203 7.07253 0.658203C7.44069 0.658203 7.80124 0.688672 8.15163 0.74707C8.38522 0.785156 8.56295 0.967968 8.61374 1.19902L8.83971 2.23242C8.89557 2.4914 9.07838 2.70468 9.31705 2.82656C9.44909 2.89511 9.57604 2.96875 9.70045 3.04746C9.92389 3.19218 10.2006 3.24296 10.4546 3.16425L11.4626 2.84433C11.686 2.77324 11.9348 2.83671 12.0846 3.01699C12.2903 3.26582 12.4782 3.52988 12.6458 3.80917L12.7651 4.01484C12.92 4.29413 13.0545 4.58359 13.1663 4.88573L13.1637 4.88827ZM7.07253 9.18944C7.61125 9.18944 8.1279 8.97543 8.50884 8.5945C8.88977 8.21357 9.10377 7.69691 9.10377 7.15819C9.10377 6.61947 8.88977 6.10282 8.50884 5.72188C8.1279 5.34095 7.61125 5.12694 7.07253 5.12694C6.53381 5.12694 6.01715 5.34095 5.63622 5.72188C5.25529 6.10282 5.04128 6.61947 5.04128 7.15819C5.04128 7.69691 5.25529 8.21357 5.63622 8.5945C6.01715 8.97543 6.53381 9.18944 7.07253 9.18944Z" fill="#111111" fill-opacity="0.9"/>
</g>
<defs>
<clipPath id="clip0_2578_4649">
<rect width="13" height="13" fill="white" transform="translate(0.927734 0.658203)"/>
</clipPath>
</defs>
</svg>
