<svg width="13" height="14" viewBox="0 0 13 14" fill="none" xmlns="http://www.w3.org/2000/svg">
<g clip-path="url(#clip0_3512_31371)">
<path d="M8.57475 6.45573C8.44973 6.45573 8.32751 6.49281 8.22356 6.56227C8.11961 6.63173 8.03859 6.73045 7.99074 6.84596C7.9429 6.96146 7.93038 7.08856 7.95477 7.21118C7.97916 7.3338 8.03936 7.44644 8.12777 7.53484C8.21617 7.62324 8.32881 7.68345 8.45143 7.70784C8.57405 7.73223 8.70115 7.71971 8.81665 7.67187C8.93216 7.62402 9.03088 7.543 9.10034 7.43905C9.1698 7.3351 9.20687 7.21288 9.20687 7.08786C9.20687 6.92021 9.14028 6.75943 9.02173 6.64088C8.90318 6.52233 8.7424 6.45573 8.57475 6.45573ZM5.05392 7.08786C5.05392 6.96281 5.01683 6.84058 4.94735 6.73661C4.87786 6.63265 4.77911 6.55163 4.66357 6.5038C4.54803 6.45597 4.4209 6.44349 4.29827 6.46792C4.17563 6.49235 4.063 6.55261 3.97462 6.64107C3.88624 6.72953 3.82608 6.84221 3.80175 6.96487C3.77742 7.08753 3.79001 7.21464 3.83794 7.33014C3.88587 7.44564 3.96697 7.54432 4.071 7.61372C4.17502 7.68311 4.29729 7.72009 4.42233 7.71998C4.58989 7.71984 4.75053 7.65318 4.86896 7.53465C4.98739 7.41612 5.05392 7.25542 5.05392 7.08786ZM7.85054 8.84286C7.67817 9.02822 7.46951 9.17614 7.23752 9.2774C7.00554 9.37865 6.75519 9.43109 6.50207 9.43145C6.24895 9.4318 5.99847 9.38007 5.7662 9.27946C5.53393 9.17886 5.32484 9.03153 5.15196 8.84665C5.06174 8.73481 4.93079 8.66339 4.78791 8.64811C4.64504 8.63282 4.50194 8.67491 4.3901 8.76513C4.27826 8.85535 4.20685 8.9863 4.19156 9.12917C4.17627 9.27205 4.21836 9.41515 4.30858 9.52698C4.58291 9.83755 4.92012 10.0863 5.29786 10.2566C5.67561 10.4269 6.08525 10.515 6.49962 10.515C6.914 10.515 7.32364 10.4269 7.70139 10.2566C8.07913 10.0863 8.41634 9.83755 8.69067 9.52698C8.77731 9.41525 8.81683 9.27406 8.80078 9.13358C8.78473 8.9931 8.71439 8.86446 8.60478 8.77514C8.49516 8.68583 8.35497 8.64291 8.21414 8.65557C8.07332 8.66822 7.94302 8.73544 7.85108 8.84286H7.85054ZM6.50017 0.771484C5.26815 0.771484 4.06381 1.13682 3.03943 1.82129C2.01504 2.50576 1.21664 3.47862 0.745166 4.61685C0.273695 5.75508 0.150337 7.00756 0.390691 8.2159C0.631044 9.42424 1.22432 10.5342 2.09548 11.4053C2.96664 12.2765 4.07658 12.8698 5.28492 13.1101C6.49326 13.3505 7.74573 13.2271 8.88396 12.7557C10.0222 12.2842 10.9951 11.4858 11.6795 10.4614C12.364 9.43701 12.7293 8.23266 12.7293 7.00065C12.7275 5.34915 12.0706 3.76582 10.9028 2.59802C9.735 1.43023 8.15167 0.773348 6.50017 0.771484ZM6.50017 12.1465C5.48242 12.1465 4.48752 11.8447 3.64129 11.2793C2.79507 10.7138 2.13551 9.91015 1.74604 8.96988C1.35656 8.0296 1.25466 6.99494 1.45321 5.99675C1.65176 4.99855 2.14185 4.08166 2.86151 3.362C3.58117 2.64234 4.49807 2.15225 5.49626 1.95369C6.49446 1.75514 7.52911 1.85705 8.46939 2.24652C9.40967 2.636 10.2133 3.29555 10.7788 4.14178C11.3442 4.98801 11.646 5.9829 11.646 7.00065C11.6446 8.36497 11.102 9.673 10.1372 10.6377C9.17252 11.6024 7.86449 12.1451 6.50017 12.1465Z" fill="#8E8E8E"/>
</g>
<defs>
<clipPath id="clip0_3512_31371">
<rect width="13" height="13" fill="white" transform="translate(0 0.5)"/>
</clipPath>
</defs>
</svg>
