<svg width="25" height="24" viewBox="0 0 25 24" fill="none" xmlns="http://www.w3.org/2000/svg">
<g opacity="0.4">
<path d="M12.4834 0C5.8666 0 0.483398 5.3832 0.483398 12C0.483398 18.6168 5.8666 24 12.4834 24C19.1002 24 24.4834 18.6168 24.4834 12C24.4834 5.3832 19.1002 0 12.4834 0ZM12.4834 21.8182C7.06958 21.8182 2.66522 17.4137 2.66522 12C2.66522 6.58625 7.06958 2.18182 12.4834 2.18182C17.8972 2.18182 22.3016 6.58625 22.3016 12C22.3016 17.4137 17.8971 21.8182 12.4834 21.8182Z" fill="black"/>
<path d="M16.1857 14.6118H8.78035C8.33911 14.6118 7.9413 14.8776 7.7725 15.2853C7.6037 15.6929 7.697 16.1621 8.009 16.4741C9.20406 17.6691 10.793 18.3273 12.483 18.3273C14.1731 18.3273 15.762 17.6691 16.9571 16.4741C17.2691 16.1621 17.3624 15.693 17.1936 15.2853C17.0247 14.8776 16.6269 14.6118 16.1857 14.6118Z" fill="black"/>
<path d="M8.85791 10.7012C9.12845 10.4306 9.28409 10.0554 9.28409 9.67281C9.28409 9.29026 9.12845 8.91499 8.85791 8.64437C8.58736 8.3739 8.21209 8.21826 7.82955 8.21826C7.44627 8.21826 7.07173 8.3739 6.80118 8.64437C6.52991 8.91499 6.375 9.29026 6.375 9.67281C6.375 10.0554 6.52991 10.4306 6.80118 10.7012C7.07173 10.9717 7.447 11.1274 7.82955 11.1274C8.21209 11.1274 8.58736 10.9716 8.85791 10.7012Z" fill="black"/>
<path d="M17.1381 8.21826C16.7556 8.21826 16.3803 8.3739 16.1098 8.64437C15.8392 8.91499 15.6836 9.28946 15.6836 9.67281C15.6836 10.0554 15.8392 10.4306 16.1098 10.7012C16.3803 10.9717 16.7556 11.1274 17.1381 11.1274C17.5207 11.1274 17.896 10.9716 18.1665 10.7012C18.4378 10.4306 18.5927 10.0554 18.5927 9.67281C18.5927 9.29026 18.4378 8.91499 18.1665 8.64437C17.896 8.3739 17.5214 8.21826 17.1381 8.21826Z" fill="black"/>
</g>
</svg>
