<svg width="25" height="24" viewBox="0 0 25 24" fill="none" xmlns="http://www.w3.org/2000/svg">
<path d="M15.9394 10.9891C15.7086 10.9891 15.4829 11.0576 15.291 11.1858C15.0991 11.314 14.9495 11.4963 14.8612 11.7095C14.7729 11.9228 14.7498 12.1574 14.7948 12.3838C14.8398 12.6102 14.951 12.8181 15.1142 12.9813C15.2774 13.1445 15.4853 13.2557 15.7117 13.3007C15.9381 13.3457 16.1727 13.3226 16.386 13.2343C16.5992 13.146 16.7815 12.9964 16.9097 12.8045C17.0379 12.6126 17.1064 12.3869 17.1064 12.1561C17.1064 11.8466 16.9834 11.5498 16.7646 11.3309C16.5457 11.1121 16.2489 10.9891 15.9394 10.9891ZM9.43938 12.1561C9.43938 11.9253 9.37091 11.6996 9.24263 11.5077C9.11436 11.3157 8.93204 11.1662 8.71874 11.0779C8.50544 10.9896 8.27074 10.9665 8.04434 11.0116C7.81794 11.0567 7.61 11.168 7.44683 11.3313C7.28367 11.4946 7.1726 11.7026 7.12768 11.9291C7.08277 12.1555 7.10602 12.3902 7.1945 12.6034C7.28298 12.8166 7.43271 12.9988 7.62476 13.1269C7.8168 13.255 8.04253 13.3233 8.27338 13.3231C8.58271 13.3229 8.87929 13.1998 9.09793 12.981C9.31657 12.7621 9.43938 12.4655 9.43938 12.1561ZM14.6024 15.3961C14.2842 15.7383 13.8989 16.0114 13.4707 16.1983C13.0424 16.3853 12.5802 16.4821 12.1129 16.4827C11.6456 16.4834 11.1832 16.3879 10.7544 16.2022C10.3256 16.0164 9.93956 15.7444 9.62038 15.4031C9.45382 15.1966 9.21207 15.0648 8.9483 15.0366C8.68453 15.0083 8.42035 15.0861 8.21388 15.2526C8.00741 15.4192 7.87556 15.6609 7.84733 15.9247C7.81911 16.1885 7.89682 16.4526 8.06338 16.6591C8.56982 17.2325 9.19237 17.6916 9.88974 18.0061C10.5871 18.3206 11.3434 18.4832 12.1084 18.4832C12.8734 18.4832 13.6296 18.3206 14.327 18.0061C15.0244 17.6916 15.6469 17.2325 16.1534 16.6591C16.3133 16.4528 16.3863 16.1922 16.3567 15.9328C16.327 15.6735 16.1972 15.436 15.9948 15.2711C15.7925 15.1062 15.5336 15.027 15.2736 15.0503C15.0137 15.0737 14.7731 15.1978 14.6034 15.3961H14.6024ZM12.1094 0.495117C9.83489 0.495117 7.61149 1.16958 5.72032 2.43322C3.82916 3.69685 2.35517 5.49291 1.48477 7.59426C0.614358 9.69561 0.386619 12.0079 0.830349 14.2387C1.27408 16.4694 2.36935 18.5185 3.97765 20.1268C5.58596 21.7351 7.63506 22.8304 9.86584 23.2741C12.0966 23.7179 14.4089 23.4901 16.5102 22.6197C18.6116 21.7493 20.4076 20.2753 21.6713 18.3842C22.9349 16.493 23.6094 14.2696 23.6094 11.9951C23.6059 8.94618 22.3932 6.02311 20.2373 3.86719C18.0814 1.71127 15.1583 0.498558 12.1094 0.495117ZM12.1094 21.4951C10.2305 21.4951 8.39373 20.938 6.83146 19.8941C5.2692 18.8502 4.05156 17.3665 3.33252 15.6306C2.61349 13.8947 2.42536 11.9846 2.79192 10.1418C3.15848 8.29894 4.06327 6.6062 5.39187 5.2776C6.72046 3.949 8.4132 3.04422 10.256 2.67766C12.0988 2.3111 14.009 2.49923 15.7449 3.21826C17.4808 3.93729 18.9645 5.15493 20.0083 6.7172C21.0522 8.27947 21.6094 10.1162 21.6094 11.9951C21.6067 14.5139 20.605 16.9287 18.824 18.7097C17.0429 20.4907 14.6281 21.4925 12.1094 21.4951Z" fill="#262626"/>
</svg>
