<svg width="27" height="24" viewBox="0 0 27 24" fill="none" xmlns="http://www.w3.org/2000/svg">
<g opacity="0.4">
<path d="M12.5483 2.18854C12.8502 1.51104 13.0013 1.17229 13.2116 1.06797C13.3942 0.977342 13.6087 0.977342 13.7913 1.06797C14.0015 1.17229 14.1526 1.51104 14.4546 2.18854L16.86 7.58493C16.9493 7.78521 16.9939 7.88536 17.0631 7.96204C17.1241 8.0299 17.1989 8.08418 17.2822 8.12133C17.3765 8.16333 17.4856 8.17484 17.7037 8.19785L23.5793 8.81799C24.3169 8.89584 24.6857 8.93477 24.8499 9.1025C24.9925 9.2482 25.0588 9.45221 25.029 9.65393C24.9949 9.88612 24.7194 10.1344 24.1684 10.631L19.7793 14.5863C19.6165 14.733 19.535 14.8065 19.4835 14.8958C19.4378 14.975 19.4092 15.0628 19.3997 15.1536C19.3889 15.2563 19.4116 15.3635 19.4571 15.5781L20.683 21.3576C20.837 22.0833 20.9139 22.4461 20.8051 22.654C20.7106 22.8348 20.5371 22.9608 20.336 22.9949C20.1046 23.034 19.7834 22.8488 19.1408 22.4782L14.0228 19.5262C13.8329 19.4166 13.7379 19.362 13.637 19.3405C13.5476 19.3215 13.4552 19.3215 13.3659 19.3405C13.2649 19.362 13.17 19.4166 12.98 19.5262L7.86209 22.4782C7.21954 22.8488 6.89827 23.034 6.66685 22.9949C6.46582 22.9608 6.29228 22.8348 6.19779 22.654C6.08901 22.4461 6.16596 22.0833 6.31987 21.3576L7.54573 15.5781C7.59123 15.3635 7.61398 15.2563 7.60318 15.1536C7.59362 15.0628 7.56509 14.975 7.51943 14.8958C7.46784 14.8065 7.38639 14.733 7.22351 14.5863L2.83456 10.631C2.28355 10.1344 2.00804 9.88612 1.97378 9.65393C1.94404 9.45221 2.01032 9.2482 2.15295 9.1025C2.31715 8.93477 2.68598 8.89584 3.42364 8.81799L9.29923 8.19785C9.51731 8.17484 9.62633 8.16333 9.72062 8.12133C9.80403 8.08418 9.87873 8.0299 9.93985 7.96204C10.0089 7.88536 10.0536 7.78521 10.1429 7.58493L12.5483 2.18854Z" stroke="black" stroke-width="2" stroke-linecap="round" stroke-linejoin="round"/>
</g>
</svg>
