<svg width="28" height="28" viewBox="0 0 28 28" fill="none" xmlns="http://www.w3.org/2000/svg">
<path d="M15.6138 7.76687C15.6138 8.74593 14.8201 9.5396 13.8411 9.5396C12.8621 9.5396 12.0684 8.74593 12.0684 7.76687C12.0684 6.78783 12.8621 5.99414 13.8411 5.99414C14.8201 5.99414 15.6138 6.78783 15.6138 7.76687Z" fill="#0F0F0F"/>
<path d="M6.80999 10.3485C6.60359 10.9677 6.93823 11.637 7.55743 11.8434C7.76459 11.9121 7.97342 11.9762 8.18247 12.0388C8.56497 12.1535 9.10011 12.3065 9.7127 12.4596C10.4001 12.6315 11.2177 12.8122 12.0419 12.9351C11.9875 13.9901 11.8554 14.7471 11.7326 15.2493L9.23774 20.2391C8.94584 20.8229 9.18248 21.5328 9.76627 21.8247C10.3501 22.1166 11.06 21.8799 11.3519 21.2962L13.8403 16.3193L16.3287 21.2962C16.6206 21.8799 17.3304 22.1166 17.9142 21.8247C18.498 21.5328 18.7346 20.8229 18.4427 20.2391L15.9479 15.2493C15.8251 14.7471 15.693 13.9901 15.6386 12.9351C16.4628 12.8122 17.2804 12.6315 17.9678 12.4596C18.5804 12.3065 19.1155 12.1535 19.498 12.0388C19.7056 11.9765 19.9129 11.9128 20.1187 11.8448C20.7256 11.6434 21.0731 10.9562 20.8705 10.3485C20.6642 9.7293 19.9949 9.39467 19.3758 9.60095C19.1912 9.66201 19.0052 9.71898 18.8189 9.77486C18.4627 9.8817 17.9637 10.0243 17.3946 10.1666C16.2294 10.4578 14.8695 10.7222 13.8403 10.7222C12.811 10.7222 11.4511 10.4578 10.286 10.1666C9.71676 10.0243 9.21781 9.8817 8.86166 9.77486C8.67768 9.71966 8.49408 9.66303 8.31154 9.6032C7.69757 9.40016 7.01577 9.7311 6.80999 10.3485Z" fill="#0F0F0F"/>
<path fill-rule="evenodd" clip-rule="evenodd" d="M26.8408 14.2671C26.8408 21.4469 21.0205 27.2671 13.8408 27.2671C6.66112 27.2671 0.84082 21.4469 0.84082 14.2671C0.84082 7.0874 6.66112 1.26709 13.8408 1.26709C21.0205 1.26709 26.8408 7.0874 26.8408 14.2671ZM3.21253 14.2671C3.21253 20.1369 7.97098 24.8954 13.8408 24.8954C19.7107 24.8954 24.4691 20.1369 24.4691 14.2671C24.4691 8.39726 19.7107 3.6388 13.8408 3.6388C7.97098 3.6388 3.21253 8.39726 3.21253 14.2671Z" fill="#0F0F0F" stroke="white"/>
</svg>
