<svg width="27" height="36" viewBox="0 0 27 36" fill="none" xmlns="http://www.w3.org/2000/svg">
<path d="M24.6265 0.602718C24.2087 0.734325 23.5547 1.05395 23.1732 1.31717C22.3738 1.8812 22.0832 1.9188 21.52 1.52398C21.0477 1.16676 20.757 1.29836 19.8669 2.25723C19.4309 2.72726 19.0675 2.93407 18.7042 2.93407C18.4317 2.93407 18.032 3.02808 17.8322 3.12209C17.596 3.2725 17.269 3.25369 16.7785 3.10328C15.8339 2.82127 15.307 3.10328 15.307 3.93054C15.2889 4.34417 15.089 4.7766 14.6894 5.26543L14.0717 6.01748L13.2906 5.20903C12.6366 4.55098 12.4004 4.41937 11.8917 4.47578C11.5102 4.51338 11.2196 4.41937 11.1106 4.25016C10.9652 4.00574 10.8926 4.04335 10.5837 4.41937C10.3839 4.66379 10.2204 4.98341 10.2204 5.13382C10.2204 5.28423 9.98423 5.49104 9.6754 5.58505C9.20307 5.77306 9.1304 5.88587 9.1304 6.50631C9.1304 7.05155 9.0214 7.31477 8.67624 7.59679C8.4219 7.8036 8.22207 8.10442 8.22207 8.27363C8.22207 8.63086 8.76707 8.95048 9.38473 8.95048C9.63907 8.95048 9.8934 9.04448 9.9479 9.13849C10.1114 9.40171 9.5664 10.2666 9.2394 10.2666C9.11223 10.2666 8.73074 10.5862 8.38557 10.9998C7.76791 11.7143 7.73157 11.7143 6.42358 11.7331C5.15192 11.7331 4.91575 11.8271 4.73409 12.3911C4.69775 12.4663 4.38892 12.5791 4.02559 12.6355C3.57143 12.7107 3.29893 12.6543 3.08093 12.4475C2.75393 12.1091 1.59127 12.0339 1.4096 12.3535C1.33694 12.4475 1.0826 12.6167 0.846438 12.7295C0.464939 12.8611 0.428606 12.9551 0.592106 13.2748C0.701105 13.4816 1.00994 13.6884 1.28244 13.7636C2.24527 13.9704 2.24527 13.9704 2.1181 14.7977L1.99093 15.5685L2.5541 15.4369C3.37159 15.2677 3.55326 15.4369 3.22626 16.095C2.86293 16.8094 2.86293 16.7906 3.49876 17.129C4.22542 17.5239 4.53426 18.2759 4.13459 18.7271C3.78942 19.122 3.78942 19.2536 4.13459 19.592C4.29809 19.78 4.37076 20.0432 4.29809 20.344C4.15276 20.9457 4.33442 21.6601 4.69775 21.8105C4.84309 21.8669 5.20642 21.7917 5.49708 21.6413C6.20558 21.2653 6.40541 21.2841 6.40541 21.7541C6.40541 21.961 6.49625 22.3182 6.62341 22.5438C6.76874 22.807 6.82324 23.5215 6.78691 24.5179L6.73241 26.0784L7.20474 25.9468C7.96774 25.7588 7.91324 26.4733 7.02308 28.4098C6.33275 29.9139 6.27825 30.2335 6.67791 30.5719C6.85958 30.7223 6.91408 30.9668 6.84141 31.2676C6.76874 31.512 6.82324 31.9256 6.95041 32.17C7.13208 32.5273 7.11391 32.6777 6.80508 33.1289C6.16925 34.069 6.15108 34.445 6.71424 34.8586C6.98674 35.0466 7.53174 35.3286 7.91324 35.4415C8.51274 35.6483 8.65807 35.6295 9.20307 35.291C9.53007 35.0654 9.92973 34.8962 10.0751 34.8962C10.4929 34.8962 11.8372 33.8245 12.2187 33.1665C12.4004 32.8469 12.6184 32.0196 12.6911 31.3428C12.8546 29.7823 13.345 29.237 15.1617 28.673C17.4325 27.9774 18.2864 27.8457 19.1947 28.0714C19.6489 28.1842 20.0304 28.203 20.0304 28.109C20.0304 27.8645 19.3037 27.5261 19.0312 27.6389C18.5589 27.8269 17.6687 27.3569 17.5597 26.8869C17.3962 26.1912 17.5779 25.7024 18.577 24.2923C19.2674 23.2958 19.4854 22.8446 19.4854 22.3182C19.4854 21.6789 19.558 21.6037 20.3574 21.2089C21.2293 20.7765 21.8833 20.7953 22.9552 21.2465C23.2095 21.3593 23.2458 21.1337 23.264 19.4604C23.3003 17.6743 23.2822 17.5615 22.9552 17.6555C22.719 17.7119 22.6282 17.6555 22.6827 17.5051C22.7372 17.3734 22.7008 17.2042 22.5918 17.129C22.283 16.941 22.3557 16.6402 22.719 16.6966C22.9733 16.753 23.0278 16.6026 23.0278 15.7189C23.046 15.1549 22.937 14.3088 22.8098 13.8388C22.6827 13.3688 22.5737 12.6919 22.5737 12.3159C22.5737 11.8835 22.4465 11.5263 22.2103 11.3006C22.0105 11.1126 21.847 10.7554 21.847 10.511C21.847 10.0033 22.3193 9.74013 22.6282 10.0598C22.9552 10.3982 23.0642 10.3042 23.5547 9.2325C23.7908 8.66846 24.245 7.87881 24.5538 7.50278C25.2442 6.60032 25.6257 5.43464 25.8618 3.47931C25.9527 2.61445 26.098 1.8436 26.1525 1.76839C26.2797 1.54278 25.8618 0.527512 25.6075 0.433506C25.4803 0.395901 25.0443 0.471107 24.6265 0.602718Z" fill="black"/>
</svg>
