<svg width="40" height="41" viewBox="0 0 40 41" fill="none" xmlns="http://www.w3.org/2000/svg">
<circle cx="20" cy="20.4277" r="20" fill="black" fill-opacity="0.1"/>
<path d="M19.9999 11.8862C24.8284 11.8862 28.5713 15.4234 28.5713 20.2005C28.5713 24.9777 24.8284 28.5148 19.9999 28.5148C19.1617 28.5168 18.3271 28.406 17.5184 28.1855C17.3665 28.1435 17.2047 28.1554 17.0606 28.2191L15.357 28.9698C15.2542 29.0151 15.1418 29.0345 15.0298 29.0262C14.9178 29.018 14.8095 28.9823 14.7144 28.9225C14.6193 28.8626 14.5404 28.7803 14.4846 28.6828C14.4288 28.5854 14.3977 28.4757 14.3941 28.3634L14.3477 26.8391C14.3446 26.7463 14.3225 26.6551 14.283 26.5711C14.2435 26.4871 14.1872 26.4121 14.1177 26.3505C13.2577 25.5757 12.573 24.6264 12.1092 23.5658C11.6454 22.5053 11.4133 21.3579 11.4284 20.2005C11.4284 15.4234 15.1713 11.8862 19.9999 11.8862ZM14.8527 22.6319C14.8018 22.7126 14.7808 22.8087 14.7934 22.9032C14.8061 22.9978 14.8516 23.0849 14.9219 23.1494C14.9922 23.2139 15.083 23.2516 15.1783 23.256C15.2736 23.2604 15.3675 23.2311 15.4434 23.1734L18.1477 21.1205C18.2371 21.0533 18.3459 21.0169 18.4577 21.0169C18.5695 21.0169 18.6783 21.0533 18.7677 21.1205L20.7677 22.6205C20.9098 22.7267 21.0723 22.8024 21.245 22.8428C21.4178 22.8831 21.597 22.8873 21.7714 22.855C21.9459 22.8228 22.1117 22.7547 22.2586 22.6552C22.4055 22.5558 22.5302 22.427 22.6249 22.2769L25.1427 18.2827C25.1936 18.202 25.2146 18.106 25.202 18.0114C25.1893 17.9168 25.1439 17.8297 25.0735 17.7652C25.0032 17.7007 24.9124 17.663 24.8171 17.6586C24.7218 17.6542 24.628 17.6835 24.552 17.7412L21.8477 19.7941C21.7583 19.8613 21.6495 19.8977 21.5377 19.8977C21.4259 19.8977 21.3171 19.8613 21.2277 19.7941L19.2277 18.2941C19.0856 18.1879 18.9231 18.1122 18.7504 18.0718C18.5776 18.0315 18.3984 18.0273 18.224 18.0596C18.0495 18.0919 17.8837 18.1599 17.7368 18.2594C17.5899 18.3588 17.4652 18.4876 17.3706 18.6377L14.8527 22.6319Z" fill="black"/>
</svg>
