<svg width="31" height="30" viewBox="0 0 31 30" fill="none" xmlns="http://www.w3.org/2000/svg">
<path d="M9.52162 27.0534C9.07805 27.0534 8.71805 26.6934 8.71805 26.2499C8.71805 25.8063 9.07805 25.4463 9.52162 25.4463H20.7716C21.2152 25.4463 21.5752 25.8063 21.5752 26.2499C21.5752 26.6934 21.2152 27.0534 20.7716 27.0534H9.52162ZM18.5356 13.7634L13.0627 17.0602C12.5656 17.3591 11.9323 17.0024 11.9323 16.4216V9.827C11.9323 9.24736 12.5656 8.8895 13.0627 9.18843L18.5356 12.4863C19.0166 12.7756 19.0166 13.4731 18.5356 13.7634ZM23.4502 21.6963C24.7809 21.6963 25.8609 20.6163 25.8609 19.2856V6.96415C25.8609 5.63343 24.7809 4.55343 23.4502 4.55343H6.84305C5.51234 4.55343 4.43234 5.63343 4.43234 6.96415V19.2856C4.43234 20.6163 5.51234 21.6963 6.84305 21.6963H23.4502ZM23.4502 23.3034H6.84305C4.62412 23.3034 2.8252 21.5045 2.8252 19.2856V6.96415C2.8252 4.74522 4.62412 2.94629 6.84305 2.94629H23.4502C25.6691 2.94629 27.4681 4.74522 27.4681 6.96415V19.2856C27.4681 21.5045 25.6691 23.3034 23.4502 23.3034Z" fill="black"/>
</svg>
