<svg width="13" height="14" viewBox="0 0 13 14" fill="none" xmlns="http://www.w3.org/2000/svg">
<path fill-rule="evenodd" clip-rule="evenodd" d="M2.24293 1.53978C3.22884 0.553876 4.56602 0 5.9603 0C7.35458 0 8.69176 0.553876 9.67767 1.53978C10.6636 2.52568 11.2175 3.86285 11.2175 5.25713C11.2175 6.63274 10.6783 7.95276 9.71707 8.9347C9.76395 8.97937 9.81024 9.02798 9.85542 9.08037L12.23 11.8332C12.6393 12.3077 12.8035 12.912 12.5966 13.1829C12.3898 13.4538 11.8903 13.2887 11.4809 12.8142L9.10636 10.0613C8.99658 9.93407 8.90444 9.79747 8.83235 9.66047C7.98454 10.2134 6.98793 10.5143 5.9603 10.5143C4.56601 10.5143 3.22882 9.96042 2.24291 8.97451C1.257 7.9886 0.703125 6.65142 0.703125 5.25713C0.703135 3.86285 1.25702 2.52568 2.24293 1.53978ZM7.65753 1.2444C7.11944 1.02612 6.54272 0.913783 5.9603 0.913785C4.78405 0.913791 3.65598 1.3714 2.82425 2.18593C1.99252 3.00047 1.52526 4.10521 1.52525 5.25713C1.52526 6.40905 1.99252 7.5138 2.82425 8.32833C3.65598 9.14287 4.78405 9.60047 5.9603 9.60048C6.54272 9.60048 7.11944 9.48814 7.65753 9.26987C8.19562 9.05159 8.68454 8.73166 9.09637 8.32835C9.50821 7.92503 9.8349 7.44622 10.0578 6.91926C10.2807 6.3923 10.3954 5.82751 10.3954 5.25713C10.3954 4.68675 10.2807 4.12196 10.0578 3.595C9.8349 3.06804 9.50821 2.58923 9.09637 2.18592C8.68454 1.7826 8.19562 1.46267 7.65753 1.2444Z" fill="black" fill-opacity="0.35"/>
</svg>
